<svg width="482" height="192" viewBox="0 0 482 192" fill="none" xmlns="http://www.w3.org/2000/svg">
<path d="M337.492 153.359V153.859H337.992H425.202V187.496V187.996H425.702H457.482H457.982V187.496V153.859H481.002H481.502V153.359V125.96V125.46H481.002H457.982V3.51535V3.01535H457.482H438.59H438.09H426.061H425.561H416.006H415.731L415.583 3.24808L337.57 126.591L337.492 126.713V126.858V153.359ZM424.9 41.7458H425.561V125.46H372.606V124.667L424.9 41.7458Z" stroke="black"/>
<path d="M202.297 180.177L202.299 180.179C212.989 187.733 225.781 191.5 240.652 191.5C255.523 191.5 268.286 187.733 278.916 180.178C289.601 172.627 297.765 161.703 303.42 147.436C309.135 133.108 311.984 115.853 311.984 95.6856C311.984 75.6383 309.135 58.5033 303.42 44.295C297.765 30.0867 289.6 19.2216 278.914 11.7301C268.225 4.23688 255.463 0.5 240.652 0.5C225.841 0.5 213.079 4.23688 202.391 11.7301L202.39 11.7308C191.764 19.2221 183.6 30.0865 177.885 44.2933L177.885 44.2943C172.229 58.4425 169.38 75.5773 169.32 95.6841V95.6856C169.32 115.793 172.139 133.017 177.794 147.344L177.795 147.347C183.51 161.613 191.673 172.566 202.297 180.177ZM267.423 145.649L267.422 145.65C260.854 156.842 251.938 162.382 240.652 162.382C233.113 162.382 226.62 159.911 221.148 154.966C215.67 149.955 211.399 142.499 208.363 132.553C205.39 122.613 203.926 110.329 203.986 95.6876L203.986 95.6869C204.045 73.8032 207.394 57.2881 213.972 46.0805L213.972 46.0795C220.542 34.826 229.429 29.2589 240.652 29.2589C248.129 29.2589 254.592 31.7582 260.065 36.7638L260.067 36.7658C265.545 41.717 269.816 49.1129 272.852 59.0002C275.885 68.8794 277.408 81.1038 277.408 95.6856C277.408 117.749 274.06 134.383 267.423 145.649Z" stroke="black"/>
<path d="M0.5 153.359V153.859H1H88.2094V187.496V187.996H88.7094H120.489H120.989V187.496V153.859H144.01H144.51V153.359V125.96V125.46H144.01H120.989V3.51535V3.01535H120.489H101.598H101.098H89.0685H88.5685H79.0137H78.7384L78.5912 3.24808L0.57743 126.591L0.5 126.713V126.858V153.359ZM87.9079 41.7458H88.5685V125.46H35.6142V124.667L87.9079 41.7458Z" stroke="black"/>
</svg>
