<svg width="28" height="28" viewBox="0 0 28 28" fill="none" xmlns="http://www.w3.org/2000/svg">
<path d="M14.28 20.024C15.7799 20.024 16.9958 18.8253 16.9958 17.3467C16.9958 15.868 15.7799 14.6694 14.28 14.6694C12.7801 14.6694 11.5642 15.868 11.5642 17.3467C11.5642 18.8253 12.7801 20.024 14.28 20.024ZM14.28 20.024C11.3802 20.024 9.02946 22.3414 9.02946 25.2H19.5305C19.5305 22.3414 17.1798 20.024 14.28 20.024ZM14.28 20.024V22.255M13.0126 14.0447V6.36977H10.6589L14.28 2.80005L17.901 6.36977H15.5474V14.0447M18.5347 15.651C19.2207 11.8486 20.052 10.3183 22.4274 8.77933L21.0695 7.35144L26.32 6.81598V12.1706L24.6905 10.7427C21.863 13.5031 21.0425 16.2579 21.0695 23.4152M10.0253 15.651C9.3393 11.8486 8.508 10.3183 6.13262 8.77933L7.49052 7.35144L2.23999 6.81598V12.1706L3.86946 10.7427C6.69702 13.5031 7.51744 16.2579 7.49052 23.4152" stroke="black" stroke-linecap="round" stroke-linejoin="round"/>
</svg>
