<svg width="18" height="19" viewBox="0 0 18 19" fill="none" xmlns="http://www.w3.org/2000/svg">
<path fill-rule="evenodd" clip-rule="evenodd" d="M12.75 16.25H5.25C4.42125 16.25 3.75 15.5788 3.75 14.75V7.25C3.75 6.42125 4.42125 5.75 5.25 5.75H12.75C13.5788 5.75 14.25 6.42125 14.25 7.25V14.75C14.25 15.5788 13.5788 16.25 12.75 16.25Z" stroke="black" stroke-linecap="round" stroke-linejoin="round"/>
<path d="M7.5 8H10.5" stroke="black" stroke-linecap="round" stroke-linejoin="round"/>
<path d="M6 16.25V17" stroke="black" stroke-linecap="round" stroke-linejoin="round"/>
<path d="M12 16.25V17" stroke="black" stroke-linecap="round" stroke-linejoin="round"/>
<path d="M12 5.75V3.5C12 2.67125 11.3288 2 10.5 2H7.5C6.67125 2 6 2.67125 6 3.5V5.75" stroke="black" stroke-linecap="round" stroke-linejoin="round"/>
<path d="M9 10.25V14" stroke="black" stroke-linecap="round" stroke-linejoin="round"/>
<path d="M6 10.25V14" stroke="black" stroke-linecap="round" stroke-linejoin="round"/>
<path d="M12 10.25V14" stroke="black" stroke-linecap="round" stroke-linejoin="round"/>
</svg>
