<svg width="26" height="26" viewBox="0 0 26 26" fill="none" xmlns="http://www.w3.org/2000/svg">
<path d="M18.1228 8.59983C19.0935 8.27958 20.156 8.68119 20.6722 9.56348L22.4635 12.6265C22.7557 13.1261 22.8359 13.7218 22.6862 14.2808C22.5364 14.8399 22.1692 15.3158 21.6664 15.6024C18.9119 17.1724 14.6495 19.602 10.7766 21.8094C9.68343 22.4325 8.44675 22.7599 7.18848 22.7594V22.7594" stroke="black" stroke-linecap="round" stroke-linejoin="round"/>
<path fill-rule="evenodd" clip-rule="evenodd" d="M5.42643 3.2594H8.67643C9.87305 3.2594 10.8431 4.22945 10.8431 5.42607V18.9677C10.8431 21.0618 9.14551 22.7594 7.05143 22.7594V22.7594C4.95735 22.7594 3.25977 21.0618 3.25977 18.9677V5.42607C3.25977 4.22945 4.22982 3.2594 5.42643 3.2594Z" stroke="black" stroke-linecap="round" stroke-linejoin="round"/>
<path d="M7.05176 22.7593V22.7593C8.8589 22.7603 10.5307 21.8018 11.4431 20.2419C13.7451 16.3055 16.2115 12.0882 17.889 9.21973C18.1812 8.72009 18.2613 8.1243 18.1115 7.56521C17.9617 7.00612 17.5944 6.53021 17.0916 6.24361L13.9647 4.46137C12.9332 3.87351 11.6208 4.2252 11.0215 5.25004L10.8434 5.55449" stroke="black" stroke-linecap="round" stroke-linejoin="round"/>
<path d="M7.32324 18.9682C7.32305 19.1176 7.20178 19.2387 7.05229 19.2386C6.90281 19.2386 6.78164 19.1174 6.78158 18.9679C6.78151 18.8184 6.90258 18.6972 7.05206 18.697C7.12401 18.6969 7.19304 18.7254 7.24392 18.7763C7.29479 18.8272 7.32333 18.8962 7.32324 18.9682" stroke="black" stroke-linecap="round" stroke-linejoin="round"/>
</svg>
