<svg width="26" height="26" viewBox="0 0 26 26" fill="none" xmlns="http://www.w3.org/2000/svg">
<path d="M22.7481 22.7488V4.64301C22.7465 4.18702 22.5219 3.76064 22.1468 3.50146C21.7716 3.24227 21.2933 3.18309 20.8663 3.34301L13.9016 5.95059C13.3571 6.15467 12.9968 6.67564 12.9981 7.25709V22.7488" stroke="black" stroke-linecap="round" stroke-linejoin="round"/>
<path fill-rule="evenodd" clip-rule="evenodd" d="M6.9043 5.68616H9.3418C10.0149 5.68616 10.5605 6.23181 10.5605 6.90491V9.34241H5.68555V6.90491C5.68555 6.23181 6.2312 5.68616 6.9043 5.68616V5.68616Z" stroke="black" stroke-linecap="round" stroke-linejoin="round"/>
<path d="M8.1237 3.24866V5.68616" stroke="black" stroke-linecap="round" stroke-linejoin="round"/>
<path d="M3.24805 22.7487V10.5612C3.24805 9.88806 3.7937 9.34241 4.4668 9.34241H11.7793C12.4524 9.34241 12.998 9.88806 12.998 10.5612V22.7487" stroke="black" stroke-linecap="round" stroke-linejoin="round"/>
<path d="M6.2959 16.6549H9.95215" stroke="black" stroke-linecap="round" stroke-linejoin="round"/>
<path d="M6.2959 16.6549H9.95215" stroke="black" stroke-linecap="round" stroke-linejoin="round"/>
<path d="M6.2959 12.9987H9.95215" stroke="black" stroke-linecap="round" stroke-linejoin="round"/>
<path d="M8.1237 20.9211V22.7487" stroke="black" stroke-linecap="round" stroke-linejoin="round"/>
<path d="M23.8317 22.7487H2.16504" stroke="black" stroke-linecap="round" stroke-linejoin="round"/>
<path d="M16.2477 9.81042V18.4153" stroke="black" stroke-linecap="round" stroke-linejoin="round"/>
<path d="M19.4977 9.81042V18.4153" stroke="black" stroke-linecap="round" stroke-linejoin="round"/>
</svg>
