<svg width="22" height="22" viewBox="0 0 22 22" fill="none" xmlns="http://www.w3.org/2000/svg">
<path d="M4.64837 18.7905H3.52208C2.84342 18.7905 2.26627 18.2953 2.16303 17.6246L1.85495 15.6217C1.70582 14.6838 2.29878 13.7877 3.22027 13.5584C4.58306 13.2358 5.98189 13.091 7.38186 13.1277V13.1258C8.2061 12.407 9.11774 11.7951 10.0952 11.3046C12.1326 10.2859 14.5308 10.2859 16.5682 11.3046L18.6373 12.3391C18.9288 12.4831 19.2315 12.6035 19.5423 12.6992C19.9164 12.8208 20.1685 13.1709 20.1653 13.5642V17.4156C20.1653 18.175 19.5497 18.7906 18.7903 18.7906H17.3704" stroke="white" stroke-linecap="round" stroke-linejoin="round"/>
<path d="M10.9993 6.87382V5.95715" stroke="white" stroke-linecap="round" stroke-linejoin="round"/>
<path d="M7.79004 5.49894L7.33171 5.95728" stroke="white" stroke-linecap="round" stroke-linejoin="round"/>
<path d="M14.666 5.95728L14.2077 5.49894" stroke="white" stroke-linecap="round" stroke-linejoin="round"/>
<path d="M16.499 3.2073H5.49902" stroke="white" stroke-linecap="round" stroke-linejoin="round"/>
<circle cx="6.09733" cy="18.1031" r="1.60417" stroke="white" stroke-linecap="round" stroke-linejoin="round"/>
<circle cx="15.9196" cy="18.1031" r="1.60417" stroke="white" stroke-linecap="round" stroke-linejoin="round"/>
<path d="M14.4121 18.7907H7.54688" stroke="white" stroke-linecap="round" stroke-linejoin="round"/>
</svg>
