<svg width="26" height="26" viewBox="0 0 26 26" fill="none" xmlns="http://www.w3.org/2000/svg">
<path d="M23.8325 9.74988L20.9941 10.8332" stroke="black" stroke-linecap="round" stroke-linejoin="round"/>
<path d="M5.01518 10.8332L2.16602 9.74988" stroke="black" stroke-linecap="round" stroke-linejoin="round"/>
<path d="M19.7699 15.1665H17.0615" stroke="black" stroke-linecap="round" stroke-linejoin="round"/>
<path d="M8.93685 15.1665H6.22852" stroke="black" stroke-linecap="round" stroke-linejoin="round"/>
<path d="M20.9931 10.8333L20.0841 6.48692C19.8209 5.23242 18.7148 4.33325 17.4321 4.33325H8.6788C7.42105 4.33325 6.32797 5.19992 6.04197 6.42517L5.01172 10.8333" stroke="black" stroke-linecap="round" stroke-linejoin="round"/>
<path fill-rule="evenodd" clip-rule="evenodd" d="M3.52018 21.6666H5.95768C6.85468 21.6666 7.58268 20.9386 7.58268 20.0416V18.9583H18.416V20.0416C18.416 20.9386 19.144 21.6666 20.041 21.6666H22.4785C23.226 21.6666 23.8327 21.0599 23.8327 20.3124V14.0833C23.8327 12.2882 22.3778 10.8333 20.5827 10.8333H5.41602C3.62093 10.8333 2.16602 12.2882 2.16602 14.0833V20.3124C2.16602 21.0599 2.77268 21.6666 3.52018 21.6666Z" stroke="black" stroke-linecap="round" stroke-linejoin="round"/>
</svg>
