<svg width="20" height="20" viewBox="0 0 20 20" fill="none" xmlns="http://www.w3.org/2000/svg">
<path d="M13.3333 2.5V5.83333" stroke="black" stroke-linecap="round" stroke-linejoin="round"/>
<path d="M6.66667 2.5V5.83333" stroke="black" stroke-linecap="round" stroke-linejoin="round"/>
<path d="M2.5 8.33317H17.5" stroke="black" stroke-linecap="round" stroke-linejoin="round"/>
<path fill-rule="evenodd" clip-rule="evenodd" d="M15.8333 4.1665H4.16667C3.24583 4.1665 2.5 4.91234 2.5 5.83317V16.6665C2.5 17.5873 3.24583 18.3332 4.16667 18.3332H15.8333C16.7542 18.3332 17.5 17.5873 17.5 16.6665V5.83317C17.5 4.91234 16.7542 4.1665 15.8333 4.1665Z" stroke="black" stroke-linecap="round" stroke-linejoin="round"/>
<path d="M10.0108 11.4408C9.89583 11.4408 9.8025 11.5341 9.80333 11.6491C9.80333 11.7641 9.89666 11.8574 10.0117 11.8574C10.1267 11.8574 10.22 11.7641 10.22 11.6491C10.22 11.5341 10.1267 11.4408 10.0108 11.4408" stroke="black" stroke-linecap="round" stroke-linejoin="round"/>
<path d="M14.1775 11.4408C14.0625 11.4408 13.9692 11.5341 13.97 11.6491C13.97 11.7641 14.0633 11.8574 14.1783 11.8574C14.2933 11.8574 14.3867 11.7641 14.3867 11.6491C14.3867 11.5341 14.2933 11.4408 14.1775 11.4408" stroke="black" stroke-linecap="round" stroke-linejoin="round"/>
<path d="M5.84417 14.7743C5.72917 14.7743 5.63583 14.8676 5.63667 14.9826C5.63667 15.0976 5.73 15.1909 5.845 15.1909C5.96 15.1909 6.05333 15.0976 6.05333 14.9826C6.05333 14.8676 5.96 14.7743 5.84417 14.7743" stroke="black" stroke-linecap="round" stroke-linejoin="round"/>
<path d="M10.0108 14.7743C9.89583 14.7743 9.8025 14.8676 9.80333 14.9826C9.80333 15.0976 9.89666 15.1909 10.0117 15.1909C10.1267 15.1909 10.22 15.0976 10.22 14.9826C10.22 14.8676 10.1267 14.7743 10.0108 14.7743" stroke="black" stroke-linecap="round" stroke-linejoin="round"/>
</svg>
