<svg width="28" height="28" viewBox="0 0 28 28" fill="none" xmlns="http://www.w3.org/2000/svg">
<path d="M1.68291 19.9729L1.40497 19.5572C1.26621 19.65 1.18291 19.8059 1.18291 19.9729H1.68291ZM1.68291 24.1333L2.18252 24.1529C2.18278 24.1464 2.18291 24.1398 2.18291 24.1333H1.68291ZM2.73129 25.1955V24.6955L2.72629 24.6955L2.73129 25.1955ZM22.6506 25.1955L22.6751 24.6961C22.6669 24.6957 22.6588 24.6955 22.6506 24.6955V25.1955ZM23.699 24.1333H23.199C23.199 24.1417 23.1992 24.1501 23.1996 24.1585L23.699 24.1333ZM23.699 9.7931V9.2931C23.4228 9.2931 23.199 9.51696 23.199 9.7931H23.699ZM26.3199 9.7931V10.2931C26.504 10.2931 26.6733 10.1919 26.7604 10.0297C26.8475 9.86753 26.8385 9.67057 26.7368 9.51706L26.3199 9.7931ZM21.6896 2.80005L22.1065 2.52401C22.0147 2.38542 21.8601 2.30149 21.6939 2.30007C21.5277 2.29864 21.3716 2.3799 21.2775 2.51689L21.6896 2.80005ZM16.8845 9.7931L16.4724 9.50994C16.3672 9.66296 16.3555 9.86163 16.442 10.0259C16.5284 10.1902 16.6988 10.2931 16.8845 10.2931V9.7931ZM19.4181 9.7931H19.9181C19.9181 9.51696 19.6942 9.2931 19.4181 9.2931V9.7931ZM6.05117 17.0517L6.28424 16.6094C6.1219 16.5238 5.92576 16.5341 5.77323 16.6361L6.05117 17.0517ZM7.71104 14.8387L7.46346 15.2731C7.47735 15.281 7.49161 15.2883 7.5062 15.2948L7.71104 14.8387ZM12.254 14.8387L12.2082 14.3408C12.1541 14.3458 12.1012 14.3596 12.0516 14.3815L12.254 14.8387ZM11.5973 12.4823C11.5181 12.2178 11.2394 12.0675 10.9749 12.1467C10.7103 12.2259 10.5601 12.5046 10.6393 12.7691L11.5973 12.4823ZM1.18291 19.9729V24.1333H2.18291V19.9729H1.18291ZM1.18329 24.1137C1.1664 24.5438 1.20001 25.0146 1.52566 25.3395C1.84649 25.6596 2.31489 25.6997 2.7363 25.6955L2.72629 24.6955C2.53263 24.6975 2.40553 24.6852 2.32179 24.6656C2.28205 24.6562 2.25863 24.6467 2.24603 24.6403C2.23989 24.6372 2.2363 24.6349 2.2345 24.6336C2.23277 24.6324 2.2321 24.6317 2.23197 24.6316C2.23184 24.6314 2.23138 24.631 2.23048 24.6297C2.22955 24.6284 2.2276 24.6255 2.22496 24.6202C2.21955 24.6094 2.21081 24.588 2.20247 24.5503C2.18482 24.4704 2.17494 24.346 2.18252 24.1529L1.18329 24.1137ZM22.6261 25.6949C23.1034 25.7183 23.6012 25.6756 23.9188 25.3132C24.0757 25.1342 24.1461 24.923 24.1782 24.7256C24.2096 24.532 24.2091 24.3201 24.1983 24.108L23.1996 24.1585C23.2092 24.3491 23.2054 24.4771 23.1911 24.5653C23.1774 24.6498 23.1595 24.6624 23.1668 24.6541C23.1773 24.6421 23.1742 24.6585 23.1016 24.6757C23.0214 24.6947 22.8889 24.7066 22.6751 24.6961L22.6261 25.6949ZM24.199 24.1333V9.7931H23.199V24.1333H24.199ZM23.699 10.2931H26.3199V9.2931H23.699V10.2931ZM26.7368 9.51706L22.1065 2.52401L21.2727 3.07609L25.903 10.0691L26.7368 9.51706ZM21.2775 2.51689L16.4724 9.50994L17.2966 10.0763L22.1017 3.08321L21.2775 2.51689ZM16.8845 10.2931H19.4181V9.2931H16.8845V10.2931ZM19.4181 25.6955H22.6506V24.6955H19.4181V25.6955ZM1.96085 20.3885L6.32911 17.4673L5.77323 16.6361L1.40497 19.5572L1.96085 20.3885ZM2.73129 25.6955H6.05117V24.6955H2.73129V25.6955ZM5.55117 17.0517V25.1955H6.55117V17.0517H5.55117ZM5.81811 17.4941L10.1864 19.7956L10.6525 18.9109L6.28424 16.6094L5.81811 17.4941ZM6.05117 25.6955H10.4194V24.6955H6.05117V25.6955ZM9.91944 19.3532V25.1955H10.9194V19.3532H9.91944ZM18.9181 9.7931V12.0061H19.9181V9.7931H18.9181ZM18.9181 12.0061V25.1955H19.9181V12.0061H18.9181ZM10.7357 19.7405L15.235 16.067L14.6025 15.2924L10.1032 18.9659L10.7357 19.7405ZM15.235 16.067L19.7343 12.3934L19.1019 11.6188L14.6025 15.2924L15.235 16.067ZM10.4194 25.6955H14.9188V24.6955H10.4194V25.6955ZM14.9188 25.6955H19.4181V24.6955H14.9188V25.6955ZM14.4188 15.6797V25.1955H15.4188V15.6797H14.4188ZM10.0699 5.69008C11.0904 5.69008 11.9288 6.53007 11.9288 7.58011H12.9288C12.9288 5.9902 11.655 4.69008 10.0699 4.69008V5.69008ZM11.9288 7.58011C11.9288 8.63015 11.0904 9.47014 10.0699 9.47014V10.4701C11.655 10.4701 12.9288 9.17002 12.9288 7.58011H11.9288ZM10.0699 9.47014C9.04945 9.47014 8.21104 8.63015 8.21104 7.58011H7.21104C7.21104 9.17002 8.48483 10.4701 10.0699 10.4701V9.47014ZM8.21104 7.58011C8.21104 6.53007 9.04945 5.69008 10.0699 5.69008V4.69008C8.48483 4.69008 7.21104 5.9902 7.21104 7.58011H8.21104ZM7.71104 14.8387C7.95862 14.4043 7.9588 14.4044 7.95898 14.4045C7.95903 14.4046 7.95921 14.4047 7.95931 14.4047C7.95952 14.4048 7.95971 14.4049 7.95988 14.405C7.96022 14.4052 7.96047 14.4054 7.96065 14.4055C7.961 14.4057 7.96104 14.4057 7.96076 14.4055C7.96021 14.4052 7.95842 14.4042 7.95549 14.4024C7.94963 14.3988 7.9392 14.3923 7.9249 14.383C7.89622 14.3642 7.85234 14.3341 7.79852 14.2928C7.69017 14.2096 7.5456 14.084 7.40403 13.9174C7.12188 13.5854 6.8651 13.1091 6.89981 12.4761L5.90131 12.4213C5.84865 13.3817 6.24711 14.1003 6.64205 14.565C6.83902 14.7968 7.03845 14.9699 7.18947 15.0859C7.26532 15.1442 7.32997 15.1887 7.3774 15.2198C7.40114 15.2353 7.42067 15.2475 7.43523 15.2564C7.44252 15.2608 7.44858 15.2644 7.45331 15.2672C7.45567 15.2686 7.45771 15.2698 7.45941 15.2708C7.46025 15.2713 7.46102 15.2717 7.46169 15.2721C7.46203 15.2723 7.46235 15.2725 7.46264 15.2727C7.46279 15.2727 7.463 15.2729 7.46307 15.2729C7.46327 15.273 7.46346 15.2731 7.71104 14.8387ZM6.89981 12.4761C6.93468 11.8402 7.22092 11.3634 7.72548 11.0285C8.2492 10.6808 9.03663 10.4701 10.0699 10.4701V9.47014C8.91905 9.47014 7.91549 9.70206 7.17241 10.1953C6.41017 10.7013 5.95381 11.4639 5.90131 12.4213L6.89981 12.4761ZM10.0699 10.4701C11.1693 10.4701 11.9962 10.5429 12.5661 10.827C12.8358 10.9615 13.0424 11.1415 13.1943 11.3892C13.349 11.6415 13.4637 11.9915 13.5029 12.488L14.4998 12.4093C14.4516 11.7994 14.3043 11.2864 14.0467 10.8664C13.7864 10.4419 13.4305 10.1406 13.0122 9.93207C12.2061 9.53016 11.1546 9.47014 10.0699 9.47014V10.4701ZM13.5029 12.488C13.5762 13.416 13.2216 13.8435 12.9066 14.0639C12.7342 14.1845 12.5535 14.2556 12.4131 14.2961C12.3438 14.316 12.287 14.3278 12.2499 14.3343C12.2314 14.3376 12.218 14.3395 12.2107 14.3404C12.207 14.3409 12.2049 14.3411 12.2045 14.3412C12.2042 14.3412 12.2044 14.3412 12.205 14.3411C12.2053 14.3411 12.2057 14.3411 12.2063 14.341C12.2065 14.341 12.2068 14.341 12.2071 14.3409C12.2073 14.3409 12.2076 14.3409 12.2076 14.3409C12.2079 14.3409 12.2082 14.3408 12.254 14.8387C12.2999 15.3366 12.3002 15.3366 12.3005 15.3366C12.3006 15.3365 12.3009 15.3365 12.3011 15.3365C12.3015 15.3365 12.302 15.3364 12.3025 15.3364C12.3035 15.3363 12.3046 15.3362 12.3058 15.336C12.3083 15.3358 12.3112 15.3355 12.3146 15.3351C12.3214 15.3343 12.3301 15.3333 12.3405 15.332C12.3612 15.3292 12.389 15.3252 12.4227 15.3193C12.49 15.3075 12.582 15.2881 12.6902 15.2569C12.9046 15.1951 13.1936 15.0836 13.4798 14.8833C14.0821 14.4619 14.6013 13.6944 14.4998 12.4093L13.5029 12.488ZM8.66105 14.6827C8.43137 14.6032 8.18532 14.5036 7.91588 14.3826L7.5062 15.2948C7.79555 15.4248 8.06963 15.5361 8.33361 15.6276L8.66105 14.6827ZM8.97927 15.2884L9.67819 12.7589L8.71431 12.4926L8.01539 15.022L8.97927 15.2884ZM12.0516 14.3815C11.9116 14.4435 11.7778 14.5 11.6492 14.5511L12.0186 15.4804C12.1608 15.4239 12.3065 15.3623 12.4565 15.2959L12.0516 14.3815ZM11.6492 14.5511C11.0496 14.7895 10.5705 14.9084 10.1172 14.9289C9.66732 14.9492 9.21257 14.8739 8.66105 14.6827L8.33361 15.6276C8.97424 15.8496 9.55725 15.9552 10.1623 15.9279C10.7641 15.9007 11.3571 15.7434 12.0186 15.4804L11.6492 14.5511ZM12.3129 14.8723L11.5973 12.4823L10.6393 12.7691L11.3549 15.1592L12.3129 14.8723Z" fill="black"/>
</svg>
