<svg width="20" height="20" viewBox="0 0 20 20" fill="none" xmlns="http://www.w3.org/2000/svg">
<path d="M16.6667 8.33333V4.16667C16.6667 3.24619 15.9205 2.5 15 2.5H4.16667C3.24619 2.5 2.5 3.24619 2.5 4.16667V15.8333C2.5 16.7538 3.24619 17.5 4.16667 17.5H8.33333" stroke="black" stroke-linecap="round" stroke-linejoin="round"/>
<path d="M5.83334 6.66667H13.3333" stroke="black" stroke-linecap="round" stroke-linejoin="round"/>
<path d="M5.83334 10.0002H10" stroke="black" stroke-linecap="round" stroke-linejoin="round"/>
<path d="M5.83334 13.3332H8.33334" stroke="black" stroke-linecap="round" stroke-linejoin="round"/>
<path fill-rule="evenodd" clip-rule="evenodd" d="M14.1245 11.2981C14.2648 11.0136 14.5545 10.8335 14.8718 10.8335C15.189 10.8335 15.4787 11.0136 15.6191 11.2981L16.0431 12.1576C16.1644 12.4036 16.3991 12.5742 16.6706 12.6136L17.619 12.7514C17.9328 12.7971 18.1936 13.0169 18.2916 13.3185C18.3896 13.6201 18.308 13.9512 18.081 14.1726L17.3944 14.8423C17.1981 15.0337 17.1086 15.3095 17.155 15.5797L17.317 16.5241C17.3706 16.8367 17.2421 17.1526 16.9855 17.3391C16.7289 17.5255 16.3887 17.5502 16.1079 17.4026L15.2594 16.9567C15.0167 16.8291 14.7268 16.8291 14.4841 16.9567L13.6356 17.4026C13.3548 17.5501 13.0147 17.5255 12.7581 17.339C12.5016 17.1526 12.3731 16.8367 12.4267 16.5241L12.5887 15.5797C12.635 15.3095 12.5455 15.0337 12.3492 14.8423L11.6626 14.1726C11.4356 13.9512 11.354 13.6201 11.452 13.3185C11.5501 13.0169 11.8108 12.7971 12.1246 12.7514L13.073 12.6136C13.3445 12.5742 13.5792 12.4036 13.7005 12.1576L14.1245 11.2981Z" stroke="black" stroke-linecap="round" stroke-linejoin="round"/>
</svg>
