<svg width="20" height="21" viewBox="0 0 20 21" fill="none" xmlns="http://www.w3.org/2000/svg">
<path d="M9.99935 2.16666C5.39698 2.16666 1.66602 5.89762 1.66602 10.5C1.66602 15.1024 5.39698 18.8333 9.99935 18.8333C14.6017 18.8333 18.3327 15.1024 18.3327 10.5C18.3327 5.89762 14.6017 2.16666 9.99935 2.16666Z" stroke="black" stroke-linecap="round" stroke-linejoin="round"/>
<path d="M3.55859 15.7882C3.55859 15.7882 5.41612 13.4168 9.99945 13.4168C14.5828 13.4168 16.4403 15.7882 16.4403 15.7882" stroke="black" stroke-linecap="round" stroke-linejoin="round"/>
<path d="M10 10.5002C11.3807 10.5002 12.5 9.38086 12.5 8.00015C12.5 6.61944 11.3807 5.50015 10 5.50015C8.61929 5.50015 7.5 6.61944 7.5 8.00015C7.5 9.38086 8.61929 10.5002 10 10.5002Z" stroke="black" stroke-linecap="round" stroke-linejoin="round"/>
</svg>
