<svg width="20" height="20" viewBox="0 0 20 20" fill="none" xmlns="http://www.w3.org/2000/svg">
<path d="M15.4156 5.79339L13.4449 3.16581C12.9142 2.45816 11.9231 2.28839 11.1871 2.77906L6.60716 5.83236" stroke="black" stroke-linecap="round" stroke-linejoin="round"/>
<path fill-rule="evenodd" clip-rule="evenodd" d="M15.4156 9.58203H17.499C17.9592 9.58203 18.3323 9.95513 18.3323 10.4154V12.9154C18.3323 13.3756 17.9592 13.7487 17.499 13.7487H15.4156C14.265 13.7487 13.3323 12.816 13.3323 11.6654V11.6654C13.3323 10.5148 14.265 9.58203 15.4156 9.58203V9.58203Z" stroke="black" stroke-linecap="round" stroke-linejoin="round"/>
<path d="M17.499 9.58203V7.91536C17.499 6.76477 16.5662 5.83203 15.4156 5.83203H4.5823C3.4317 5.83203 2.49896 6.76477 2.49896 7.91536V15.4154C2.49896 16.566 3.4317 17.4987 4.5823 17.4987H15.4156C16.5662 17.4987 17.499 16.566 17.499 15.4154V13.7487" stroke="black" stroke-linecap="round" stroke-linejoin="round"/>
</svg>
