<svg width="60" height="60" viewBox="0 0 60 60" fill="none" xmlns="http://www.w3.org/2000/svg">
<g opacity="0.2">
<path d="M16.2106 26.7453H16.2106C18.2403 26.7452 20.2286 27.3197 21.9455 28.4024C23.6624 29.485 25.0376 31.0317 25.9122 32.8633C26.7868 34.695 27.1249 36.7368 26.8875 38.7526C26.6502 40.7684 25.8469 42.6758 24.5708 44.2542C23.2946 45.8325 21.5977 47.0173 19.6763 47.6716C17.7549 48.3258 15.6875 48.4227 13.7134 47.9511C11.7392 47.4794 9.93887 46.4585 8.52068 45.0064C7.10249 43.5543 6.12438 41.7304 5.69949 39.7456L5.59315 39.2489L5.56091 39.2563C5.51356 38.9266 5.45636 38.4983 5.42422 38.0611L5.42436 38.0611L5.42322 38.0494C5.32087 36.9966 5.27105 35.5293 5.35489 33.7564C5.45594 31.9916 5.71668 29.9337 6.29751 27.771C6.6045 26.6909 6.97876 25.5834 7.44143 24.5034C7.49588 24.3885 7.54973 24.2742 7.6033 24.1605C8.0729 23.1637 8.52012 22.2145 9.14669 21.342L9.15967 21.3239L9.17099 21.3047C9.77512 20.2827 10.5596 19.3749 11.3807 18.4842L11.3938 18.47L11.4057 18.4549C11.7506 18.0174 12.1633 17.6413 12.6094 17.2726C12.7627 17.1459 12.9254 17.0159 13.0908 16.8837C13.3859 16.6479 13.6897 16.4052 13.9641 16.162C14.3689 15.8251 14.8065 15.5463 15.2607 15.2796C15.4105 15.1916 15.566 15.1027 15.7233 15.0129C16.0302 14.8376 16.3437 14.6586 16.6332 14.4751L16.6333 14.4753L16.6429 14.4688C17.0291 14.2114 17.4369 14.0238 17.8598 13.8535C18.0033 13.7957 18.156 13.7373 18.3114 13.6778C18.5867 13.5725 18.8708 13.4638 19.1279 13.3495C19.3426 13.266 19.5437 13.1842 19.7342 13.1067C20.3002 12.8764 20.7726 12.6841 21.2313 12.5995L21.2473 12.5966L21.2631 12.5926C21.6461 12.4957 21.9909 12.4109 22.3081 12.3329C22.5471 12.2741 22.7704 12.2191 22.9826 12.1658C22.9834 12.1656 22.9842 12.1654 22.9849 12.1652L23.9909 11.9226L24.9785 15.8689L24.1926 16.1955L24.1912 16.1961L22.8622 16.7435C22.5484 16.8475 22.2571 17.0013 21.9861 17.1594C21.8612 17.2323 21.7354 17.3092 21.6126 17.3842C21.5992 17.3925 21.5858 17.4006 21.5725 17.4088C21.4352 17.4927 21.3002 17.5748 21.1619 17.654L21.1473 17.6624L21.1332 17.6718C20.9596 17.7876 20.781 17.8859 20.5791 17.9971C20.4796 18.0519 20.3744 18.1098 20.2614 18.1744C19.9413 18.3575 19.5917 18.5782 19.2805 18.8834C19.0931 19.0564 18.8917 19.2133 18.6691 19.3866C18.5937 19.4454 18.5158 19.5061 18.4352 19.5699C18.1273 19.8137 17.7967 20.0918 17.5109 20.4358L17.5051 20.4428L17.4996 20.45C17.339 20.6583 17.1634 20.8439 16.9682 21.0502C16.8936 21.129 16.8162 21.2108 16.7356 21.2981C16.4639 21.5925 16.1763 21.9304 15.9607 22.3453C15.9511 22.3599 15.9415 22.3745 15.9319 22.3891C15.5135 23.0245 15.0621 23.7101 14.7638 24.5018C14.4603 25.0759 14.2736 25.7029 14.1063 26.2653L13.8832 27.0153L14.6576 26.9026C14.6955 26.8971 14.7331 26.8916 14.7705 26.8861C15.2709 26.8129 15.7328 26.7453 16.2106 26.7453ZM41.6063 26.2653L41.3832 27.0153L42.1576 26.9026C42.1955 26.8971 42.2331 26.8916 42.2705 26.8861C42.7709 26.8129 43.2328 26.7453 43.7106 26.7453C45.7403 26.7452 47.7286 27.3197 49.4455 28.4024C51.1623 29.485 52.5376 31.0317 53.4122 32.8633C54.2868 34.695 54.6249 36.7368 54.3875 38.7526C54.1502 40.7684 53.3469 42.6758 52.0708 44.2542C50.7946 45.8325 49.0977 47.0173 47.1763 47.6716C45.2549 48.3258 43.1875 48.4227 41.2134 47.9511C39.2392 47.4794 37.4389 46.4585 36.0207 45.0064C34.6025 43.5543 33.6244 41.7304 33.1995 39.7456L33.0931 39.2489L33.0609 39.2563C33.0136 38.9266 32.9564 38.4983 32.9242 38.0611L32.9244 38.0611L32.9232 38.0494C32.8209 36.9966 32.771 35.5292 32.8549 33.7563C32.956 31.9915 33.2167 29.9337 33.7975 27.771C34.1045 26.6909 34.4788 25.5834 34.9414 24.5034C34.9959 24.3885 35.0497 24.2742 35.1033 24.1605C35.5729 23.1637 36.0201 22.2145 36.6467 21.342L36.6597 21.3239L36.671 21.3047C37.2751 20.2827 38.0596 19.3749 38.8807 18.4842L38.8935 18.4703L38.9053 18.4554C39.2503 18.019 39.663 17.6435 40.1093 17.2749C40.2618 17.1489 40.4236 17.0197 40.5881 16.8883C40.884 16.652 41.1887 16.4086 41.464 16.1645C41.8688 15.8276 42.3065 15.5489 42.7607 15.2821C42.9105 15.1941 43.066 15.1052 43.2233 15.0154C43.5303 14.8401 43.8437 14.6611 44.1332 14.4776L44.1333 14.4778L44.1438 14.4708C44.5294 14.2125 44.9372 14.0251 45.3606 13.8548C45.5002 13.7987 45.6481 13.742 45.7986 13.6844C46.0782 13.5773 46.3669 13.4667 46.6288 13.3491C46.8432 13.2658 47.044 13.1841 47.2342 13.1067C47.8002 12.8764 48.2726 12.6841 48.7313 12.5995L48.7473 12.5966L48.7631 12.5926C49.1461 12.4957 49.4909 12.4109 49.8082 12.3329C50.0471 12.2741 50.2704 12.2191 50.4826 12.1658C50.4834 12.1656 50.4841 12.1654 50.4849 12.1652L51.4909 11.9226L52.4785 15.8689L51.6926 16.1955L51.6912 16.1961L50.3622 16.7435C50.0484 16.8475 49.7571 17.0013 49.4861 17.1594C49.3611 17.2323 49.2354 17.3092 49.1125 17.3843L49.0725 17.4088C48.9352 17.4927 48.8002 17.5748 48.6619 17.654L48.6473 17.6624L48.6332 17.6718C48.4595 17.7876 48.2809 17.8859 48.0791 17.9971C47.9796 18.0519 47.8744 18.1098 47.7614 18.1744C47.4413 18.3575 47.0917 18.5782 46.7805 18.8834C46.5931 19.0564 46.3917 19.2133 46.1691 19.3866C46.0937 19.4454 46.0158 19.5061 45.9352 19.5699C45.6273 19.8137 45.2967 20.0918 45.0109 20.4358L45.0051 20.4428L44.9996 20.45C44.839 20.6583 44.6634 20.8439 44.4682 21.0502C44.3936 21.129 44.3162 21.2108 44.2356 21.2981C43.9639 21.5925 43.6763 21.9304 43.4607 22.3453C43.4511 22.3599 43.4415 22.3745 43.4318 22.3891C43.0135 23.0245 42.5621 23.7101 42.2638 24.5018C41.9603 25.0759 41.7736 25.7029 41.6063 26.2653Z" stroke="#434343"/>
</g>
</svg>
