<svg width="18" height="19" viewBox="0 0 18 19" fill="none" xmlns="http://www.w3.org/2000/svg">
<path d="M3.90234 13.25L4.62909 8.16287C4.73466 7.4239 5.36753 6.87501 6.114 6.875H11.7085C12.455 6.875 13.0879 7.4239 13.1935 8.16287L13.9202 13.25" stroke="black" stroke-linecap="round" stroke-linejoin="round"/>
<path d="M7.41162 9.5H10.4116" stroke="black" stroke-linecap="round" stroke-linejoin="round"/>
<path d="M7.41162 11.75H10.4116" stroke="black" stroke-linecap="round" stroke-linejoin="round"/>
<path fill-rule="evenodd" clip-rule="evenodd" d="M13.2344 17H4.58851C4.02035 17 3.50095 16.679 3.24687 16.1708L2.32918 14.3354C2.21293 14.1029 2.22536 13.8268 2.36201 13.6057C2.49867 13.3846 2.74007 13.25 3 13.25H4.32289C4.60698 13.25 4.86669 13.4105 4.99373 13.6646L5.53645 14.75H12.2865L12.8292 13.6646C12.9562 13.4105 13.2159 13.25 13.5 13.25H14.8229C15.0828 13.25 15.3242 13.3846 15.4609 13.6057C15.5975 13.8268 15.6099 14.1029 15.4937 14.3354L14.576 16.1708C14.3219 16.679 13.8025 17 13.2344 17Z" stroke="black" stroke-linecap="round" stroke-linejoin="round"/>
<path d="M7.03662 5V6.875" stroke="black" stroke-linecap="round" stroke-linejoin="round"/>
<path d="M10.7866 5V6.875" stroke="black" stroke-linecap="round" stroke-linejoin="round"/>
<path fill-rule="evenodd" clip-rule="evenodd" d="M11.024 5H6.79884C6.47739 5 6.17554 4.84548 5.98759 4.5847C5.79964 4.32393 5.7485 3.9887 5.85016 3.68375L6.1835 2.68378C6.31961 2.27543 6.70175 2 7.13218 2H10.6907C11.1211 2 11.5032 2.27543 11.6393 2.68378L11.9727 3.68375C12.0743 3.9887 12.0232 4.32393 11.8352 4.5847C11.6473 4.84548 11.3454 5 11.024 5V5Z" stroke="black" stroke-linecap="round" stroke-linejoin="round"/>
</svg>
