<svg width="18" height="19" viewBox="0 0 18 19" fill="none" xmlns="http://www.w3.org/2000/svg">
<path d="M15.1572 14.6451L16.2297 16.2501" stroke="black" stroke-linecap="round" stroke-linejoin="round"/>
<path d="M3 5.75V13.25" stroke="black" stroke-linecap="round" stroke-linejoin="round"/>
<path d="M16.0607 3.18934C16.6464 3.77513 16.6464 4.72488 16.0607 5.31066C15.4749 5.89645 14.5251 5.89645 13.9393 5.31066C13.3536 4.72488 13.3536 3.77513 13.9393 3.18934C14.5251 2.60355 15.4749 2.60355 16.0607 3.18934" stroke="black" stroke-linecap="round" stroke-linejoin="round"/>
<path d="M15 5.75V8C15 8.82875 14.3288 9.5 13.5 9.5H3" stroke="black" stroke-linecap="round" stroke-linejoin="round"/>
<path d="M10.0607 3.18934C10.6464 3.77513 10.6464 4.72488 10.0607 5.31066C9.47488 5.89645 8.52513 5.89645 7.93934 5.31066C7.35355 4.72488 7.35355 3.77513 7.93934 3.18934C8.52513 2.60355 9.47488 2.60355 10.0607 3.18934" stroke="black" stroke-linecap="round" stroke-linejoin="round"/>
<path d="M4.06066 3.18934C4.64645 3.77513 4.64645 4.72488 4.06066 5.31066C3.47488 5.89645 2.52513 5.89645 1.93934 5.31066C1.35355 4.72488 1.35355 3.77513 1.93934 3.18934C2.52513 2.60355 3.47488 2.60355 4.06066 3.18934" stroke="black" stroke-linecap="round" stroke-linejoin="round"/>
<path d="M10.0607 13.6893C10.6464 14.2751 10.6464 15.2249 10.0607 15.8107C9.47488 16.3964 8.52513 16.3964 7.93934 15.8107C7.35355 15.2249 7.35355 14.2751 7.93934 13.6893C8.52513 13.1036 9.47488 13.1036 10.0607 13.6893" stroke="black" stroke-linecap="round" stroke-linejoin="round"/>
<path d="M4.06066 13.6893C4.64645 14.2751 4.64645 15.2249 4.06066 15.8107C3.47488 16.3964 2.52513 16.3964 1.93934 15.8107C1.35355 15.2249 1.35355 14.2751 1.93934 13.6893C2.52513 13.1036 3.47488 13.1036 4.06066 13.6893" stroke="black" stroke-linecap="round" stroke-linejoin="round"/>
<path d="M9 5.75V13.25" stroke="black" stroke-linecap="round" stroke-linejoin="round"/>
<path d="M13.5537 14.6442H15.158C15.7497 14.6442 16.2305 14.1635 16.2305 13.5718C16.2305 12.98 15.7497 12.5 15.158 12.5H13.5537V12.503V16.25" stroke="black" stroke-linecap="round" stroke-linejoin="round"/>
</svg>
