<svg width="18" height="19" viewBox="0 0 18 19" fill="none" xmlns="http://www.w3.org/2000/svg">
<path fill-rule="evenodd" clip-rule="evenodd" d="M3.75 6.5V15.5C3.75 16.3284 4.42157 17 5.25 17H12.75C13.5784 17 14.25 16.3284 14.25 15.5V8.75C14.25 8.26317 14.0921 7.78947 13.8 7.4L12.675 5.9C12.2501 5.33344 11.5832 5 10.875 5H5.25C4.42157 5 3.75 5.67157 3.75 6.5Z" stroke="black" stroke-linecap="round" stroke-linejoin="round"/>
<path fill-rule="evenodd" clip-rule="evenodd" d="M6 2.75H8.25C8.66421 2.75 9 3.08579 9 3.5V5H5.25V3.5C5.25 3.08579 5.58579 2.75 6 2.75Z" stroke="black" stroke-linecap="round" stroke-linejoin="round"/>
<path fill-rule="evenodd" clip-rule="evenodd" d="M7.42511 11.2033V11.2033C6.89996 10.6002 6.89996 9.70224 7.42511 9.09919L8.2263 8.18168C8.32664 8.06627 8.47207 8 8.625 8C8.77793 8 8.92336 8.06627 9.0237 8.18168L9.82489 9.09918C10.35 9.70223 10.35 10.6002 9.82489 11.2032V11.2032C9.52291 11.5506 9.08525 11.75 8.625 11.75C8.16476 11.75 7.72709 11.5506 7.42511 11.2033Z" stroke="black" stroke-linecap="round" stroke-linejoin="round"/>
<path d="M10.5 14H6.75" stroke="black" stroke-linecap="round" stroke-linejoin="round"/>
</svg>
