<svg width="20" height="20" viewBox="0 0 20 20" fill="none" xmlns="http://www.w3.org/2000/svg">
<path d="M18.3333 7.5L16.15 8.33333" stroke="black" stroke-linecap="round" stroke-linejoin="round"/>
<path d="M3.85833 8.33333L1.66666 7.5" stroke="black" stroke-linecap="round" stroke-linejoin="round"/>
<path d="M15.2083 11.6667H13.125" stroke="black" stroke-linecap="round" stroke-linejoin="round"/>
<path d="M6.875 11.6667H4.79166" stroke="black" stroke-linecap="round" stroke-linejoin="round"/>
<path d="M16.1492 8.3335L15.45 4.99016C15.2475 4.02516 14.3967 3.3335 13.41 3.3335H6.67667C5.70917 3.3335 4.86833 4.00016 4.64833 4.94266L3.85583 8.3335" stroke="black" stroke-linecap="round" stroke-linejoin="round"/>
<path fill-rule="evenodd" clip-rule="evenodd" d="M2.70833 16.6668H4.58333C5.27333 16.6668 5.83333 16.1068 5.83333 15.4168V14.5835H14.1667V15.4168C14.1667 16.1068 14.7267 16.6668 15.4167 16.6668H17.2917C17.8667 16.6668 18.3333 16.2002 18.3333 15.6252V10.8335C18.3333 9.45266 17.2142 8.3335 15.8333 8.3335H4.16666C2.78583 8.3335 1.66666 9.45266 1.66666 10.8335V15.6252C1.66666 16.2002 2.13333 16.6668 2.70833 16.6668Z" stroke="black" stroke-linecap="round" stroke-linejoin="round"/>
</svg>
