<svg width="22" height="22" viewBox="0 0 22 22" fill="none" xmlns="http://www.w3.org/2000/svg">
<path fill-rule="evenodd" clip-rule="evenodd" d="M4.58496 7.33333V18.3333C4.58496 19.3459 5.40577 20.1667 6.41829 20.1667H15.585C16.5975 20.1667 17.4183 19.3459 17.4183 18.3333V10.0833C17.4183 9.48831 17.2253 8.90935 16.8683 8.43333L15.4933 6.6C14.9739 5.90753 14.1589 5.5 13.2933 5.5H6.41829C5.40577 5.5 4.58496 6.32081 4.58496 7.33333Z" stroke="white" stroke-linecap="round" stroke-linejoin="round"/>
<path fill-rule="evenodd" clip-rule="evenodd" d="M7.33464 2.75H10.0846C10.5909 2.75 11.0013 3.16041 11.0013 3.66667V5.5H6.41797V3.66667C6.41797 3.16041 6.82837 2.75 7.33464 2.75Z" stroke="white" stroke-linecap="round" stroke-linejoin="round"/>
<path fill-rule="evenodd" clip-rule="evenodd" d="M9.07709 13.0818V13.0818C8.43524 12.3447 8.43524 11.2472 9.07709 10.5101L10.0563 9.38874C10.179 9.24768 10.3567 9.16669 10.5436 9.16669C10.7305 9.16669 10.9083 9.24768 11.0309 9.38874L12.0101 10.5101C12.652 11.2472 12.652 12.3447 12.0101 13.0818V13.0818C11.6411 13.5063 11.1061 13.75 10.5436 13.75C9.9811 13.75 9.44618 13.5063 9.07709 13.0818Z" stroke="white" stroke-linecap="round" stroke-linejoin="round"/>
<path d="M12.8353 16.5H8.25195" stroke="white" stroke-linecap="round" stroke-linejoin="round"/>
</svg>
