<svg width="22" height="22" viewBox="0 0 22 22" fill="none" xmlns="http://www.w3.org/2000/svg">
<path d="M18.5273 17.2884L19.8382 19.2501" stroke="white" stroke-linecap="round" stroke-linejoin="round"/>
<path d="M3.66829 6.41669V15.5834" stroke="white" stroke-linecap="round" stroke-linejoin="round"/>
<path d="M19.6317 3.28697C20.3476 4.00293 20.3476 5.16374 19.6317 5.8797C18.9157 6.59566 17.7549 6.59566 17.0389 5.8797C16.323 5.16374 16.323 4.00293 17.0389 3.28697C17.7549 2.57101 18.9157 2.57101 19.6317 3.28697" stroke="white" stroke-linecap="round" stroke-linejoin="round"/>
<path d="M18.3346 6.41669V9.16669C18.3346 10.1796 17.5142 11 16.5013 11H3.66797" stroke="white" stroke-linecap="round" stroke-linejoin="round"/>
<path d="M12.2977 3.28697C13.0136 4.00293 13.0136 5.16374 12.2977 5.8797C11.5817 6.59566 10.4209 6.59566 9.70494 5.8797C8.98898 5.16374 8.98898 4.00293 9.70494 3.28697C10.4209 2.57101 11.5817 2.57101 12.2977 3.28697" stroke="white" stroke-linecap="round" stroke-linejoin="round"/>
<path d="M4.96466 3.28697C5.68062 4.00293 5.68062 5.16374 4.96466 5.8797C4.2487 6.59566 3.08789 6.59566 2.37193 5.8797C1.65597 5.16374 1.65597 4.00293 2.37193 3.28697C3.08789 2.57101 4.2487 2.57101 4.96466 3.28697" stroke="white" stroke-linecap="round" stroke-linejoin="round"/>
<path d="M12.2977 16.1203C13.0136 16.8362 13.0136 17.997 12.2977 18.713C11.5817 19.429 10.4209 19.429 9.70494 18.713C8.98898 17.997 8.98898 16.8362 9.70494 16.1203C10.4209 15.4043 11.5817 15.4043 12.2977 16.1203" stroke="white" stroke-linecap="round" stroke-linejoin="round"/>
<path d="M4.96466 16.1203C5.68062 16.8362 5.68062 17.997 4.96466 18.713C4.2487 19.429 3.08789 19.429 2.37193 18.713C1.65597 17.997 1.65597 16.8362 2.37193 16.1203C3.08789 15.4043 4.2487 15.4043 4.96466 16.1203" stroke="white" stroke-linecap="round" stroke-linejoin="round"/>
<path d="M11.0013 6.41669V15.5834" stroke="white" stroke-linecap="round" stroke-linejoin="round"/>
<path d="M16.5674 17.2874H18.5281C19.2514 17.2874 19.839 16.6999 19.839 15.9766C19.839 15.2534 19.2514 14.6667 18.5281 14.6667H16.5674V14.6704V19.25" stroke="white" stroke-linecap="round" stroke-linejoin="round"/>
</svg>
