<svg width="22" height="22" viewBox="0 0 22 22" fill="none" xmlns="http://www.w3.org/2000/svg">
<path fill-rule="evenodd" clip-rule="evenodd" d="M15.582 19.25H6.41536C5.40245 19.25 4.58203 18.4295 4.58203 17.4166V8.24996C4.58203 7.23704 5.40245 6.41663 6.41536 6.41663H15.582C16.5949 6.41663 17.4154 7.23704 17.4154 8.24996V17.4166C17.4154 18.4295 16.5949 19.25 15.582 19.25Z" stroke="white" stroke-linecap="round" stroke-linejoin="round"/>
<path d="M9.16602 9.16659H12.8327" stroke="white" stroke-linecap="round" stroke-linejoin="round"/>
<path d="M7.33138 19.2499V20.1665" stroke="white" stroke-linecap="round" stroke-linejoin="round"/>
<path d="M14.6654 19.2499V20.1665" stroke="white" stroke-linecap="round" stroke-linejoin="round"/>
<path d="M14.6654 6.41659V3.66659C14.6654 2.65367 13.8449 1.83325 12.832 1.83325H9.16536C8.15245 1.83325 7.33203 2.65367 7.33203 3.66659V6.41659" stroke="white" stroke-linecap="round" stroke-linejoin="round"/>
<path d="M10.9993 11.9166V16.5" stroke="white" stroke-linecap="round" stroke-linejoin="round"/>
<path d="M7.33138 11.9166V16.5" stroke="white" stroke-linecap="round" stroke-linejoin="round"/>
<path d="M14.6654 11.9166V16.5" stroke="white" stroke-linecap="round" stroke-linejoin="round"/>
</svg>
