<svg width="22" height="22" viewBox="0 0 22 22" fill="none" xmlns="http://www.w3.org/2000/svg">
<path d="M4.76953 15.5834L5.65778 9.36575C5.78681 8.46257 6.56032 7.7917 7.47267 7.79169H14.3104C15.2228 7.79169 15.9963 8.46256 16.1253 9.36575L17.0136 15.5834" stroke="white" stroke-linecap="round" stroke-linejoin="round"/>
<path d="M9.05762 11H12.7243" stroke="white" stroke-linecap="round" stroke-linejoin="round"/>
<path d="M9.05762 13.75H12.7243" stroke="white" stroke-linecap="round" stroke-linejoin="round"/>
<path fill-rule="evenodd" clip-rule="evenodd" d="M16.1754 20.1666H5.60818C4.91376 20.1666 4.27894 19.7743 3.96839 19.1532L2.84677 16.9099C2.7047 16.6258 2.71988 16.2883 2.88691 16.0181C3.05393 15.7478 3.34897 15.5833 3.66666 15.5833H5.28353C5.63075 15.5833 5.94817 15.7795 6.10345 16.09L6.76678 17.4166H15.0168L15.6801 16.09C15.8354 15.7795 16.1528 15.5833 16.4999 15.5833H18.1169C18.4345 15.5833 18.7296 15.7478 18.8966 16.0181C19.0636 16.2883 19.0788 16.6258 18.9367 16.9099L17.8151 19.1532C17.5046 19.7743 16.8698 20.1666 16.1754 20.1666Z" stroke="white" stroke-linecap="round" stroke-linejoin="round"/>
<path d="M8.59896 5.5V7.79167" stroke="white" stroke-linecap="round" stroke-linejoin="round"/>
<path d="M13.1839 5.5V7.79167" stroke="white" stroke-linecap="round" stroke-linejoin="round"/>
<path fill-rule="evenodd" clip-rule="evenodd" d="M13.4742 5.49998H8.31013C7.91725 5.49998 7.54832 5.31112 7.3186 4.99239C7.08888 4.67367 7.02638 4.26395 7.15063 3.89123L7.55804 2.66904C7.7244 2.16995 8.19146 1.83331 8.71754 1.83331H13.0668C13.5929 1.83331 14.0599 2.16995 14.2263 2.66904L14.6337 3.89123C14.758 4.26395 14.6955 4.67367 14.4657 4.99239C14.236 5.31112 13.8671 5.49998 13.4742 5.49998V5.49998Z" stroke="white" stroke-linecap="round" stroke-linejoin="round"/>
</svg>
