<svg width="107" height="28" viewBox="0 0 107 28" fill="none" xmlns="http://www.w3.org/2000/svg">
<g style="mix-blend-mode:luminosity">
<g opacity="0.5">
<path d="M29.1121 14.3501C29.1121 13.2981 29.3125 12.3789 29.7134 11.5924C30.1241 10.796 30.7059 10.1816 31.4588 9.74897C32.2215 9.31639 33.1162 9.1001 34.1429 9.1001C34.9447 9.1001 35.6634 9.2574 36.299 9.57201C36.9346 9.88661 37.4479 10.329 37.839 10.8993C38.2302 11.4695 38.4648 12.1282 38.5431 12.8754H36.343C36.2159 12.2855 35.947 11.8234 35.5363 11.4891C35.1354 11.145 34.6318 10.973 34.0256 10.973C33.2042 10.973 32.554 11.2827 32.0748 11.9021C31.5957 12.5214 31.3561 13.3375 31.3561 14.3501C31.3561 15.3529 31.5957 16.1689 32.0748 16.7981C32.554 17.4175 33.2042 17.7272 34.0256 17.7272C34.6318 17.7272 35.1354 17.5601 35.5363 17.2258C35.947 16.8817 36.2159 16.4147 36.343 15.8248H38.5431C38.4648 16.572 38.2302 17.2307 37.839 17.8009C37.4479 18.3712 36.9346 18.8136 36.299 19.1282C35.6634 19.4428 34.9447 19.6001 34.1429 19.6001C33.1162 19.6001 32.2215 19.3838 31.4588 18.9512C30.7059 18.5186 30.1241 17.9091 29.7134 17.1226C29.3125 16.3262 29.1121 15.4021 29.1121 14.3501Z" fill="black"/>
<path d="M39.0733 9.18858H41.1413V19.5116H39.0733V9.18858Z" fill="black"/>
<path d="M45.6773 19.6001C44.8853 19.6001 44.1861 19.4428 43.5799 19.1282C42.9834 18.8037 42.519 18.3466 42.1865 17.7567C41.8638 17.1668 41.7025 16.4884 41.7025 15.7216C41.7025 14.9547 41.8638 14.2764 42.1865 13.6865C42.519 13.0966 42.9834 12.6443 43.5799 12.3297C44.1861 12.0053 44.8853 11.8431 45.6773 11.8431C46.4693 11.8431 47.1636 12.0053 47.76 12.3297C48.3663 12.6443 48.8307 13.0966 49.1534 13.6865C49.4859 14.2764 49.6521 14.9547 49.6521 15.7216C49.6521 16.4983 49.4859 17.1816 49.1534 17.7714C48.8307 18.3515 48.3663 18.8037 47.76 19.1282C47.1636 19.4428 46.4693 19.6001 45.6773 19.6001ZM45.6773 17.9042C46.2542 17.9042 46.7089 17.7026 47.0413 17.2995C47.3836 16.8964 47.5547 16.3705 47.5547 15.7216C47.5547 15.0727 47.3836 14.5467 47.0413 14.1436C46.7089 13.7405 46.2542 13.539 45.6773 13.539C45.1102 13.539 44.6555 13.7405 44.3132 14.1436C43.9808 14.5467 43.8146 15.0727 43.8146 15.7216C43.8146 16.3705 43.9808 16.8964 44.3132 17.2995C44.6555 17.7026 45.1102 17.9042 45.6773 17.9042Z" fill="black"/>
<path d="M57.3027 11.9316V19.5116H55.4692L55.2786 18.5973C55.0146 18.9119 54.7066 19.1577 54.3545 19.3346C54.0025 19.5116 53.5723 19.6001 53.0638 19.6001C52.1838 19.6001 51.4651 19.3297 50.9078 18.789C50.3504 18.2384 50.0717 17.3241 50.0717 16.046V11.9316H52.1398V15.7953C52.1398 16.4835 52.2571 17.0046 52.4918 17.3585C52.7363 17.7026 53.1078 17.8747 53.6065 17.8747C54.1248 17.8747 54.5257 17.683 54.8092 17.2995C55.0928 16.9063 55.2346 16.3606 55.2346 15.6626V11.9316H57.3027Z" fill="black"/>
<path d="M65.6927 9.18858V19.5116H63.8887L63.6833 18.4646C63.1064 19.2216 62.3242 19.6001 61.3366 19.6001C60.6717 19.6001 60.0752 19.4428 59.5472 19.1282C59.0192 18.8037 58.6036 18.3466 58.3005 17.7567C58.0071 17.1668 57.8605 16.4835 57.8605 15.7068C57.8605 14.94 58.0071 14.2665 58.3005 13.6865C58.6036 13.0966 59.0192 12.6443 59.5472 12.3297C60.085 12.0053 60.6863 11.8431 61.3513 11.8431C62.3291 11.8431 63.0869 12.1872 63.6247 12.8754V9.18858H65.6927ZM61.8206 17.9042C62.378 17.9042 62.8229 17.7075 63.1553 17.3143C63.4878 16.9112 63.654 16.3852 63.654 15.7363C63.654 15.0776 63.4878 14.5467 63.1553 14.1436C62.8229 13.7405 62.378 13.539 61.8206 13.539C61.2633 13.539 60.8135 13.7405 60.4712 14.1436C60.1388 14.5467 59.9725 15.0727 59.9725 15.7216C59.9725 16.3705 60.1388 16.8964 60.4712 17.2995C60.8135 17.7026 61.2633 17.9042 61.8206 17.9042Z" fill="black"/>
<path d="M65.9612 9.18858L68.2346 9.17383L70.1267 16.7244L72.1361 9.18858H74.1162L76.0669 16.7244L78.003 9.18858H80.2324L77.387 19.5116H74.8496L73.0748 12.6542L71.3441 19.5116H68.8067L65.9612 9.18858Z" fill="black"/>
<path d="M87.1333 17.7567V19.5116H86.0773C85.1288 19.5116 84.6643 19.0987 84.6839 18.2729C84.4101 18.7054 84.0728 19.0348 83.6719 19.2609C83.271 19.487 82.787 19.6001 82.2198 19.6001C81.3789 19.6001 80.6993 19.4084 80.1811 19.025C79.6726 18.6317 79.4184 18.0811 79.4184 17.3733C79.4184 16.5671 79.7117 15.9477 80.2984 15.5151C80.8949 15.0727 81.7554 14.8515 82.8798 14.8515H84.3759V14.4828C84.3759 14.1387 84.2488 13.8684 83.9946 13.6717C83.7403 13.4653 83.3981 13.362 82.9678 13.362C82.5865 13.362 82.2736 13.4456 82.0291 13.6127C81.7847 13.7799 81.638 14.006 81.5891 14.2911H79.5944C79.6628 13.5144 80.0051 12.9147 80.6211 12.492C81.2371 12.0594 82.0536 11.8431 83.0705 11.8431C84.1363 11.8431 84.9577 12.079 85.5346 12.5509C86.1213 13.0229 86.4146 13.7061 86.4146 14.6008V17.27C86.4146 17.4568 86.4538 17.5846 86.532 17.6535C86.6102 17.7223 86.7324 17.7567 86.8987 17.7567H87.1333ZM84.3759 16.2377H82.8652C82.4349 16.2377 82.0976 16.3262 81.8531 16.5032C81.6185 16.6703 81.5011 16.9112 81.5011 17.2258C81.5011 17.4912 81.5989 17.7026 81.7945 17.8599C81.9998 18.0172 82.2736 18.0959 82.6158 18.0959C83.1536 18.0959 83.579 17.9435 83.8919 17.6387C84.2048 17.3241 84.3661 16.9063 84.3759 16.3852V16.2377Z" fill="black"/>
<path d="M87.8307 13.6865H86.584V11.9316H87.8307V9.80796H89.8988V11.9316H91.6148V13.6865H89.8988V17.0046C89.8988 17.27 89.9526 17.4618 90.0601 17.5797C90.1775 17.6977 90.3681 17.7567 90.6321 17.7567H91.7029V19.5116H89.9868C88.5494 19.5116 87.8307 18.789 87.8307 17.3438V13.6865Z" fill="black"/>
<path d="M99.1191 16.6359C98.9822 17.5601 98.5911 18.2876 97.9457 18.8185C97.3101 19.3396 96.4839 19.6001 95.4669 19.6001C94.6847 19.6001 94.0002 19.4428 93.4135 19.1282C92.8268 18.8037 92.3722 18.3466 92.0495 17.7567C91.7366 17.1668 91.5801 16.4884 91.5801 15.7216C91.5801 14.9449 91.7366 14.2665 92.0495 13.6865C92.3722 13.0966 92.8268 12.6443 93.4135 12.3297C94.01 12.0053 94.6994 11.8431 95.4816 11.8431C96.4888 11.8431 97.3101 12.1036 97.9457 12.6247C98.5813 13.1359 98.9724 13.8487 99.1191 14.763H96.9777C96.8897 14.3894 96.7137 14.0945 96.4496 13.8782C96.1856 13.6521 95.8581 13.539 95.4669 13.539C94.9291 13.539 94.4989 13.7405 94.1762 14.1436C93.8535 14.5467 93.6922 15.0727 93.6922 15.7216C93.6922 16.3705 93.8535 16.8964 94.1762 17.2995C94.4989 17.7026 94.9291 17.9042 95.4669 17.9042C95.8678 17.9042 96.2003 17.7911 96.4643 17.565C96.7381 17.3389 96.9141 17.0292 96.9923 16.6359H99.1191Z" fill="black"/>
<path d="M103.949 11.8431C104.839 11.8431 105.567 12.1184 106.135 12.6689C106.711 13.2195 107 14.1289 107 15.3971V19.5116H104.932V15.4856C104.932 14.8564 104.805 14.3796 104.551 14.0552C104.296 13.7209 103.915 13.5537 103.406 13.5537C102.878 13.5537 102.463 13.7356 102.16 14.0994C101.866 14.4632 101.72 14.9695 101.72 15.6184V19.5116H99.6517V9.18858H101.72V12.8606C102.277 12.1823 103.02 11.8431 103.949 11.8431Z" fill="black"/>
</g>
<path d="M23.961 14.183C23.961 11.732 23.0088 9.38134 21.3139 7.64821C19.619 5.91507 17.3202 4.94141 14.9232 4.94141C12.5263 4.94141 10.2275 5.91507 8.5326 7.64821C6.83769 9.38134 5.8855 11.732 5.8855 14.183H8.70983C9.64573 14.183 10.3756 13.381 10.7184 12.4905C10.9435 11.9058 11.285 11.3685 11.7279 10.9156C12.5754 10.049 13.7248 9.5622 14.9232 9.5622C16.1217 9.5622 17.2711 10.049 18.1186 10.9156C18.966 11.7822 19.4421 12.9575 19.4421 14.183H23.961Z" fill="url(#paint0_linear_3263_2553)"/>
<path d="M18.7561 17.7187C19.2103 16.5975 19.4441 15.3957 19.4441 14.1821H23.9625C23.9625 19.2861 19.9161 23.4237 14.9247 23.4237C14.143 23.4237 13.3845 23.3222 12.6611 23.1315C13.0704 23.0236 13.4727 22.8863 13.8649 22.7202C14.9614 22.2558 15.9577 21.5751 16.797 20.7169C17.6362 19.8587 18.302 18.84 18.7561 17.7187Z" fill="#FBCF8E"/>
<path d="M1.36816 14.1821C1.36816 15.3958 1.60193 16.5975 2.05612 17.7188C2.51031 18.84 3.17602 19.8588 4.01526 20.717C4.85449 21.5751 5.8508 22.2558 6.94731 22.7203C8.04381 23.1847 9.21904 23.4237 10.4059 23.4237C11.5927 23.4237 12.768 23.1847 13.8645 22.7203C14.961 22.2558 15.9573 21.5751 16.7966 20.717C17.6358 19.8588 18.3015 18.84 18.7557 17.7188C19.2099 16.5975 19.4437 15.3958 19.4437 14.1821H16.6193C15.6834 14.1821 14.9536 14.9841 14.6107 15.8746C14.601 15.9 14.591 15.9252 14.5808 15.9505C14.3537 16.5111 14.0209 17.0205 13.6012 17.4496C13.1816 17.8786 12.6834 18.219 12.1352 18.4512C11.587 18.6835 10.9994 18.803 10.4059 18.803C9.81248 18.803 9.22487 18.6835 8.67664 18.4512C8.12835 18.219 7.63022 17.8786 7.21057 17.4496C6.79096 17.0205 6.45811 16.5111 6.23102 15.9505C6.00392 15.3898 5.88704 14.789 5.88704 14.1821H1.36816Z" fill="url(#paint1_linear_3263_2553)"/>
<path d="M1.37012 14.183C1.37012 9.079 5.41644 4.94141 10.4078 4.94141C11.1893 4.94141 11.9476 5.04283 12.6709 5.23351C11.119 5.64234 9.68726 6.4697 8.53469 7.64821C6.8398 9.38133 5.88762 11.732 5.88762 14.183H1.37012Z" fill="#73E5E2"/>
</g>
<defs>
<linearGradient id="paint0_linear_3263_2553" x1="23.961" y1="9.5622" x2="5.8855" y2="9.5622" gradientUnits="userSpaceOnUse">
<stop stop-color="#73E5E2"/>
<stop offset="1" stop-color="#394F87"/>
</linearGradient>
<linearGradient id="paint1_linear_3263_2553" x1="1.36816" y1="18.803" x2="19.4437" y2="18.803" gradientUnits="userSpaceOnUse">
<stop stop-color="#FBDC8E"/>
<stop offset="1" stop-color="#FB958E"/>
</linearGradient>
</defs>
</svg>
