<svg width="108" height="28" viewBox="0 0 108 28" fill="none" xmlns="http://www.w3.org/2000/svg">
<g style="mix-blend-mode:luminosity">
<path d="M17.4737 20.3212H23.0768L9.19669 7.55322H3.59351L17.4737 20.3212Z" fill="#7476ED"/>
<path d="M12.075 7.55322L25.4552 19.8613V7.55322H21.8342V11.4391L17.6098 7.55322L12.075 7.55322Z" fill="#E56F8C"/>
<path d="M1.24756 7.98022V20.3207H4.86847V16.4348L9.09282 20.3207H14.663L1.24756 7.98022Z" fill="#64C2DB"/>
<path d="M32.863 13.1231H34.734C35.4291 13.1231 36.0385 13.0372 36.5621 12.8653C37.0953 12.6848 37.5143 12.4269 37.819 12.0917C38.1332 11.7564 38.2903 11.3525 38.2903 10.8797C38.2903 10.364 38.1332 9.93849 37.819 9.60326C37.5143 9.25944 37.0953 9.00587 36.5621 8.84256C36.0385 8.67064 35.4291 8.58469 34.734 8.58469H31.0635V17.61H34.9768C35.7671 17.61 36.4526 17.5241 37.0335 17.3522C37.6143 17.1716 38.0618 16.8966 38.376 16.527C38.6997 16.1574 38.8616 15.6717 38.8616 15.07C38.8616 14.6145 38.7473 14.2277 38.5188 13.9096C38.2998 13.583 38.0047 13.3165 37.6333 13.1102C37.262 12.8954 36.8478 12.7406 36.3908 12.6461C35.9337 12.5515 35.4624 12.5043 34.9768 12.5043H32.863V13.6904H34.7055C34.9435 13.6904 35.1577 13.7119 35.3482 13.7549C35.5481 13.7893 35.7243 13.8495 35.8766 13.9354C36.0289 14.0214 36.148 14.1331 36.2337 14.2706C36.3193 14.4082 36.3622 14.5715 36.3622 14.7606C36.3622 15.0528 36.286 15.2849 36.1337 15.4568C35.9909 15.6202 35.7957 15.7405 35.5481 15.8179C35.3005 15.8866 35.0197 15.921 34.7055 15.921H33.4772V10.2737H34.4769C34.8959 10.2737 35.2196 10.3511 35.4481 10.5058C35.6766 10.6605 35.7909 10.8926 35.7909 11.202C35.7909 11.4083 35.7385 11.5845 35.6338 11.7307C35.5291 11.8682 35.3767 11.9756 35.1768 12.053C34.9863 12.1304 34.7531 12.169 34.4769 12.169H32.863V13.1231Z" fill="#E56F8C"/>
<path d="M39.7765 9.44854C39.7765 9.75798 39.9003 10.0116 40.1479 10.2092C40.3954 10.4069 40.6906 10.5058 41.0334 10.5058C41.3857 10.5058 41.6808 10.4069 41.9189 10.2092C42.1664 10.0116 42.2902 9.75798 42.2902 9.44854C42.2902 9.1391 42.1664 8.88983 41.9189 8.70073C41.6808 8.50303 41.3857 8.40418 41.0334 8.40418C40.6906 8.40418 40.3954 8.50303 40.1479 8.70073C39.9003 8.88983 39.7765 9.1391 39.7765 9.44854ZM39.9908 11.6791V17.61H42.076V11.6791H39.9908Z" fill="#E56F8C"/>
<path d="M43.0381 14.6446C43.0381 15.2634 43.2 15.805 43.5237 16.2691C43.8475 16.7333 44.295 17.0943 44.8663 17.3522C45.4376 17.61 46.0803 17.739 46.7944 17.739C47.5085 17.739 48.1464 17.61 48.7082 17.3522C49.2795 17.0943 49.727 16.7333 50.0507 16.2691C50.384 15.805 50.5506 15.2634 50.5506 14.6446C50.5506 14.0171 50.384 13.4713 50.0507 13.0071C49.727 12.5429 49.2795 12.1819 48.7082 11.9241C48.1464 11.6662 47.5085 11.5373 46.7944 11.5373C46.0803 11.5373 45.4376 11.6662 44.8663 11.9241C44.295 12.1819 43.8475 12.5429 43.5237 13.0071C43.2 13.4713 43.0381 14.0171 43.0381 14.6446ZM45.2519 14.6446C45.2519 14.3351 45.3233 14.0687 45.4661 13.8452C45.609 13.6217 45.7946 13.4498 46.0231 13.3294C46.2517 13.2091 46.5087 13.1489 46.7944 13.1489C47.0705 13.1489 47.3228 13.2091 47.5513 13.3294C47.7894 13.4498 47.975 13.6217 48.1083 13.8452C48.2512 14.0687 48.3226 14.3351 48.3226 14.6446C48.3226 14.954 48.2512 15.2205 48.1083 15.4439C47.975 15.6588 47.7894 15.8264 47.5513 15.9468C47.3228 16.0671 47.0705 16.1273 46.7944 16.1273C46.5087 16.1273 46.2517 16.0671 46.0231 15.9468C45.7946 15.8264 45.609 15.6588 45.4661 15.4439C45.3233 15.2205 45.2519 14.954 45.2519 14.6446Z" fill="#E56F8C"/>
<path d="M51.7767 15.4568L50.8769 16.7462C51.172 16.9525 51.491 17.1416 51.8338 17.3135C52.1766 17.4768 52.5479 17.6057 52.9478 17.7003C53.3572 17.8034 53.8 17.855 54.276 17.855C55.0568 17.855 55.6614 17.696 56.0899 17.3779C56.5279 17.0513 56.7469 16.57 56.7469 15.9339C56.7469 15.5643 56.6564 15.2677 56.4755 15.0442C56.3041 14.8208 56.0709 14.636 55.7757 14.4898C55.49 14.3437 55.1758 14.2148 54.8331 14.103C54.5093 13.9913 54.2332 13.901 54.0047 13.8323C53.7857 13.7549 53.6143 13.6733 53.4905 13.5873C53.3763 13.5013 53.3191 13.3939 53.3191 13.265C53.3191 13.1532 53.3667 13.063 53.462 12.9942C53.5667 12.9254 53.719 12.8911 53.919 12.8911C54.2142 12.8911 54.5379 12.9684 54.8902 13.1231C55.2425 13.2693 55.5567 13.4584 55.8328 13.6904L56.6041 12.4269C56.347 12.255 56.0709 12.1046 55.7757 11.9756C55.49 11.8467 55.1806 11.7436 54.8473 11.6662C54.5236 11.5888 54.1713 11.5502 53.7905 11.5502C53.3144 11.5502 52.8907 11.6146 52.5193 11.7436C52.1575 11.8725 51.8671 12.0616 51.6481 12.3109C51.4386 12.5601 51.3339 12.8653 51.3339 13.2263C51.3339 13.6045 51.4244 13.9139 51.6053 14.1546C51.7862 14.3953 52.0147 14.5887 52.2908 14.7348C52.5765 14.8723 52.8764 14.9927 53.1906 15.0958C53.5429 15.1904 53.819 15.2806 54.019 15.3666C54.2284 15.4525 54.376 15.5428 54.4617 15.6373C54.5474 15.7233 54.5903 15.8307 54.5903 15.9597C54.5903 16.0972 54.5379 16.2089 54.4332 16.2949C54.3284 16.3809 54.1665 16.4238 53.9476 16.4238C53.7952 16.4238 53.6143 16.398 53.4048 16.3465C53.1954 16.2863 52.9526 16.1875 52.6764 16.0499C52.4098 15.9038 52.1099 15.7061 51.7767 15.4568Z" fill="#E56F8C"/>
<path d="M64.1618 11.6791H61.9481L59.8486 16.4238L60.9626 16.4367L58.8345 11.6791H56.4637L59.3059 17.133L57.7062 20.4466H59.8771L64.1618 11.6791Z" fill="#E56F8C"/>
<path d="M68.7248 13.9999V17.61H70.9671V13.7936C70.9671 13.0802 70.7814 12.5258 70.4101 12.1304C70.0387 11.735 69.4437 11.5373 68.6248 11.5373C68.1392 11.5373 67.7298 11.6275 67.3965 11.808C67.0728 11.9885 66.8157 12.2421 66.6253 12.5687V11.6791H64.4544V17.61H66.6253V13.9999C66.6253 13.7678 66.6729 13.5701 66.7681 13.4068C66.8633 13.2435 66.9966 13.1188 67.168 13.0329C67.3394 12.9469 67.5394 12.904 67.7679 12.904C68.1106 12.904 68.3534 12.9985 68.4963 13.1876C68.6486 13.3767 68.7248 13.6475 68.7248 13.9999Z" fill="#E56F8C"/>
<path d="M71.4698 11.6791V13.2908H75.8687V11.6791H71.4698ZM72.6266 9.61616V17.61H74.6976V9.61616H72.6266Z" fill="#E56F8C"/>
<path d="M78.5303 7.55322H76.3594V17.61H78.5303V7.55322ZM80.6298 13.9999V17.61H82.7864V13.7162C82.7864 13.2263 82.7103 12.8137 82.5579 12.4785C82.4056 12.1432 82.1628 11.8897 81.8295 11.7178C81.5058 11.5459 81.0726 11.4599 80.5298 11.4599C79.9871 11.4599 79.5396 11.5759 79.1873 11.808C78.8445 12.0315 78.5875 12.3366 78.4161 12.7234C78.2447 13.1017 78.159 13.5271 78.159 13.9999H78.5303C78.5303 13.7678 78.5779 13.5744 78.6731 13.4197C78.7684 13.2564 78.9017 13.1317 79.0731 13.0458C79.2444 12.9512 79.4444 12.904 79.6729 12.904C80.0252 12.904 80.2728 12.9985 80.4156 13.1876C80.5584 13.3767 80.6298 13.6475 80.6298 13.9999Z" fill="#E56F8C"/>
<path d="M87.4044 17.739C88.2423 17.739 88.9517 17.5928 89.5325 17.3006C90.1228 17.0083 90.5894 16.57 90.9321 15.9855L89.004 15.56C88.8422 15.8179 88.6232 16.0112 88.347 16.1402C88.0804 16.2691 87.7567 16.3336 87.3758 16.3336C87.0426 16.3336 86.7617 16.2691 86.5332 16.1402C86.3047 16.0027 86.1333 15.805 86.019 15.5471C85.9048 15.2892 85.8476 14.9798 85.8476 14.6188C85.8572 14.2234 85.9143 13.8967 86.019 13.6389C86.1333 13.3724 86.2999 13.1747 86.5189 13.0458C86.7379 12.9168 87.0093 12.8524 87.333 12.8524C87.5901 12.8524 87.8138 12.904 88.0043 13.0071C88.1947 13.1102 88.3423 13.2564 88.447 13.4455C88.5518 13.6346 88.6041 13.8581 88.6041 14.1159C88.6041 14.1761 88.5851 14.2535 88.547 14.348C88.5184 14.434 88.4803 14.507 88.4327 14.5672L88.9469 13.9741H84.8907V15.0571H90.8893C90.9083 14.997 90.9178 14.9239 90.9178 14.838C90.9178 14.7434 90.9178 14.6489 90.9178 14.5543C90.9178 13.9182 90.7798 13.3767 90.5037 12.9297C90.2275 12.4828 89.8276 12.1432 89.304 11.9112C88.7803 11.6705 88.1376 11.5502 87.3758 11.5502C86.6141 11.5502 85.9524 11.6748 85.3906 11.9241C84.8384 12.1733 84.4147 12.53 84.1195 12.9942C83.8243 13.4584 83.6767 14.0085 83.6767 14.6446C83.6767 15.272 83.8291 15.8179 84.1338 16.282C84.4385 16.7462 84.8669 17.1072 85.4192 17.3651C85.9809 17.6143 86.6427 17.739 87.4044 17.739Z" fill="#E56F8C"/>
<path d="M92.1781 15.4568L91.2784 16.7462C91.5735 16.9525 91.8925 17.1416 92.2353 17.3135C92.578 17.4768 92.9494 17.6057 93.3493 17.7003C93.7587 17.8034 94.2015 17.855 94.6775 17.855C95.4583 17.855 96.0629 17.696 96.4914 17.3779C96.9294 17.0513 97.1484 16.57 97.1484 15.9339C97.1484 15.5643 97.0579 15.2677 96.877 15.0442C96.7056 14.8208 96.4723 14.636 96.1772 14.4898C95.8915 14.3437 95.5773 14.2148 95.2345 14.103C94.9108 13.9913 94.6347 13.901 94.4062 13.8323C94.1872 13.7549 94.0158 13.6733 93.892 13.5873C93.7777 13.5013 93.7206 13.3939 93.7206 13.265C93.7206 13.1532 93.7682 13.063 93.8634 12.9942C93.9682 12.9254 94.1205 12.8911 94.3205 12.8911C94.6156 12.8911 94.9394 12.9684 95.2917 13.1231C95.644 13.2693 95.9582 13.4584 96.2343 13.6904L97.0055 12.4269C96.7485 12.255 96.4723 12.1046 96.1772 11.9756C95.8915 11.8467 95.5821 11.7436 95.2488 11.6662C94.9251 11.5888 94.5728 11.5502 94.1919 11.5502C93.7159 11.5502 93.2922 11.6146 92.9208 11.7436C92.559 11.8725 92.2686 12.0616 92.0496 12.3109C91.8401 12.5601 91.7354 12.8653 91.7354 13.2263C91.7354 13.6045 91.8258 13.9139 92.0068 14.1546C92.1877 14.3953 92.4162 14.5887 92.6923 14.7348C92.9779 14.8723 93.2779 14.9927 93.5921 15.0958C93.9444 15.1904 94.2205 15.2806 94.4205 15.3666C94.6299 15.4525 94.7775 15.5428 94.8632 15.6373C94.9489 15.7233 94.9917 15.8307 94.9917 15.9597C94.9917 16.0972 94.9394 16.2089 94.8346 16.2949C94.7299 16.3809 94.568 16.4238 94.349 16.4238C94.1967 16.4238 94.0158 16.398 93.8063 16.3465C93.5968 16.2863 93.354 16.1875 93.0779 16.0499C92.8113 15.9038 92.5114 15.7061 92.1781 15.4568Z" fill="#E56F8C"/>
<path d="M97.7776 9.44854C97.7776 9.75798 97.9013 10.0116 98.1489 10.2092C98.3965 10.4069 98.6916 10.5058 99.0344 10.5058C99.3867 10.5058 99.6819 10.4069 99.9199 10.2092C100.167 10.0116 100.291 9.75798 100.291 9.44854C100.291 9.1391 100.167 8.88983 99.9199 8.70073C99.6819 8.50303 99.3867 8.40418 99.0344 8.40418C98.6916 8.40418 98.3965 8.50303 98.1489 8.70073C97.9013 8.88983 97.7776 9.1391 97.7776 9.44854ZM97.9918 11.6791V17.61H100.077V11.6791H97.9918Z" fill="#E56F8C"/>
<path d="M101.782 15.4568L100.882 16.7462C101.177 16.9525 101.496 17.1416 101.839 17.3135C102.182 17.4768 102.553 17.6057 102.953 17.7003C103.362 17.8034 103.805 17.855 104.281 17.855C105.062 17.855 105.667 17.696 106.095 17.3779C106.533 17.0513 106.752 16.57 106.752 15.9339C106.752 15.5643 106.662 15.2677 106.481 15.0442C106.309 14.8208 106.076 14.636 105.781 14.4898C105.495 14.3437 105.181 14.2148 104.838 14.103C104.515 13.9913 104.238 13.901 104.01 13.8323C103.791 13.7549 103.619 13.6733 103.496 13.5873C103.381 13.5013 103.324 13.3939 103.324 13.265C103.324 13.1532 103.372 13.063 103.467 12.9942C103.572 12.9254 103.724 12.8911 103.924 12.8911C104.219 12.8911 104.543 12.9684 104.895 13.1231C105.248 13.2693 105.562 13.4584 105.838 13.6904L106.609 12.4269C106.352 12.255 106.076 12.1046 105.781 11.9756C105.495 11.8467 105.186 11.7436 104.853 11.6662C104.529 11.5888 104.177 11.5502 103.796 11.5502C103.32 11.5502 102.896 11.6146 102.525 11.7436C102.163 11.8725 101.872 12.0616 101.653 12.3109C101.444 12.5601 101.339 12.8653 101.339 13.2263C101.339 13.6045 101.43 13.9139 101.61 14.1546C101.791 14.3953 102.02 14.5887 102.296 14.7348C102.582 14.8723 102.882 14.9927 103.196 15.0958C103.548 15.1904 103.824 15.2806 104.024 15.3666C104.234 15.4525 104.381 15.5428 104.467 15.6373C104.553 15.7233 104.595 15.8307 104.595 15.9597C104.595 16.0972 104.543 16.2089 104.438 16.2949C104.334 16.3809 104.172 16.4238 103.953 16.4238C103.8 16.4238 103.619 16.398 103.41 16.3465C103.201 16.2863 102.958 16.1875 102.682 16.0499C102.415 15.9038 102.115 15.7061 101.782 15.4568Z" fill="#E56F8C"/>
</g>
</svg>
