<svg width="110" height="28" viewBox="0 0 110 28" fill="none" xmlns="http://www.w3.org/2000/svg">
<g style="mix-blend-mode:luminosity">
<path d="M18.0624 12.0123C17.7894 12.3072 17.5803 12.663 17.45 13.0545C17.3197 13.446 17.2715 13.8635 17.3088 14.2772L17.2958 14.2633C17.3341 14.7504 17.2729 15.2405 17.1165 15.6996C16.9601 16.1586 16.7122 16.5755 16.3902 16.9212C16.0681 17.2667 15.6797 17.5328 15.2519 17.7006C14.8242 17.8685 14.3675 17.9342 13.9137 17.8931L13.9267 17.907C13.3838 17.8528 12.8386 17.9795 12.3653 18.2701C11.8921 18.5606 11.5138 19.0006 11.2822 19.5303C11.0505 20.06 10.9767 20.6534 11.0708 21.2298C11.1649 21.8062 11.4224 22.3373 11.8081 22.7509C12.1938 23.1644 12.6889 23.4402 13.226 23.5407C13.7631 23.6412 14.316 23.5614 14.8093 23.3123C15.3027 23.0632 15.7123 22.6569 15.9826 22.1487C16.2529 21.6405 16.3705 21.0553 16.3195 20.4727L16.3332 20.4866C16.2949 19.9996 16.356 19.5095 16.5125 19.0504C16.6689 18.5913 16.9168 18.1745 17.2388 17.8288C17.5609 17.4832 17.9493 17.2172 18.377 17.0494C18.8048 16.8815 19.2615 16.8158 19.7153 16.8569L19.7016 16.843C20.145 16.8857 20.5914 16.8077 20.9993 16.6161C21.4071 16.4245 21.7633 16.1254 22.0348 15.7468C22.3063 15.3681 22.4844 14.9219 22.5524 14.4498C22.6205 13.9775 22.5764 13.4945 22.4242 13.0454C22.2721 12.5964 22.0167 12.1958 21.6819 11.8809C21.3471 11.5659 20.9436 11.3468 20.5088 11.2438C20.0741 11.1408 19.6221 11.1572 19.1948 11.2915C18.7675 11.4259 18.3788 11.6738 18.0646 12.0123H18.0624Z" fill="#EAD834"/>
<path d="M12.7468 16.0826L12.7331 16.0687C13.1188 16.1104 13.5083 16.0596 13.8736 15.9199C14.2387 15.7803 14.5704 15.5553 14.8447 15.2612C15.1188 14.9672 15.3288 14.6113 15.4591 14.2195C15.5895 13.8277 15.6372 13.4097 15.5986 12.9957L15.6123 13.0096C15.574 12.5225 15.6352 12.0324 15.7916 11.5733C15.948 11.1143 16.1959 10.6974 16.5179 10.3518C16.84 10.0062 17.2284 9.74013 17.6561 9.57233C18.0839 9.40442 18.5406 9.33874 18.9944 9.37986L18.9807 9.36594C19.5236 9.42069 20.069 9.2943 20.5425 9.00412C21.0161 8.71394 21.3947 8.27405 21.6267 7.74446C21.8587 7.21487 21.9328 6.62136 21.839 6.04488C21.7452 5.46839 21.488 4.93701 21.1023 4.5232C20.7168 4.1094 20.2217 3.83331 19.6845 3.73261C19.1474 3.63191 18.5944 3.71149 18.1009 3.9605C17.6074 4.2095 17.1976 4.61582 16.9272 5.12402C16.6568 5.63222 16.539 6.21756 16.59 6.80021L16.5771 6.78552C16.6155 7.2726 16.5544 7.76281 16.398 8.22192C16.2417 8.68103 15.9937 9.09797 15.6717 9.44365C15.3497 9.78923 14.9612 10.0553 14.5334 10.2231C14.1056 10.3909 13.6488 10.4565 13.195 10.4153L13.2079 10.43C12.8222 10.3883 12.4327 10.4391 12.0675 10.5787C11.7023 10.7183 11.3706 10.9433 11.0964 11.2374C10.8222 11.5315 10.6123 11.8874 10.4819 12.2792C10.3515 12.671 10.3039 13.0889 10.3424 13.503L10.3295 13.489C10.3677 13.976 10.3063 14.4662 10.1499 14.9252C9.99343 15.3841 9.74557 15.801 9.42357 16.1466C9.10154 16.4921 8.71316 16.7581 8.28549 16.9261C7.85782 17.094 7.40116 17.1598 6.94737 17.1188L6.96034 17.1327C6.41745 17.078 5.87204 17.2043 5.39851 17.4945C4.92498 17.7847 4.54639 18.2246 4.31438 18.7542C4.08235 19.2838 4.0082 19.8773 4.10203 20.4538C4.19587 21.0303 4.45312 21.5616 4.83869 21.9754C5.22427 22.3893 5.71939 22.6653 6.25654 22.766C6.79369 22.8667 7.34671 22.7871 7.84017 22.5381C8.33362 22.2891 8.7435 21.8829 9.01389 21.3747C9.28429 20.8664 9.40203 20.2811 9.35101 19.6984L9.3647 19.7124C9.32637 19.2253 9.38762 18.7352 9.54404 18.2761C9.70039 17.8171 9.94832 17.4002 10.2703 17.0545C10.5924 16.709 10.9808 16.4429 11.4085 16.2751C11.8363 16.1072 12.293 16.0415 12.7468 16.0826Z" fill="#CE9238"/>
<path d="M7.9182 14.5309C8.19129 14.2361 8.40037 13.8802 8.53052 13.4887C8.66068 13.0972 8.70869 12.6796 8.67114 12.2659L8.68482 12.2799C8.64649 11.7927 8.70771 11.3024 8.86421 10.8432C9.02071 10.384 9.26874 9.96707 9.59095 9.62141C9.91317 9.27577 10.3017 9.00978 10.7297 8.84201C11.1576 8.67424 11.6144 8.60875 12.0684 8.6501L12.0547 8.63618C12.5974 8.69075 13.1426 8.56433 13.6159 8.27417C14.0892 7.98401 14.4675 7.54423 14.6995 7.0148C14.9313 6.48537 15.0054 5.89208 14.9116 5.31581C14.8178 4.73954 14.5606 4.20836 14.1752 3.79471C13.7898 3.38105 13.2948 3.10506 12.7578 3.00436C12.2209 2.90366 11.6681 2.98316 11.1748 3.23202C10.6815 3.48087 10.2717 3.88698 10.0014 4.39494C9.73095 4.9029 9.61314 5.48801 9.66401 6.07046L9.65104 6.05654C9.68937 6.54359 9.62813 7.03374 9.4717 7.49279C9.31528 7.95183 9.06744 8.36871 8.7454 8.71434C8.42336 9.05996 8.03492 9.32599 7.60719 9.49382C7.17946 9.6617 6.72275 9.72743 6.26894 9.68629L6.28191 9.70021C5.83848 9.65752 5.39218 9.7357 4.98439 9.9274C4.57659 10.1191 4.22047 10.4182 3.94905 10.7969C3.67762 11.1756 3.49967 11.6218 3.43167 12.094C3.36367 12.5662 3.40783 13.0492 3.56006 13.4981C3.71228 13.9472 3.96765 14.3477 4.3025 14.6625C4.63734 14.9775 5.04083 15.1966 5.47558 15.2996C5.91032 15.4025 6.36224 15.386 6.78949 15.2517C7.21673 15.1173 7.60545 14.8694 7.91963 14.5309H7.9182Z" fill="#EAD834"/>
<g opacity="0.5">
<path d="M28.0317 18.0947L32.2037 5.65898H34.5504L38.7224 18.0947H36.506L35.5934 15.2168H31.1444L30.2155 18.0947H28.0317ZM31.7148 13.4402H35.023L33.3608 8.27049L31.7148 13.4402Z" fill="black"/>
<path d="M42.9063 18.3079C42.0806 18.3079 41.3527 18.1125 40.7225 17.7217C40.0924 17.3308 39.5926 16.786 39.2232 16.0873C38.8647 15.3885 38.6854 14.589 38.6854 13.6889C38.6854 12.7888 38.8647 11.9894 39.2232 11.2906C39.5926 10.5918 40.0924 10.047 40.7225 9.65619C41.3527 9.26536 42.0806 9.06994 42.9063 9.06994C43.9384 9.06994 44.8076 9.36603 45.5138 9.95821C46.22 10.5385 46.6708 11.3439 46.8664 12.3743H44.6663C44.5577 11.9479 44.3404 11.6163 44.0145 11.3794C43.6994 11.1307 43.3246 11.0064 42.89 11.0064C42.3142 11.0064 41.8253 11.2432 41.4233 11.717C41.0213 12.1907 40.8203 12.848 40.8203 13.6889C40.8203 14.5298 41.0213 15.1871 41.4233 15.6609C41.8253 16.1346 42.3142 16.3715 42.89 16.3715C43.3246 16.3715 43.6994 16.2531 44.0145 16.0162C44.3404 15.7793 44.5577 15.4418 44.6663 15.0036H46.8664C46.6708 15.9984 46.22 16.7979 45.5138 17.4019C44.8076 18.0059 43.9384 18.3079 42.9063 18.3079Z" fill="black"/>
<path d="M47.903 18.0947V9.28312H49.7445L49.9238 10.4734C50.1846 10.047 50.5268 9.70949 50.9505 9.46077C51.3851 9.20022 51.8848 9.06994 52.4498 9.06994C53.6992 9.06994 54.5847 9.59698 55.1062 10.6511C55.3995 10.1655 55.7906 9.78055 56.2795 9.49631C56.7793 9.21206 57.3225 9.06994 57.9092 9.06994C58.963 9.06994 59.7724 9.4134 60.3374 10.1003C60.9023 10.7873 61.1848 11.794 61.1848 13.1204V18.0947H59.0988V13.3336C59.0988 12.5756 58.963 11.9953 58.6914 11.5926C58.4307 11.1899 58.0233 10.9886 57.4692 10.9886C56.9042 10.9886 56.4479 11.2136 56.1003 11.6637C55.7635 12.1137 55.5951 12.7414 55.5951 13.5468V18.0947H53.5091V13.3336C53.5091 12.5756 53.3733 11.9953 53.1017 11.5926C52.83 11.1899 52.4118 10.9886 51.8468 10.9886C51.2927 10.9886 50.8419 11.2136 50.4942 11.6637C50.1574 12.1137 49.989 12.7414 49.989 13.5468V18.0947H47.903Z" fill="black"/>
<path d="M66.2779 18.3079C65.4631 18.3079 64.7406 18.1184 64.1105 17.7394C63.4803 17.3604 62.986 16.8275 62.6275 16.1406C62.2689 15.4536 62.0897 14.6601 62.0897 13.76C62.0897 12.848 62.2635 12.0368 62.6112 11.3261C62.9697 10.6155 63.4586 10.0648 64.0779 9.67396C64.708 9.27128 65.4468 9.06994 66.2942 9.06994C67.0873 9.06994 67.7881 9.25943 68.3965 9.63843C69.0049 10.0174 69.4775 10.5385 69.8143 11.2018C70.162 11.8532 70.3358 12.5816 70.3358 13.3869C70.3358 13.5172 70.3304 13.6534 70.3195 13.7955C70.3195 13.9376 70.3141 14.0857 70.3032 14.2397H64.1593C64.2028 14.9266 64.4201 15.4655 64.8112 15.8563C65.2132 16.2471 65.6967 16.4426 66.2616 16.4426C66.6853 16.4426 67.0384 16.3419 67.3209 16.1406C67.6142 15.9274 67.8315 15.655 67.9728 15.3233H70.0913C69.9392 15.88 69.6839 16.3893 69.3254 16.8512C68.9777 17.3012 68.5432 17.6565 68.0217 17.9171C67.511 18.1777 66.9298 18.3079 66.2779 18.3079ZM66.2942 10.9175C65.7836 10.9175 65.3327 11.0774 64.9416 11.3972C64.5505 11.7051 64.3006 12.1789 64.1919 12.8184H68.2172C68.1846 12.2381 67.9891 11.7762 67.6305 11.4327C67.272 11.0893 66.8266 10.9175 66.2942 10.9175Z" fill="black"/>
<path d="M79.5587 18.3079C78.4071 18.3079 77.4184 18.0415 76.5927 17.5085C75.767 16.9637 75.1314 16.2116 74.686 15.2523C74.2406 14.2811 74.0178 13.1619 74.0178 11.8946C74.0178 10.6274 74.2406 9.50815 74.686 8.53698C75.1314 7.5658 75.767 6.80781 76.5927 6.26301C77.4184 5.7182 78.4071 5.4458 79.5587 5.4458C80.9276 5.4458 82.0467 5.81887 82.9158 6.56502C83.7958 7.29932 84.3445 8.33563 84.5618 9.67396H82.264C82.1227 8.99888 81.8185 8.47184 81.3513 8.09284C80.895 7.702 80.2866 7.50658 79.5261 7.50658C78.4723 7.50658 77.6466 7.89742 77.049 8.6791C76.4515 9.46078 76.1527 10.5326 76.1527 11.8946C76.1527 13.2566 76.4515 14.3285 77.049 15.1102C77.6466 15.88 78.4723 16.2649 79.5261 16.2649C80.2866 16.2649 80.895 16.0873 81.3513 15.732C81.8185 15.3648 82.1227 14.8614 82.264 14.2219H84.5618C84.3445 15.501 83.7958 16.5018 82.9158 17.2242C82.0467 17.9467 80.9276 18.3079 79.5587 18.3079Z" fill="black"/>
<path d="M89.4232 18.3079C88.6409 18.3079 87.9347 18.1125 87.3046 17.7217C86.6853 17.3308 86.191 16.792 85.8216 16.105C85.4631 15.4063 85.2838 14.6009 85.2838 13.6889C85.2838 12.777 85.4685 11.9775 85.8379 11.2906C86.2073 10.5918 86.7016 10.047 87.3209 9.65619C87.951 9.26536 88.6572 9.06994 89.4395 9.06994C90.2108 9.06994 90.9062 9.26536 91.5254 9.65619C92.1556 10.047 92.6499 10.5918 93.0084 11.2906C93.3778 11.9775 93.5625 12.777 93.5625 13.6889C93.5625 14.6009 93.3778 15.4063 93.0084 16.105C92.6499 16.792 92.1556 17.3308 91.5254 17.7217C90.8953 18.1125 90.1945 18.3079 89.4232 18.3079ZM89.4232 16.336C89.9664 16.336 90.439 16.1169 90.841 15.6787C91.243 15.2286 91.444 14.5654 91.444 13.6889C91.444 12.8125 91.243 12.1552 90.841 11.717C90.439 11.2669 89.9718 11.0419 89.4395 11.0419C88.8854 11.0419 88.4073 11.2669 88.0054 11.717C87.6142 12.1552 87.4187 12.8125 87.4187 13.6889C87.4187 14.5654 87.6142 15.2286 88.0054 15.6787C88.4073 16.1169 88.8799 16.336 89.4232 16.336Z" fill="black"/>
<path d="M94.6128 18.0947V9.28312H96.4706L96.6662 10.9353C96.9595 10.3668 97.356 9.91675 97.8558 9.58513C98.3664 9.24167 98.964 9.06994 99.6485 9.06994V11.4683H99.0618C98.6055 11.4683 98.1981 11.5452 97.8395 11.6992C97.481 11.8532 97.1985 12.1197 96.9921 12.4987C96.7965 12.8776 96.6988 13.4047 96.6988 14.0798V18.0947H94.6128Z" fill="black"/>
<path d="M100.259 22.0031V9.28312H102.117L102.345 10.5445C102.606 10.1536 102.948 9.81016 103.372 9.51407C103.807 9.21798 104.366 9.06994 105.051 9.06994C105.811 9.06994 106.49 9.27128 107.088 9.67396C107.685 10.0766 108.158 10.6274 108.505 11.3261C108.853 12.0249 109.027 12.8184 109.027 13.7067C109.027 14.595 108.853 15.3885 108.505 16.0873C108.158 16.7742 107.685 17.319 107.088 17.7217C106.49 18.1125 105.811 18.3079 105.051 18.3079C104.442 18.3079 103.91 18.1836 103.453 17.9349C102.997 17.6861 102.628 17.3368 102.345 16.8867V22.0031H100.259ZM104.611 16.3182C105.273 16.3182 105.822 16.0754 106.257 15.5898C106.691 15.1042 106.908 14.4765 106.908 13.7067C106.908 12.9369 106.691 12.3032 106.257 11.8058C105.822 11.3084 105.273 11.0597 104.611 11.0597C103.937 11.0597 103.383 11.3084 102.948 11.8058C102.525 12.2914 102.313 12.9191 102.313 13.6889C102.313 14.4588 102.525 15.0924 102.948 15.5898C103.383 16.0754 103.937 16.3182 104.611 16.3182Z" fill="black"/>
</g>
</g>
</svg>
