<svg width="104" height="28" viewBox="0 0 104 28" fill="none" xmlns="http://www.w3.org/2000/svg">
<g style="mix-blend-mode:luminosity">
<g opacity="0.5">
<path d="M34.866 20.1552C36.1838 20.1552 37.2672 19.4757 37.604 18.4565V20.037H39.5513V16.0487C39.5513 15.1476 38.8485 14.3795 37.8968 14.3795H35.1149V16.0487H37.0915C37.3404 16.0487 37.5015 16.2112 37.5015 16.4623C37.5015 17.4225 36.2423 18.3531 34.9685 18.3531C33.2701 18.3531 31.9231 17.0089 31.9231 14.867C31.9231 12.7251 33.2701 11.4843 35.0124 11.4843C36.3302 11.4843 37.238 12.2081 37.399 13.316H39.5806C39.4488 11.1002 37.604 9.57875 35.0271 9.57875C32.3184 9.57875 29.8293 11.3366 29.8293 14.867C29.8293 18.3974 32.2452 20.1552 34.866 20.1552Z" fill="black"/>
<path d="M40.3873 20.037H42.4224V9.35718H40.3873V20.037Z" fill="black"/>
<path d="M46.8125 20.1552C49.0819 20.1552 50.7071 18.5303 50.7071 16.3146C50.7071 14.0989 49.0819 12.474 46.8125 12.474C44.543 12.474 42.9178 14.0989 42.9178 16.3146C42.9178 18.5303 44.543 20.1552 46.8125 20.1552ZM46.8125 18.3826C45.7144 18.3826 44.9677 17.5406 44.9677 16.3146C44.9677 15.0738 45.7144 14.2318 46.8125 14.2318C47.9106 14.2318 48.6573 15.0738 48.6573 16.3146C48.6573 17.5406 47.9106 18.3826 46.8125 18.3826Z" fill="black"/>
<path d="M55.2611 20.1552C57.4427 20.1552 58.7458 18.6337 58.7458 16.3146C58.7458 13.9955 57.4427 12.474 55.2904 12.474C54.368 12.474 53.6505 12.8285 53.2406 13.375V9.35718H51.2054V20.037H53.2406V19.2246C53.6505 19.8007 54.4119 20.1552 55.2611 20.1552ZM54.939 18.3826C53.8409 18.3826 53.1234 17.5554 53.1234 16.3146C53.1234 15.059 53.8409 14.2318 54.939 14.2318C56.0078 14.2318 56.7399 15.059 56.7399 16.3146C56.7399 17.5554 56.0078 18.3826 54.939 18.3826Z" fill="black"/>
<path d="M62.1526 12.474C60.132 12.474 58.9314 13.6705 58.8436 15.1624H60.6591C60.6884 14.542 61.1423 13.9807 62.0354 13.9807C62.87 13.9807 63.3532 14.4091 63.3532 15.0295C63.3532 15.3397 63.1628 15.576 62.7968 15.576H61.5523C59.9417 15.576 58.8582 16.4623 58.8582 17.9247C58.8582 19.195 59.8392 20.1552 61.2741 20.1552C62.2843 20.1552 63.1043 19.6973 63.3532 19.003V20.037H65.3737V15.251C65.3737 13.5671 64.0121 12.474 62.1526 12.474ZM61.7865 18.6633C61.2155 18.6633 60.8056 18.3235 60.8056 17.8361C60.8056 17.26 61.2448 16.8759 61.8597 16.8759H63.3532V16.9793C63.3532 17.9247 62.7822 18.6633 61.7865 18.6633Z" fill="black"/>
<path d="M66.1558 20.037H68.1909V9.35718H66.1558V20.037Z" fill="black"/>
<path d="M69.272 20.037H73.4595C75.6264 20.037 77.1199 18.9144 77.1199 16.9498C77.1199 15.5908 76.3292 14.7636 75.3922 14.3943C75.9925 14.0693 76.5928 13.3307 76.5928 12.3558C76.5928 10.6275 75.2018 9.69692 73.3424 9.69692H69.272V20.037ZM71.439 13.6409V11.4547H73.1374C74.1184 11.4547 74.5576 11.8536 74.5576 12.5478C74.5576 13.2421 74.1184 13.6409 73.1813 13.6409H71.439ZM71.439 18.1167V15.5169H73.2691C74.4844 15.5169 75.0261 15.9896 75.0261 16.8316C75.0261 17.6736 74.4844 18.1167 73.2691 18.1167H71.439Z" fill="black"/>
<path d="M80.6604 12.474C78.6398 12.474 77.4392 13.6705 77.3514 15.1624H79.1669C79.1962 14.542 79.6501 13.9807 80.5432 13.9807C81.3778 13.9807 81.861 14.4091 81.861 15.0295C81.861 15.3397 81.6706 15.576 81.3046 15.576H80.0601C78.4495 15.576 77.366 16.4623 77.366 17.9247C77.366 19.195 78.347 20.1552 79.7819 20.1552C80.7922 20.1552 81.6121 19.6973 81.861 19.003V20.037H83.8815V15.251C83.8815 13.5671 82.5199 12.474 80.6604 12.474ZM80.2943 18.6633C79.7233 18.6633 79.3134 18.3235 79.3134 17.8361C79.3134 17.26 79.7526 16.8759 80.3675 16.8759H81.861V16.9793C81.861 17.9247 81.29 18.6633 80.2943 18.6633Z" fill="black"/>
<path d="M84.5464 20.037H86.5963V15.9601C86.5963 14.9999 87.2258 14.3057 88.119 14.3057C88.9682 14.3057 89.5392 14.9556 89.5392 15.8567V20.037H91.589V15.3988C91.589 13.6852 90.5055 12.474 88.8364 12.474C87.8261 12.474 87.0062 12.9024 86.5963 13.6262V12.5922H84.5464V20.037Z" fill="black"/>
<path d="M97.4311 20.037H99.8909L96.7137 15.5169L99.6566 12.5922H97.0797L94.5174 15.1329V9.35718H92.4676V20.037H94.5174V17.7031L95.3374 16.8907L97.4311 20.037Z" fill="black"/>
</g>
<path d="M14.3739 5.52393C19.1702 5.52393 23.058 9.47537 23.058 14.35V20.5283C23.058 21.2305 22.7836 21.904 22.295 22.4006C21.8064 22.8971 21.1438 23.1761 20.4528 23.1761H14.8081V19.3041C14.8081 18.4206 14.8611 17.5053 15.317 16.7534C15.6434 16.2145 16.08 15.7532 16.5973 15.4009C17.1145 15.0486 17.7003 14.8134 18.3148 14.7114L18.4811 14.6841C18.5496 14.6603 18.6091 14.6153 18.6513 14.5554C18.6934 14.4954 18.7161 14.4237 18.7161 14.35C18.7161 14.2764 18.6934 14.2046 18.6513 14.1447C18.6091 14.0848 18.5496 14.0398 18.4811 14.0159L18.3148 13.9886C17.4169 13.8395 16.5878 13.4076 15.9445 12.7538C15.3012 12.0999 14.8762 11.2573 14.7295 10.3447L14.7026 10.1757C14.6792 10.106 14.6349 10.0455 14.5759 10.0027C14.517 9.95989 14.4464 9.93686 14.3739 9.93686C14.3015 9.93686 14.2308 9.95989 14.1719 10.0027C14.1129 10.0455 14.0687 10.106 14.0452 10.1757L14.0183 10.3447C13.918 10.9693 13.6866 11.5646 13.34 12.0903C12.9933 12.616 12.5395 13.0598 12.0092 13.3915C11.2693 13.8549 10.3688 13.9087 9.4995 13.9087H5.7002C5.92729 9.23927 9.72356 5.52393 14.3739 5.52393Z" fill="#F58A5C"/>
<path d="M5.68945 14.7916H9.49918C10.3685 14.7916 11.269 14.8454 12.0089 15.3088C12.5872 15.671 13.0741 16.1658 13.4305 16.7536C13.8864 17.5056 13.9394 18.4208 13.9394 19.3043V23.1763H8.29469C7.60374 23.1763 6.94109 22.8974 6.45251 22.4008C5.96393 21.9043 5.68945 21.2308 5.68945 20.5285V14.7916ZM23.0577 6.40678C23.0577 6.64086 22.9662 6.86536 22.8034 7.03088C22.6405 7.1964 22.4196 7.28939 22.1893 7.28939C21.959 7.28939 21.7381 7.1964 21.5752 7.03088C21.4124 6.86536 21.3209 6.64086 21.3209 6.40678C21.3209 6.1727 21.4124 5.9482 21.5752 5.78268C21.7381 5.61716 21.959 5.52417 22.1893 5.52417C22.4196 5.52417 22.6405 5.61716 22.8034 5.78268C22.9662 5.9482 23.0577 6.1727 23.0577 6.40678Z" fill="#F58A5C"/>
</g>
</svg>
