<svg width="97" height="28" viewBox="0 0 97 28" fill="none" xmlns="http://www.w3.org/2000/svg">
<g style="mix-blend-mode:luminosity">
<g opacity="0.5">
<path d="M33.8392 17.536V7.44897H32.2083V17.536H33.8392Z" fill="black"/>
<path d="M34.8389 14.1747C34.8389 16.2355 36.2024 17.6998 38.2745 17.6998C40.3466 17.6998 41.7102 16.2355 41.7102 14.1747C41.7102 12.1139 40.3466 10.6497 38.2745 10.6497C36.2024 10.6497 34.8389 12.1139 34.8389 14.1747ZM36.4832 14.1747C36.4832 12.9681 37.1917 12.1275 38.2745 12.1275C39.3574 12.1275 40.0659 12.9681 40.0659 14.1747C40.0659 15.3678 39.3574 16.222 38.2745 16.222C37.1917 16.222 36.4832 15.3678 36.4832 14.1747Z" fill="black"/>
<path d="M42.2568 14.0374C42.2568 15.9898 43.5001 17.3998 45.3583 17.3998C46.3208 17.3998 47.1496 17.0066 47.564 16.3558V17.4947C47.564 18.5929 46.8823 19.325 45.746 19.325C44.73 19.325 44.0348 18.8234 43.9412 17.9421H42.2969C42.5108 19.6911 43.8343 20.8299 45.6524 20.8299C47.7913 20.8299 49.1549 19.4064 49.1549 17.1964V10.8378H47.7111L47.6175 11.7462C47.2165 11.0411 46.3876 10.6208 45.4118 10.6208C43.5268 10.6208 42.2568 12.0715 42.2568 14.0374ZM43.9145 13.9968C43.9145 12.885 44.6097 12.0715 45.639 12.0715C46.762 12.0715 47.5106 12.8986 47.5106 13.9968C47.5106 15.1085 46.762 15.9627 45.639 15.9627C44.623 15.9627 43.9145 15.1221 43.9145 13.9968Z" fill="black"/>
<path d="M49.9626 14.1747C49.9626 16.2355 51.3262 17.6998 53.3983 17.6998C55.4704 17.6998 56.834 16.2355 56.834 14.1747C56.834 12.1139 55.4704 10.6497 53.3983 10.6497C51.3262 10.6497 49.9626 12.1139 49.9626 14.1747ZM51.6069 14.1747C51.6069 12.9681 52.3155 12.1275 53.3983 12.1275C54.4811 12.1275 55.1897 12.9681 55.1897 14.1747C55.1897 15.3678 54.4811 16.222 53.3983 16.222C52.3155 16.222 51.6069 15.3678 51.6069 14.1747Z" fill="black"/>
<path d="M58.5985 9.47249C59.1332 9.47249 59.5744 9.03863 59.5744 8.48276C59.5744 7.94044 59.1332 7.50659 58.5985 7.50659C58.0504 7.50659 57.636 7.94044 57.636 8.48276C57.636 9.03863 58.0504 9.47249 58.5985 9.47249ZM57.783 17.5394H59.414V10.8418H57.783V17.5394Z" fill="black"/>
<path d="M60.8428 20.6439H62.4337V16.6172C62.8481 17.3087 63.7438 17.7154 64.7331 17.7154C66.6848 17.7154 67.8479 16.1969 67.8211 14.109C67.781 12.0075 66.5913 10.6382 64.7197 10.6382C63.7171 10.6382 62.808 11.0856 62.407 11.8584L62.3134 10.8416H60.8428V20.6439ZM62.5006 14.1904C62.5006 12.9837 63.2224 12.1431 64.3587 12.1431C65.4951 12.1431 66.1768 12.9973 66.1768 14.1904C66.1768 15.3834 65.4951 16.224 64.3587 16.224C63.2224 16.224 62.5006 15.397 62.5006 14.1904Z" fill="black"/>
<path d="M68.2368 15.5326C68.2903 16.8613 69.3063 17.7154 70.8837 17.7154C72.4345 17.7154 73.4906 16.8748 73.4906 15.5733C73.4906 14.6106 72.9024 13.9599 71.8195 13.6887L70.6565 13.404C70.1619 13.2684 69.8276 13.0922 69.8276 12.6583C69.8276 12.1973 70.1886 11.872 70.7768 11.872C71.3917 11.872 71.7928 12.2245 71.7928 12.8074H73.2767C73.2232 11.4788 72.2473 10.6382 70.8169 10.6382C69.3999 10.6382 68.3438 11.4788 68.3438 12.7532C68.3438 13.6209 68.8384 14.3395 70.1084 14.6784L71.2581 14.9767C71.6858 15.0987 71.9532 15.3021 71.9532 15.6817C71.9532 16.2105 71.4586 16.4545 70.857 16.4545C70.1351 16.4545 69.7207 16.1156 69.7207 15.5326H68.2368Z" fill="black"/>
<path d="M76.8728 17.7135C77.7685 17.7135 78.624 17.2932 79.0117 16.6695L79.1187 17.5372H80.6426V10.8396H79.0117V14.3511C79.0117 15.5577 78.5572 16.2356 77.4877 16.2356C76.6589 16.2356 76.0841 15.8289 76.0841 14.446V10.8396H74.4531V15.029C74.4531 16.6288 75.3087 17.7135 76.8728 17.7135Z" fill="black"/>
<path d="M83.7139 17.5392V13.6887C83.7139 12.6041 84.3423 12.0889 85.1176 12.0889C85.893 12.0889 86.401 12.5905 86.401 13.5396V17.5392H87.9918V13.7023C87.9918 12.6041 88.6067 12.0889 89.3821 12.0889C90.1708 12.0889 90.6788 12.5905 90.6788 13.5396V17.5392H92.2563V13.16C92.2563 11.6144 91.4141 10.6382 89.8099 10.6382C88.8073 10.6382 88.0185 11.1263 87.6977 11.9126C87.3368 11.1263 86.6149 10.6382 85.5187 10.6382C84.7433 10.6382 84.0482 11.0042 83.6605 11.6008L83.5803 10.8416H82.083V17.5392H83.7139Z" fill="black"/>
<path d="M79.8024 23.5202C80.0453 23.5202 80.2563 23.3127 80.2563 23.0663C80.2563 22.8135 80.0453 22.606 79.8024 22.606C79.553 22.606 79.342 22.8135 79.342 23.0663C79.342 23.3127 79.553 23.5202 79.8024 23.5202Z" fill="black"/>
<path d="M80.7256 21.8503C80.7256 22.8424 81.3266 23.5103 82.2025 23.5103C82.9569 23.5103 83.5323 23.0499 83.6538 22.3626H83.0784C82.9697 22.7451 82.6372 22.9721 82.2409 22.9721C81.6782 22.9721 81.3202 22.5312 81.3202 21.8438C81.3202 21.1435 81.6974 20.7156 82.2536 20.7156C82.6373 20.7156 82.9697 20.9231 83.072 21.3316H83.6474C83.5451 20.6378 83.0081 20.1709 82.26 20.1709C81.3522 20.1709 80.7256 20.8517 80.7256 21.8503Z" fill="black"/>
<path d="M83.8801 21.8432C83.8801 22.7964 84.5195 23.5096 85.4785 23.5096C86.4375 23.5096 87.0769 22.7964 87.0769 21.8432C87.0769 20.89 86.4375 20.1768 85.4785 20.1768C84.5195 20.1768 83.8801 20.89 83.8801 21.8432ZM84.4875 21.8432C84.4875 21.1948 84.8775 20.7214 85.4785 20.7214C86.0795 20.7214 86.4695 21.1948 86.4695 21.8432C86.4695 22.4916 86.0795 22.965 85.4785 22.965C84.8775 22.965 84.4875 22.4916 84.4875 21.8432Z" fill="black"/>
<path d="M88.1923 23.4383V21.532C88.1923 21.0327 88.4992 20.7085 88.9467 20.7085C89.3751 20.7085 89.6436 20.9873 89.6436 21.4866V23.4383H90.2318V21.5384C90.2318 21.0327 90.5323 20.7085 90.9863 20.7085C91.4082 20.7085 91.6768 20.9873 91.6768 21.4866V23.4383H92.2586V21.3569C92.2586 20.6242 91.8366 20.1768 91.1205 20.1768C90.6346 20.1768 90.2574 20.4167 90.104 20.8057C89.9441 20.4167 89.5925 20.1768 89.081 20.1768C88.691 20.1768 88.3457 20.3583 88.1731 20.6696L88.1284 20.2675H87.5913V23.4383H88.1923Z" fill="black"/>
<path fill-rule="evenodd" clip-rule="evenodd" d="M5.10449 14.2565L5.10561 14.1384L5.10793 14.0202L5.11144 13.902L5.11614 13.7838L5.12205 13.6656L5.12914 13.5474L5.13744 13.4293L5.14693 13.3112L5.15763 13.1931L5.16952 13.075L5.18261 12.9571L5.19689 12.8392L5.21237 12.7215L5.22906 12.6038L5.24693 12.4863L5.266 12.3689L5.28627 12.2516L5.30772 12.1345L5.33037 12.0176L5.35421 11.9008L5.37925 11.7842L5.40546 11.6678L5.43287 11.5517L5.46145 11.4358L5.49123 11.3201L5.52218 11.2046L5.55432 11.0895L5.58763 10.9746L5.62211 10.86L5.65777 10.7457L5.69459 10.6317L5.73259 10.518L5.77174 10.4046L5.81206 10.2916L5.85354 10.179L5.89616 10.0667L5.93995 9.95478L5.98488 9.84325L6.03095 9.73219L6.07816 9.62149L6.12652 9.5112L6.176 9.40138L6.22662 9.29203L6.27836 9.1831L6.33122 9.07463L6.3852 8.9667L6.44029 8.85924L6.49649 8.75225L6.55378 8.64585L6.61218 8.53992L6.67168 8.43452L6.73225 8.32972L6.79391 8.22544L6.85665 8.12175L6.92047 8.01865L6.98534 7.91614L7.05128 7.81428L7.11828 7.71295L7.18633 7.61233L7.25542 7.51229L7.32554 7.41291L7.3967 7.31423L7.46888 7.21614L7.54208 7.11882L7.6163 7.02215L7.69151 6.92614L7.76773 6.83088L7.84494 6.73635L7.92313 6.64254L8.00231 6.54946L8.08246 6.45715L8.16356 6.3656L8.24562 6.27481L8.32864 6.18481L8.41259 6.0956L8.49748 6.00719L8.5833 5.91959L8.67003 5.83281L8.75767 5.74686L8.84622 5.66174L8.93566 5.57748L9.02598 5.49407L9.11718 5.41153L9.20925 5.32987L9.30219 5.24908L9.39597 5.16919L9.49059 5.09021L9.58605 5.01214L9.68234 4.93498L9.77944 4.85875L9.87732 4.78346L9.97608 4.70911L10.0756 4.63572L10.1758 4.56329L10.2769 4.49183L10.3787 4.42135L10.4812 4.35184L10.5845 4.28334L10.6885 4.21583L10.7933 4.14934L10.8988 4.08386L11.005 4.0194L11.1118 3.95598L11.2193 3.8936L11.3276 3.83226L11.4364 3.77197L11.5459 3.71274L11.6561 3.65458L11.7668 3.59749L11.8783 3.54149L11.9903 3.48657L12.1029 3.43273L12.2161 3.38001L12.3299 3.32839L12.4442 3.27787L12.5591 3.22848L12.6746 3.18022L12.7905 3.13308L12.907 3.08707L13.024 3.04221L13.1415 2.99849L13.2594 2.95593L13.3779 2.91452L13.4968 2.87427L13.6161 2.83519L13.7359 2.79728L13.8562 2.76055L13.9769 2.72501L14.0979 2.69065L14.2193 2.65747L14.3412 2.62549L14.4633 2.59472L14.5859 2.56515L14.7088 2.53678L14.832 2.50962L14.9555 2.48368L15.0794 2.45896L15.2035 2.43546L15.328 2.41319L15.4527 2.39214L15.5777 2.37233L15.7029 2.35375L15.8283 2.33641L15.954 2.32032L16.0799 2.30546L16.2059 2.29184L16.3322 2.27949L16.4586 2.26838L16.5852 2.25851L16.7119 2.24991L17.3933 2.21045L17.4322 5.54019L17.4545 5.53993L17.5486 5.5398L17.6427 5.5406L17.7368 5.54234L17.831 5.54502L17.9252 5.54864L18.0194 5.55319L18.1136 5.55869L18.2078 5.56513L18.302 5.57251L18.3962 5.58083L18.4903 5.5901L18.5844 5.60031L18.6784 5.61145L18.7724 5.62354L18.8662 5.63658L18.96 5.65055L19.0537 5.66547L19.1474 5.68132L19.2408 5.69812L19.3342 5.71585L19.4275 5.73453L19.5205 5.75415L19.6135 5.7747L19.7063 5.79618L19.7989 5.8186L19.8913 5.84195L19.9836 5.86625L20.0756 5.89146L20.1674 5.91761L20.2591 5.94469L20.3505 5.97269L20.4416 6.00161L20.5325 6.03147L20.6232 6.06224L20.7136 6.09392L20.8036 6.12652L20.8935 6.16003L20.983 6.19447L21.0722 6.2298L21.1612 6.26605L21.2497 6.30319L21.338 6.34124L21.4259 6.38019L21.5135 6.42003L21.6007 6.46076L21.6875 6.50238L21.774 6.54488L21.8601 6.58828L21.9458 6.63254L22.031 6.67769L22.1159 6.7237L22.2003 6.77059L22.2843 6.81834L22.3679 6.86694L22.451 6.91641L22.5337 6.96674L22.6159 7.0179L22.6976 7.06989L22.7788 7.12277L22.8595 7.17641L22.9397 7.23094L23.0195 7.28629L23.0986 7.34241L23.1773 7.39941L23.2554 7.45718L23.333 7.51577L23.4101 7.57519L23.4865 7.63538L23.5624 7.69639L23.6377 7.7581L23.7124 7.82065L23.7865 7.88402L23.86 7.94809L23.933 8.01293L24.0053 8.07854L24.0769 8.14492L24.1479 8.21206L24.2183 8.27991L24.2881 8.34846L24.3571 8.41778L24.4255 8.48781L24.4932 8.55861L24.5603 8.63005L24.6266 8.7022L24.6923 8.77506L24.7572 8.84863L24.8215 8.92284L24.885 8.99777L24.9478 9.07334L25.0098 9.14956L25.0712 9.22648L25.1317 9.304L25.1915 9.38216L25.2506 9.46098L25.3089 9.54044L25.3664 9.62049L25.4231 9.70119L25.479 9.78247L25.5342 9.86429L25.5885 9.94676L25.642 10.0298L25.6948 10.1135L25.7466 10.1976L25.7977 10.2823L25.8479 10.3676L25.8973 10.4535L25.9458 10.5398L25.9936 10.6267L26.0404 10.7141L26.0864 10.802L26.1315 10.8904L26.1757 10.9793L26.2191 11.0687L26.2616 11.1586L26.3032 11.2489L26.3439 11.3397L26.3837 11.4309L26.4226 11.5226L26.4605 11.6147L26.4976 11.7072L26.5338 11.8002L26.569 11.8935L26.6033 11.9873L26.6366 12.0814L26.6691 12.1759L26.7006 12.2708L26.7311 12.366L26.7607 12.4616L26.7894 12.5575L26.8171 12.6537L26.8438 12.7503L26.8695 12.8472L26.8944 12.9444L26.9181 13.0419L26.941 13.1396L26.9629 13.2377L26.9838 13.336L27.0037 13.4345L27.0226 13.5334L27.0405 13.6324L27.0574 13.7317L27.0734 13.8311L27.0883 13.9308L27.1023 14.0307L27.1152 14.1307L27.1271 14.231L27.138 14.3314L27.1479 14.4319L27.1568 14.5326L27.1647 14.6335L27.1715 14.7345L27.1774 14.8356L27.1822 14.9367L27.186 15.038L27.1888 15.1394L27.1906 15.2408L27.1912 15.3423L27.191 15.4439L27.1896 15.5455L27.1872 15.6472L27.1839 15.7488L27.1794 15.8505L27.174 15.9522L27.1675 16.0539L27.16 16.1556L27.1515 16.2572L27.1419 16.3588L27.1313 16.4604L27.1196 16.5618L27.107 16.6633L27.0933 16.7646L27.0785 16.8659L27.0628 16.967L27.046 17.0681L27.0282 17.169L27.0093 17.2698L26.9894 17.3705L26.9685 17.471L26.9466 17.5713L26.9236 17.6715L26.8996 17.7715L26.8746 17.8713L26.8486 17.9709L26.8215 18.0702L26.7935 18.1694L26.7644 18.2683L26.7343 18.367L26.7031 18.4654L26.671 18.5636L26.6379 18.6615L26.6037 18.7591L26.5686 18.8564L26.5325 18.9534L26.4953 19.0501L26.4572 19.1464L26.4181 19.2425L26.378 19.3381L26.3369 19.4335L26.2948 19.5284L26.2517 19.623L26.2077 19.7172L26.1627 19.811L26.1167 19.9044L26.0698 19.9974L26.0218 20.09L25.973 20.1821L25.9231 20.2738L25.8724 20.365L25.8207 20.4558L25.768 20.5461L25.7144 20.6359L25.6599 20.7252L25.6044 20.814L25.548 20.9023L25.4907 20.9901L25.4325 21.0773L25.3734 21.164L25.3134 21.2502L25.2524 21.3358L25.1906 21.4209L25.1279 21.5053L25.0643 21.5892L24.9998 21.6725L24.9345 21.7552L24.8683 21.8372L24.8012 21.9186L24.7333 21.9994L24.6645 22.0796L24.5949 22.1591L24.5244 22.238L24.4532 22.3162L24.3811 22.3937L24.3082 22.4706L24.2345 22.5467L24.1599 22.6222L24.0846 22.6969L24.0085 22.7709L23.9316 22.8443L23.8539 22.9168L23.7755 22.9887L23.6963 23.0597L23.6163 23.13L23.5356 23.1997L23.4542 23.2685L23.372 23.3364L23.2891 23.4037L23.2055 23.4701L23.1211 23.5357L23.0361 23.6005L22.9504 23.6645L22.864 23.7277L22.7769 23.79L22.6891 23.8516L22.6007 23.9122L22.5116 23.972L22.4219 24.0309L22.3316 24.0891L22.2406 24.1462L22.149 24.2026L22.0568 24.258L21.964 24.3126L21.8706 24.3662L21.7766 24.4189L21.6821 24.4708L21.5869 24.5217L21.4912 24.5717L21.395 24.6208L21.2982 24.6689L21.2009 24.716L21.1031 24.7623L21.0047 24.8076L20.9059 24.8519L20.8066 24.8952L20.7068 24.9376L20.6065 24.979L20.5058 25.0195L20.4046 25.0589L20.303 25.0974L20.2009 25.1348L20.0984 25.1713L19.9955 25.2068L19.8922 25.2412L19.7885 25.2747L19.6844 25.3071L19.5799 25.3385L19.4751 25.3689L19.3699 25.3982L19.2644 25.4266L19.1585 25.4538L19.0524 25.48L18.9459 25.5053L18.8391 25.5294L18.732 25.5525L18.6247 25.5745L18.517 25.5955L18.4091 25.6154L18.301 25.6342L18.1926 25.652L18.0841 25.6688L17.9752 25.6844L17.8662 25.699L17.757 25.7125L17.6476 25.7248L17.538 25.7362L17.4283 25.7464L17.3184 25.7556L17.2084 25.7636L17.0982 25.7706L16.9879 25.7765L16.8775 25.7813L16.7671 25.7849L16.6565 25.7875L16.5459 25.789L16.4352 25.7894L16.3244 25.7887L16.2137 25.7869L16.1028 25.784L15.992 25.7799L15.8811 25.7748L15.7703 25.7686L15.6595 25.7612L15.5487 25.7528L15.438 25.7432L15.3272 25.7326L15.2166 25.7208L15.106 25.708L14.9955 25.694L14.8851 25.6789L14.7748 25.6627L14.6646 25.6454L14.5546 25.6271L14.4447 25.6076L14.3349 25.587L14.2253 25.5653L14.1159 25.5425L14.0067 25.5186L13.8976 25.4936L13.7888 25.4675L13.6801 25.4404L13.5717 25.4121L13.4636 25.3827L13.3557 25.3523L13.2481 25.3208L13.1406 25.2882L13.0336 25.2544L12.9268 25.2197L12.8203 25.1838L12.7141 25.1469L12.6083 25.1088L12.5028 25.0698L12.3977 25.0297L12.2929 24.9885L12.1885 24.9462L12.0844 24.9029L11.9808 24.8585L11.8776 24.8131L11.7748 24.7667L11.6723 24.7191L11.5704 24.6706L11.4689 24.621L11.3679 24.5704L11.2673 24.5187L11.1672 24.4661L11.0676 24.4124L10.9685 24.3577L10.8699 24.302L10.7718 24.2453L10.6743 24.1876L10.5773 24.1289L10.4809 24.0693L10.385 24.0085L10.2896 23.9469L10.195 23.8843L10.1008 23.8207L10.0073 23.7561L9.91441 23.6906L9.82211 23.6242L9.73045 23.5568L9.63944 23.4884L9.54909 23.4191L9.4594 23.3489L9.37038 23.2778L9.28203 23.2057L9.19439 23.1328L9.10744 23.059L9.02121 22.9842L8.93569 22.9086L8.85091 22.832L8.76686 22.7546L8.68356 22.6764L8.60102 22.5972L8.51924 22.5173L8.43824 22.4364L8.35802 22.3548L8.2786 22.2723L8.19997 22.1889L8.12216 22.1048L8.04516 22.0199L7.969 21.9341L7.89367 21.8476L7.81918 21.7603L7.74554 21.6722L7.67276 21.5833L7.60086 21.4937L7.52983 21.4033L7.45968 21.3122L7.39043 21.2203L7.32208 21.1277L7.25463 21.0344L7.1881 20.9404L7.1225 20.8457L7.05782 20.7503L6.99408 20.6542L6.93129 20.5574L6.86946 20.46L6.80857 20.3619L6.74866 20.2632L6.68972 20.1639L6.63176 20.0638L6.5748 19.9633L6.51882 19.8621L6.46384 19.7603L6.40987 19.6578L6.35691 19.5548L6.30498 19.4513L6.25406 19.3472L6.20419 19.2426L6.15535 19.1374L6.10754 19.0317L6.0608 18.9254L6.0151 18.8187L5.97047 18.7114L5.9269 18.6037L5.8844 18.4955L5.84299 18.3868L5.80265 18.2777L5.7634 18.1681L5.72525 18.0581L5.68818 17.9477L5.65222 17.8368L5.61737 17.7256L5.58362 17.6139L5.551 17.5019L5.51949 17.3895L5.4891 17.2767L5.45984 17.1637L5.43172 17.0503L5.40473 16.9365L5.37888 16.8224L5.35417 16.708L5.33061 16.5934L5.3082 16.4784L5.28693 16.3632L5.26683 16.2478L5.24789 16.132L5.2301 16.0161L5.21348 15.8999L5.19804 15.7835L5.18376 15.6669L5.17065 15.5501L5.15872 15.4332L5.14797 15.3161L5.1384 15.1988L5.13 15.0814L5.1228 14.9638L5.11677 14.8462L5.11194 14.7284L5.10829 14.6106L5.10583 14.4926L5.10457 14.3746L5.10449 14.2565ZM16.3676 5.60994L16.3411 3.34035L16.316 3.34281L16.2004 3.35528L16.0852 3.36889L15.97 3.38365L15.8552 3.39951L15.7406 3.41652L15.6261 3.43467L15.5119 3.45393L15.3979 3.47435L15.2845 3.49582L15.1708 3.5185L15.058 3.54219L14.945 3.56709L14.8326 3.59304L14.7203 3.62014L14.6085 3.64828L14.4971 3.67755L14.3859 3.70792L14.275 3.73938L14.1647 3.77189L14.0546 3.80553L13.945 3.84021L13.8357 3.87599L13.727 3.91276L13.6185 3.95069L13.5106 3.98964L13.4032 4.02962L13.2961 4.07069L13.1895 4.11276L13.0836 4.15584L12.9779 4.20003L12.8728 4.24523L12.7681 4.29146L12.6641 4.33866L12.5606 4.38688L12.4576 4.43608L12.3551 4.48636L12.2532 4.53756L12.1519 4.58976L12.0512 4.64294L11.951 4.69711L11.8516 4.7522L11.7525 4.80831L11.6541 4.8654L11.5566 4.9233L11.4594 4.98233L11.3631 5.04214L11.2674 5.10288L11.1722 5.16463L11.0777 5.22727L10.984 5.29083L10.8911 5.35513L10.7986 5.42058L10.707 5.48672L10.6161 5.55378L10.5258 5.62176L10.4364 5.69054L10.3477 5.76015L10.2596 5.83074L10.1725 5.902L10.086 5.9742L10.0003 6.04719L9.91539 6.12102L9.83135 6.19556L9.74793 6.27104L9.66547 6.34719L9.5837 6.42422L9.50289 6.50191L9.42281 6.58043L9.34363 6.65966L9.26525 6.73968L9.18763 6.82052L9.11103 6.90191L9.03529 6.98401L8.96022 7.06706L8.8862 7.15065L8.81308 7.23483L8.74071 7.31989L8.66939 7.40548L8.59887 7.49184L8.52929 7.57879L8.46062 7.66644L8.39285 7.75468L8.32608 7.84352L8.26018 7.933L8.19519 8.02319L8.13124 8.11379L8.06815 8.20516L8.00606 8.297L7.94493 8.38943L7.88472 8.48245L7.82553 8.576L7.76731 8.67002L7.71006 8.76463L7.65384 8.85971L7.59854 8.95538L7.54424 9.05159L7.491 9.14814L7.43872 9.24523L7.38744 9.34284L7.3372 9.44087L7.28794 9.53937L7.23975 9.63823L7.19256 9.73756L7.14641 9.8373L7.10126 9.93751L7.05719 10.038L7.01411 10.139L6.97209 10.2403L6.93114 10.3419L6.89122 10.444L6.85234 10.5464L6.81453 10.6491L6.77777 10.7521L6.74209 10.8554L6.70744 10.9591L6.67387 11.063L6.64138 11.1672L6.60995 11.2716L6.57958 11.3764L6.5503 11.4813L6.5221 11.5866L6.49496 11.692L6.4689 11.7976L6.44393 11.9035L6.42004 12.0095L6.39724 12.1157L6.37552 12.2221L6.35488 12.3286L6.33533 12.4353L6.31687 12.5422L6.2995 12.6491L6.28322 12.7562L6.26802 12.8634L6.25392 12.9706L6.24091 13.078L6.22899 13.1854L6.21816 13.2929L6.20842 13.4004L6.19977 13.5079L6.19222 13.6156L6.18576 13.7232L6.18038 13.8308L6.1761 13.9384L6.1729 14.046L6.17079 14.1536L6.16977 14.2611L6.16984 14.3686L6.17099 14.476L6.17323 14.5834L6.17655 14.6907L6.18095 14.7979L6.18644 14.905L6.19299 15.0119L6.20063 15.1188L6.20934 15.2255L6.21913 15.3321L6.22998 15.4385L6.24191 15.5448L6.2549 15.6509L6.26895 15.7567L6.28407 15.8624L6.30025 15.9679L6.31748 16.0732L6.33577 16.1782L6.35511 16.283L6.37549 16.3875L6.39692 16.4919L6.41939 16.5958L6.4429 16.6996L6.46745 16.803L6.49302 16.9062L6.51963 17.0091L6.54725 17.1115L6.57591 17.2137L6.60557 17.3156L6.63625 17.4171L6.66794 17.5183L6.70062 17.619L6.73431 17.7194L6.769 17.8194L6.80467 17.919L6.84133 18.0181L6.87898 18.1169L6.91759 18.2152L6.95718 18.3132L6.99775 18.4106L7.03926 18.5076L7.08175 18.6041L7.12517 18.7002L7.16955 18.7958L7.21486 18.8908L7.26112 18.9854L7.3083 19.0795L7.35641 19.173L7.40543 19.266L7.45537 19.3585L7.50621 19.4504L7.55795 19.5418L7.61058 19.6326L7.66411 19.7228L7.7185 19.8125L7.7738 19.9016L7.82994 19.99L7.88696 20.0779L7.94483 20.1651L8.00354 20.2517L8.06309 20.3377L8.1235 20.4231L8.18472 20.5078L8.24678 20.5918L8.30962 20.6752L8.3733 20.7579L8.43775 20.8399L8.50301 20.9212L8.56907 21.0019L8.63587 21.0819L8.70347 21.1611L8.77182 21.2396L8.84094 21.3174L8.9108 21.3945L8.98137 21.4708L9.0527 21.5464L9.12475 21.6212L9.19753 21.6953L9.271 21.7686L9.34518 21.8412L9.42004 21.9129L9.49558 21.9839L9.57182 22.0541L9.64871 22.1235L9.72622 22.1921L9.80444 22.2599L9.88331 22.3268L9.96271 22.393L10.0429 22.4583L10.1235 22.5228L10.2048 22.5864L10.2867 22.6493L10.3693 22.7112L10.4523 22.7723L10.536 22.8325L10.6201 22.8919L10.7049 22.9504L10.7902 23.008L10.8761 23.0648L10.9624 23.1207L11.0493 23.1756L11.1367 23.2297L11.2246 23.2829L11.313 23.3352L11.4018 23.3865L11.4911 23.437L11.5809 23.4865L11.6711 23.5351L11.7617 23.5828L11.8528 23.6296L11.9444 23.6754L12.0363 23.7203L12.1286 23.7643L12.2213 23.8074L12.3144 23.8494L12.4079 23.8905L12.5017 23.9307L12.5959 23.9699L12.6904 24.0082L12.7853 24.0454L12.8805 24.0818L12.9759 24.1172L13.0717 24.1515L13.1678 24.185L13.2642 24.2174L13.3609 24.2489L13.4577 24.2794L13.5549 24.3089L13.6523 24.3375L13.7499 24.365L13.8478 24.3916L13.9459 24.4172L14.0442 24.4417L14.1426 24.4653L14.2413 24.488L14.3401 24.5095L14.439 24.5302L14.5382 24.5498L14.6374 24.5684L14.7368 24.586L14.8363 24.6027L14.9359 24.6183L15.0357 24.6329L15.1355 24.6465L15.2354 24.6592L15.3354 24.6708L15.4354 24.6814L15.5355 24.6911L15.6356 24.6997L15.7358 24.7074L15.8359 24.714L15.9361 24.7196L16.0363 24.7242L16.1364 24.7279L16.2366 24.7305L16.3367 24.7321L16.4367 24.7328L16.5368 24.7324L16.6367 24.7311L16.7366 24.7288L16.8364 24.7254L16.9361 24.7211L17.0358 24.7158L17.1352 24.7095L17.2346 24.7022L17.3339 24.694L17.433 24.6847L17.5319 24.6745L17.6307 24.6633L17.7293 24.6511L17.8277 24.638L17.926 24.6238L18.024 24.6087L18.1218 24.5927L18.2195 24.5757L18.3169 24.5577L18.414 24.5388L18.5109 24.5189L18.6076 24.498L18.7039 24.4763L18.8 24.4535L18.8959 24.4298L18.9914 24.4053L19.0866 24.3797L19.1814 24.3532L19.2761 24.3258L19.3703 24.2974L19.4642 24.2682L19.5577 24.2381L19.6509 24.207L19.7438 24.175L19.8361 24.1421L19.9283 24.1083L20.0199 24.0736L20.1112 24.038L20.202 24.0016L20.2924 23.9643L20.3824 23.926L20.4719 23.8869L20.561 23.847L20.6496 23.8062L20.7378 23.7645L20.8256 23.7219L20.9127 23.6786L20.9995 23.6343L21.0857 23.5893L21.1714 23.5434L21.2567 23.4967L21.3413 23.4492L21.4255 23.4009L21.5091 23.3517L21.5923 23.3018L21.6747 23.2511L21.7567 23.1995L21.8381 23.1472L21.9188 23.0941L21.9991 23.0402L22.0788 22.9855L22.1577 22.9302L22.2361 22.874L22.314 22.8172L22.3912 22.7596L22.4678 22.7011L22.5436 22.6421L22.619 22.5822L22.6936 22.5218L22.7675 22.4606L22.8409 22.3986L22.9136 22.336L22.9855 22.2727L23.0568 22.2087L23.1273 22.1441L23.1973 22.0788L23.2665 22.0128L23.3349 21.9463L23.4027 21.8789L23.4698 21.811L23.5361 21.7425L23.6017 21.6734L23.6666 21.6037L23.7306 21.5335L23.7941 21.4624L23.8566 21.3909L23.9185 21.3188L23.9795 21.2461L24.0399 21.1729L24.0994 21.0991L24.1581 21.0248L24.2161 20.9499L24.2732 20.8745L24.3297 20.7986L24.3852 20.7222L24.44 20.6452L24.4941 20.5677L24.5471 20.4899L24.5994 20.4114L24.6509 20.3326L24.7015 20.2532L24.7515 20.1733L24.8004 20.0931L24.8485 20.0125L24.8959 19.9312L24.9423 19.8498L24.9879 19.7678L25.0327 19.6854L25.0766 19.6028L25.1196 19.5195L25.1618 19.4359L25.203 19.3523L25.2435 19.2679L25.2831 19.1833L25.3217 19.0984L25.3595 19.0132L25.3964 18.9276L25.4324 18.8417L25.4676 18.7554L25.5018 18.6689L25.5351 18.5823L25.5675 18.4951L25.599 18.4078L25.6297 18.3202L25.6595 18.2323L25.6883 18.1442L25.7161 18.0561L25.7432 17.9673L25.7693 17.8787L25.7944 17.7897L25.8187 17.7006L25.8421 17.6112L25.8645 17.5218L25.886 17.4321L25.9066 17.3422L25.9263 17.2522L25.9451 17.162L25.9629 17.0719L25.9798 16.9814L25.9958 16.8911L26.0108 16.8004L26.025 16.7097L26.0381 16.619L26.0505 16.5281L26.0618 16.4373L26.0723 16.3461L26.0817 16.2552L26.0903 16.1641L26.098 16.0732L26.1047 15.9819L26.1105 15.891L26.1154 15.7998L26.1193 15.7086L26.1224 15.6176L26.1245 15.5267L26.1257 15.4355L26.126 15.3445L26.1253 15.2536L26.1238 15.1628L26.1213 15.0719L26.1178 14.9815L26.1135 14.8906L26.1083 14.8002L26.1021 14.7098L26.0951 14.6196L26.0871 14.5293L26.0783 14.4394L26.0685 14.3495L26.0578 14.2598L26.0463 14.1702L26.0338 14.0809L26.0204 13.9916L26.0062 13.9026L25.9911 13.8139L25.975 13.7252L25.9581 13.6368L25.9403 13.5487L25.9216 13.4606L25.9021 13.3731L25.8816 13.2855L25.8603 13.1985L25.8381 13.1114L25.8151 13.0249L25.7912 12.9386L25.7664 12.8524L25.7408 12.7667L25.7144 12.6814L25.687 12.5961L25.659 12.5114L25.6299 12.4269L25.6001 12.3428L25.5694 12.2589L25.538 12.1756L25.5056 12.0924L25.4725 12.0097L25.4386 11.9276L25.4039 11.8457L25.3682 11.764L25.332 11.6831L25.2948 11.6022L25.2569 11.5221L25.2181 11.4423L25.1786 11.3628L25.1383 11.2839L25.0973 11.2054L25.0553 11.1272L25.0129 11.0498L24.9695 10.9726L24.9254 10.896L24.8805 10.8198L24.8351 10.7444L24.7886 10.6691L24.7417 10.5945L24.6938 10.5203L24.6453 10.4468L24.5962 10.3738L24.5462 10.3012L24.4956 10.2292L24.4444 10.1578L24.3923 10.087L24.3397 10.0166L24.2863 9.94694L24.2323 9.87773L24.1776 9.80918L24.1223 9.74121L24.0663 9.67378L24.0096 9.60699L23.9523 9.54079L23.8945 9.47524L23.836 9.41028L23.7767 9.34585L23.7171 9.28231L23.6566 9.21911L23.5957 9.15681L23.5341 9.09497L23.4721 9.0339L23.4092 8.9733L23.3461 8.91365L23.2821 8.85447L23.2177 8.79599L23.1529 8.73828L23.0874 8.68122L23.0212 8.62469L22.9547 8.56898L22.8876 8.51399L22.82 8.4597L22.7519 8.40605L22.6835 8.3533L22.6142 8.30095L22.5448 8.24961L22.4747 8.19891L22.4042 8.14887L22.3333 8.09964L22.2617 8.05101L22.1901 8.00338L22.1177 7.95628L22.045 7.91001L21.9718 7.86445L21.8983 7.81964L21.8243 7.77567L21.7501 7.73252L21.6752 7.6899L21.6003 7.64828L21.5247 7.60732L21.4489 7.56717L21.3727 7.52786L21.2961 7.48924L21.2192 7.4514L21.142 7.41444L21.0644 7.37819L20.9867 7.34282L20.9085 7.30816L20.8275 7.27326L20.7514 7.24137L20.6722 7.20907L20.5931 7.17777L20.5133 7.14706L20.4336 7.11735L20.3535 7.08834L20.2732 7.06023L20.1926 7.03282L20.1119 7.00635L20.0309 6.98065L19.9497 6.95577L19.8684 6.93178L19.7868 6.90853L19.7049 6.88608L19.6232 6.86455L19.5412 6.84384L19.4587 6.82388L19.3765 6.80485L19.294 6.78657L19.2114 6.76919L19.1285 6.75259L19.0457 6.73686L18.9627 6.72194L18.8798 6.7079L18.7964 6.69463L18.7133 6.68225L18.63 6.67068L18.5466 6.65995L18.4632 6.65006L18.3798 6.64102L18.2963 6.6328L18.2128 6.62542L18.1292 6.61887L18.0456 6.61315L17.9622 6.60828L17.8787 6.60424L17.795 6.60103L17.7117 6.59866L17.6282 6.59712L17.5448 6.59641L17.4613 6.59653L17.4445 6.59672L17.4709 8.84981L17.5182 8.84957L17.5792 8.84993L17.6402 8.85087L17.7012 8.85246L17.7623 8.85464L17.8234 8.85747L17.8845 8.86089L17.9456 8.8649L18.0068 8.86956L18.0679 8.8748L18.1291 8.8807L18.1901 8.88718L18.2513 8.89431L18.3124 8.90204L18.3734 8.91035L18.4344 8.91937L18.4954 8.92892L18.5563 8.93911L18.6172 8.94996L18.678 8.9614L18.7388 8.97348L18.7994 8.98615L18.8601 8.99942L18.9206 9.01333L18.981 9.02789L19.0413 9.04304L19.1015 9.05878L19.1616 9.07516L19.2215 9.09214L19.2814 9.10977L19.3412 9.12798L19.4007 9.14679L19.4601 9.16624L19.5194 9.18628L19.5786 9.20697L19.6375 9.22825L19.6963 9.25012L19.7549 9.27258L19.8134 9.29569L19.8716 9.31938L19.9297 9.34367L19.9875 9.3686L20.0452 9.39407L20.1026 9.42018L20.1598 9.44683L20.2168 9.47412L20.2736 9.502L20.3301 9.53047L20.3863 9.55954L20.4424 9.58919L20.4981 9.61937L20.5536 9.6502L20.6088 9.68156L20.6637 9.71351L20.7184 9.74604L20.7728 9.77917L20.8269 9.81283L20.8807 9.84708L20.9341 9.88192L20.9873 9.91729L21.0401 9.95319L21.0927 9.98967L21.1449 10.0268L21.1967 10.0643L21.2482 10.1024L21.2994 10.1412L21.3502 10.1804L21.4006 10.2202L21.4507 10.2605L21.5004 10.3013L21.5498 10.3427L21.5987 10.3846L21.6473 10.4269L21.6955 10.4699L21.7433 10.5133L21.7906 10.5573L21.8375 10.6017L21.8841 10.6467L21.9302 10.6921L21.9759 10.7381L22.0211 10.7846L22.066 10.8316L22.1104 10.879L22.1542 10.9269L22.1977 10.9753L22.2407 11.0241L22.2833 11.0734L22.3254 11.1232L22.367 11.1735L22.4081 11.2241L22.4488 11.2753L22.4889 11.3269L22.5286 11.3789L22.5677 11.4314L22.6064 11.4843L22.6445 11.5376L22.6822 11.5914L22.7193 11.6456L22.7559 11.7002L22.7919 11.7551L22.8274 11.8105L22.8624 11.8663L22.8969 11.9225L22.9308 11.979L22.9642 12.036L22.997 12.0933L23.0292 12.151L23.0609 12.209L23.092 12.2675L23.1226 12.3262L23.1526 12.3854L23.1819 12.4448L23.2108 12.5047L23.239 12.5648L23.2666 12.6252L23.2936 12.686L23.3201 12.7471L23.3459 12.8085L23.3712 12.8703L23.3958 12.9323L23.4198 12.9946L23.4432 13.0571L23.466 13.12L23.4881 13.1831L23.5097 13.2466L23.5306 13.3102L23.5508 13.3742L23.5705 13.4383L23.5895 13.5028L23.6078 13.5674L23.6256 13.6323L23.6426 13.6975L23.6591 13.7628L23.6748 13.8283L23.6899 13.8941L23.7044 13.96L23.7182 14.0262L23.7313 14.0925L23.7437 14.159L23.7555 14.2257L23.7667 14.2925L23.7772 14.3595L23.7869 14.4267L23.796 14.494L23.8045 14.5614L23.8123 14.629L23.8193 14.6967L23.8257 14.7645L23.8314 14.8325L23.8364 14.9005L23.8408 14.9687L23.8444 15.0369L23.8474 15.1052L23.8496 15.1736L23.8512 15.2421L23.8521 15.3106L23.8523 15.3792L23.8517 15.4478L23.8505 15.5165L23.8486 15.5853L23.846 15.654L23.8427 15.7228L23.8387 15.7916L23.8339 15.8604L23.8285 15.9292L23.8224 15.998L23.8156 16.0668L23.808 16.1355L23.7998 16.2043L23.7909 16.273L23.7812 16.3417L23.7709 16.4103L23.7598 16.4788L23.7481 16.5473L23.7356 16.6158L23.7225 16.6841L23.7086 16.7524L23.694 16.8206L23.6788 16.8887L23.6628 16.9567L23.6461 17.0245L23.6287 17.0923L23.6106 17.1599L23.5919 17.2274L23.5724 17.2947L23.5522 17.3619L23.5314 17.429L23.5097 17.4959L23.4875 17.5626L23.4645 17.6291L23.4409 17.6955L23.4166 17.7616L23.3915 17.8276L23.3658 17.8934L23.3394 17.9589L23.3124 18.0243L23.2846 18.0894L23.2561 18.1543L23.227 18.219L23.1972 18.2833L23.1668 18.3475L23.1356 18.4114L23.1037 18.475L23.0713 18.5383L23.0381 18.6014L23.0043 18.6641L22.9698 18.7266L22.9347 18.7888L22.8989 18.8506L22.8625 18.9122L22.8254 18.9734L22.7877 19.0344L22.7493 19.0949L22.7103 19.1552L22.6706 19.215L22.6303 19.2745L22.5894 19.3337L22.5478 19.3925L22.5056 19.4509L22.4628 19.509L22.4194 19.5666L22.3753 19.6239L22.3307 19.6807L22.2854 19.7372L22.2396 19.7932L22.1931 19.8488L22.1461 19.904L22.0984 19.9587L22.0501 20.013L22.0013 20.0669L21.9519 20.1203L21.902 20.1733L21.8514 20.2258L21.8003 20.2778L21.7486 20.3293L21.6964 20.3804L21.6436 20.431L21.5903 20.4811L21.5364 20.5307L21.4819 20.5797L21.427 20.6283L21.3715 20.6764L21.3155 20.7239L21.259 20.771L21.202 20.8174L21.1444 20.8633L21.0863 20.9087L21.0278 20.9536L20.9687 20.9979L20.9091 21.0416L20.8492 21.0848L20.7886 21.1274L20.7277 21.1694L20.6662 21.2108L20.6043 21.2517L20.5419 21.2919L20.4791 21.3316L20.4158 21.3706L20.3522 21.4091L20.288 21.447L20.2235 21.4842L20.1585 21.5208L20.0931 21.5568L20.0274 21.5922L19.9611 21.6269L19.8945 21.661L19.8276 21.6944L19.7602 21.7272L19.6924 21.7593L19.6243 21.7908L19.5559 21.8216L19.487 21.8518L19.4178 21.8813L19.3483 21.9101L19.2784 21.9383L19.2082 21.9658L19.1377 21.9926L19.0669 22.0187L18.9957 22.0441L18.9242 22.0688L18.8525 22.0929L18.7804 22.1161L18.7081 22.1388L18.6355 22.1607L18.5627 22.1819L18.4895 22.2024L18.4161 22.2221L18.3425 22.2412L18.2686 22.2595L18.1945 22.2771L18.1201 22.294L18.0456 22.3101L17.9708 22.3255L17.8958 22.3402L17.8207 22.3542L17.7453 22.3674L17.6697 22.3798L17.594 22.3915L17.5181 22.4025L17.442 22.4127L17.3658 22.4221L17.2895 22.4308L17.213 22.4388L17.1364 22.446L17.0597 22.4524L16.9829 22.458L16.9059 22.4629L16.8288 22.4671L16.7517 22.4704L16.6745 22.473L16.5972 22.4748L16.5198 22.4759L16.4423 22.4762L16.3648 22.4757L16.2874 22.4744L16.2098 22.4724L16.1322 22.4696L16.0546 22.466L15.9769 22.4616L15.8993 22.4565L15.8217 22.4506L15.7441 22.4439L15.6665 22.4364L15.5889 22.4282L15.5114 22.4191L15.4339 22.4094L15.3564 22.3987L15.279 22.3874L15.2017 22.3752L15.1245 22.3623L15.0473 22.3486L14.9702 22.3341L14.8933 22.3189L14.8164 22.3028L14.7397 22.286L14.6631 22.2684L14.5866 22.25L14.5102 22.2309L14.434 22.2109L14.3579 22.1902L14.282 22.1688L14.2063 22.1466L14.1308 22.1236L14.0554 22.0998L13.9802 22.0752L13.9053 22.05L13.8305 22.0239L13.756 21.9971L13.6817 21.9695L13.6076 21.9411L13.5338 21.912L13.4602 21.8822L13.3869 21.8515L13.3138 21.8202L13.241 21.7881L13.1685 21.7552L13.0963 21.7216L13.0244 21.6873L12.9528 21.6522L12.8815 21.6164L12.8104 21.5798L12.7398 21.5426L12.6695 21.5046L12.5995 21.4658L12.5299 21.4264L12.4606 21.3862L12.3917 21.3454L12.3231 21.3037L12.255 21.2614L12.1872 21.2184L12.1198 21.1747L12.0529 21.1303L11.9863 21.0852L11.9202 21.0394L11.8544 20.9929L11.7892 20.9457L11.7243 20.8979L11.6599 20.8494L11.5959 20.8001L11.5324 20.7503L11.4694 20.6998L11.4069 20.6485L11.3448 20.5967L11.2832 20.5442L11.2221 20.4911L11.1616 20.4373L11.1015 20.3829L11.0419 20.3278L10.9829 20.2722L10.9244 20.2159L10.8663 20.1589L10.8089 20.1014L10.7521 20.0433L10.6958 19.9845L10.64 19.9252L10.5847 19.8652L10.5302 19.8048L10.4761 19.7436L10.4226 19.682L10.3698 19.6197L10.3175 19.5569L10.2659 19.4936L10.2148 19.4296L10.1644 19.3652L10.1146 19.3002L10.0654 19.2346L10.0169 19.1685L9.96893 19.102L9.92167 19.0349L9.87512 18.9672L9.82914 18.8991L9.78386 18.8305L9.73926 18.7614L9.69532 18.6918L9.65206 18.6217L9.60949 18.5511L9.56761 18.4801L9.52642 18.4087L9.48594 18.3367L9.44615 18.2644L9.40708 18.1915L9.36872 18.1183L9.33108 18.0446L9.29417 17.9705L9.25799 17.896L9.22254 17.8211L9.18783 17.7458L9.15386 17.67L9.12064 17.594L9.08817 17.5175L9.05646 17.4407L9.0255 17.3635L8.99532 17.286L8.9659 17.2081L8.93725 17.1299L8.90937 17.0513L8.88228 16.9724L8.85597 16.8932L8.83045 16.8137L8.80572 16.7339L8.78179 16.6539L8.75865 16.5734L8.73631 16.4928L8.71478 16.4119L8.69406 16.3306L8.67414 16.2492L8.65504 16.1675L8.63676 16.0856L8.61929 16.0034L8.60265 15.9211L8.58684 15.8385L8.57185 15.7557L8.55769 15.6727L8.54437 15.5895L8.53187 15.5061L8.52022 15.4226L8.50941 15.3389L8.49944 15.255L8.49032 15.171L8.48203 15.0869L8.4746 15.0026L8.46802 14.9182L8.46229 14.8337L8.45741 14.7491L8.45339 14.6644L8.45022 14.5796L8.44791 14.4947L8.44646 14.4098L8.44586 14.3247L8.44614 14.2397L8.44726 14.1545L8.44926 14.0694L8.45212 13.9842L8.45584 13.899L8.46044 13.8138L8.46589 13.7286L8.47221 13.6434L8.4794 13.5582L8.48745 13.4731L8.49638 13.3879L8.50617 13.3028L8.51683 13.2177L8.52835 13.1327L8.54074 13.0478L8.55401 12.963L8.56813 12.8782L8.58313 12.7936L8.59899 12.709L8.61572 12.6245L8.6333 12.5402L8.65176 12.456L8.67109 12.3719L8.69127 12.288L8.71231 12.2042L8.73421 12.1206L8.75697 12.0372L8.78059 11.9539L8.80508 11.8709L8.83041 11.788L8.8566 11.7053L8.88364 11.6229L8.91152 11.5406L8.94026 11.4586L8.96985 11.3769L9.00028 11.2954L9.03155 11.2141L9.06366 11.1331L9.09661 11.0524L9.1304 10.972L9.16501 10.8919L9.20047 10.812L9.23674 10.7325L9.27385 10.6533L9.31178 10.5744L9.35053 10.4959L9.39009 10.4177L9.43047 10.3399L9.47165 10.2624L9.51365 10.1853L9.55646 10.1085L9.60005 10.0321L9.64445 9.95619L9.68965 9.88062L9.73563 9.80546L9.78241 9.73072L9.82995 9.65639L9.87831 9.58252L9.92737 9.50908L9.9773 9.4361L10.0279 9.36354L10.0793 9.29144L10.1315 9.21988L10.1844 9.14873L10.2381 9.07811L10.2925 9.00796L10.3477 8.93835L10.4035 8.86926L10.4601 8.80065L10.5175 8.73256L10.5756 8.66501L10.6343 8.59804L10.6938 8.53161L10.754 8.46571L10.8149 8.40039L10.8765 8.33561L10.9388 8.27148L11.0017 8.20787L11.0654 8.14486L11.1297 8.08249L11.1947 8.02066L11.2603 7.95953L11.3266 7.89893L11.3936 7.83904L11.4611 7.77974L11.5294 7.72109L11.5982 7.66308L11.6677 7.60573L11.7378 7.54902L11.8085 7.49302L11.8798 7.43767L11.9517 7.38302L12.0243 7.32903L12.0973 7.27574L12.171 7.22316L12.2453 7.17128L12.3201 7.12012L12.3954 7.06972L12.4714 7.01997L12.5478 6.97098L12.6248 6.92273L12.7023 6.87521L12.7804 6.82844L12.8589 6.78242L12.938 6.73716L13.0176 6.69267L13.0976 6.64894L13.1782 6.606L13.2592 6.56382L13.3407 6.52244L13.4227 6.48184L13.5051 6.44204L13.588 6.40304L13.6712 6.36484L13.755 6.32745L13.8392 6.29088L13.9237 6.25513L14.0087 6.2202L14.094 6.1861L14.1798 6.15283L14.266 6.12039L14.3525 6.0888L14.4394 6.05806L14.5266 6.02816L14.6142 5.99911L14.7021 5.97093L14.7904 5.9436L14.879 5.91714L14.9679 5.89155L15.0571 5.86683L15.1466 5.84299L15.2364 5.82002L15.3265 5.79794L15.4168 5.77675L15.5074 5.75643L15.5983 5.73702L15.6893 5.7185L15.7807 5.70088L15.8723 5.68415L15.964 5.66833L16.056 5.65342L16.1482 5.63941L16.2406 5.62632L16.3331 5.61413L16.3676 5.60994ZM16.4067 8.95173L16.3801 6.67388L16.3042 6.68463L16.2227 6.69703L16.1411 6.71025L16.06 6.72423L15.9788 6.73906L15.898 6.75465L15.8174 6.77104L15.7371 6.7882L15.6569 6.80617L15.5769 6.82494L15.4972 6.84448L15.4178 6.8648L15.3384 6.88592L15.2622 6.90702L15.1811 6.93042L15.1026 6.95383L15.0246 6.97799L14.9469 7.00287L14.8695 7.02857L14.7923 7.05504L14.7154 7.08221L14.639 7.1101L14.5629 7.1388L14.4871 7.16816L14.4116 7.19834L14.3366 7.22917L14.2617 7.26082L14.1874 7.29313L14.1134 7.32614L14.0399 7.35986L13.9666 7.39434L13.8937 7.42953L13.8215 7.46531L13.7494 7.50192L13.678 7.53911L13.6067 7.57714L13.5362 7.61563L13.4657 7.65506L13.396 7.69491L13.3267 7.73553L13.2578 7.77685L13.1893 7.81876L13.1213 7.86144L13.0539 7.90459L12.9868 7.9485L12.9204 7.99301L12.8544 8.0381L12.7889 8.08391L12.7238 8.13036L12.6595 8.17722L12.5955 8.22491L12.532 8.27313L12.4691 8.32194L12.4068 8.37127L12.3449 8.42132L12.2837 8.47184L12.2231 8.52295L12.1628 8.57476L12.1034 8.62693L12.0443 8.6798L11.9859 8.73321L11.928 8.78709L11.8708 8.8415L11.814 8.89655L11.7581 8.95196L11.7026 9.00796L11.6477 9.06455L11.5935 9.12156L11.5398 9.17915L11.4868 9.23715L11.4344 9.29563L11.3827 9.35463L11.3314 9.41417L11.2811 9.474L11.2312 9.53442L11.182 9.59532L11.1335 9.65656L11.0856 9.71822L11.0383 9.78047L10.9918 9.84301L10.9459 9.90603L10.9006 9.96946L10.8561 10.0333L10.8122 10.0974L10.769 10.162L10.7265 10.2271L10.6847 10.2924L10.6436 10.3581L10.6032 10.4242L10.5634 10.4907L10.5243 10.5575L10.486 10.6246L10.4484 10.6921L10.4115 10.7598L10.3753 10.8279L10.3398 10.8964L10.3051 10.965L10.271 11.0341L10.2377 11.1034L10.2051 11.1729L10.1732 11.2428L10.1421 11.3129L10.1117 11.3833L10.082 11.4539L10.0531 11.5248L10.0249 11.5959L9.99741 11.6673L9.97067 11.7388L9.94475 11.8106L9.91946 11.8826L9.89505 11.9547L9.87128 12.0271L9.84832 12.0996L9.82606 12.1724L9.80461 12.2452L9.78386 12.3183L9.76393 12.3914L9.74469 12.4648L9.72623 12.5383L9.70853 12.6119L9.6916 12.6856L9.67541 12.7594L9.65998 12.8334L9.64533 12.9075L9.63142 12.9815L9.61827 13.0558L9.6059 13.1301L9.59426 13.2045L9.58341 13.2788L9.57331 13.3533L9.56397 13.4278L9.55539 13.5024L9.54757 13.577L9.54052 13.6516L9.53422 13.7262L9.52869 13.8008L9.52391 13.8755L9.51989 13.9501L9.51663 14.0247L9.51413 14.0992L9.51238 14.1738L9.51139 14.2483L9.51115 14.3228L9.51167 14.3972L9.51295 14.4715L9.51497 14.5458L9.51773 14.6199L9.52126 14.6941L9.52552 14.7681L9.53053 14.842L9.53629 14.9158L9.54279 14.9895L9.55003 15.0631L9.55801 15.1365L9.56673 15.2099L9.57618 15.2831L9.58637 15.3561L9.59729 15.429L9.60893 15.5016L9.6213 15.5742L9.6344 15.6466L9.64822 15.7187L9.66276 15.7907L9.67801 15.8624L9.69399 15.934L9.71066 16.0053L9.72806 16.0765L9.74616 16.1474L9.76497 16.2181L9.78444 16.2884L9.80467 16.3586L9.82554 16.4286L9.84716 16.4982L9.86942 16.5677L9.89238 16.6368L9.91603 16.7055L9.94033 16.7741L9.96532 16.8424L9.99101 16.9103L10.0173 16.9779L10.0443 17.0453L10.072 17.1123L10.1003 17.179L10.1293 17.2453L10.1589 17.3113L10.1892 17.3769L10.2201 17.4422L10.2516 17.5072L10.2838 17.5717L10.3166 17.636L10.35 17.6998L10.384 17.7632L10.4187 17.8263L10.454 17.889L10.4898 17.9512L10.5263 18.0131L10.5634 18.0745L10.6011 18.1356L10.6393 18.1961L10.6782 18.2564L10.7176 18.316L10.7576 18.3754L10.7981 18.4342L10.8393 18.4927L10.8809 18.5506L10.9232 18.6081L10.966 18.6651L11.0093 18.7217L11.0532 18.7777L11.0976 18.8333L11.1425 18.8884L11.1879 18.9431L11.2339 18.9971L11.2804 19.0508L11.3274 19.1039L11.3749 19.1565L11.4228 19.2086L11.4713 19.2601L11.5202 19.3112L11.5697 19.3617L11.6196 19.4117L11.67 19.4612L11.7208 19.5101L11.772 19.5584L11.8238 19.6063L11.8759 19.6535L11.9285 19.7002L11.9816 19.7463L12.0351 19.7919L12.089 19.837L12.1433 19.8813L12.1979 19.9252L12.253 19.9685L12.3086 20.0112L12.3645 20.0533L12.4207 20.0948L12.4773 20.1357L12.5343 20.176L12.5917 20.2157L12.6494 20.2549L12.7075 20.2934L12.7659 20.3313L12.8247 20.3686L12.8837 20.4053L12.9431 20.4413L13.0029 20.4768L13.0629 20.5115L13.1233 20.5457L13.1838 20.5793L13.2448 20.6122L13.306 20.6445L13.3674 20.6761L13.4292 20.7072L13.4913 20.7375L13.5535 20.7673L13.616 20.7964L13.6789 20.8248L13.7418 20.8526L13.805 20.8797L13.8685 20.9063L13.9322 20.9321L13.996 20.9572L14.0601 20.9818L14.1244 21.0056L14.1889 21.0289L14.2535 21.0514L14.3184 21.0733L14.3834 21.0945L14.4485 21.115L14.5139 21.1349L14.5793 21.1541L14.6449 21.1727L14.7106 21.1906L14.7765 21.2078L14.8424 21.2243L14.9085 21.2402L14.9747 21.2554L15.041 21.27L15.1074 21.2838L15.1738 21.297L15.2405 21.3095L15.307 21.3213L15.3737 21.3325L15.4405 21.3429L15.5072 21.3528L15.5741 21.3619L15.6409 21.3704L15.7078 21.3782L15.7747 21.3853L15.8417 21.3917L15.9086 21.3975L15.9756 21.4026L16.0426 21.4071L16.1095 21.4108L16.1764 21.4139L16.2433 21.4163L16.3102 21.4181L16.3769 21.4192L16.4437 21.4196L16.5104 21.4193L16.5771 21.4184L16.6437 21.4169L16.7102 21.4146L16.7767 21.4117L16.843 21.4081L16.9093 21.4039L16.9754 21.3991L17.0415 21.3935L17.1074 21.3873L17.1733 21.3805L17.239 21.373L17.3046 21.3649L17.37 21.3561L17.4353 21.3467L17.5005 21.3366L17.5654 21.3259L17.6302 21.3146L17.6949 21.3026L17.7593 21.2899L17.8236 21.2767L17.8878 21.2628L17.9516 21.2483L18.0153 21.2332L18.0788 21.2174L18.1421 21.2011L18.2051 21.1841L18.268 21.1665L18.3306 21.1483L18.3929 21.1295L18.455 21.1101L18.5169 21.0901L18.5785 21.0694L18.6398 21.0482L18.7009 21.0264L18.7617 21.004L18.8222 20.981L18.8824 20.9574L18.9424 20.9333L19.0021 20.9085L19.0614 20.8832L19.1204 20.8573L19.1792 20.8309L19.2375 20.8039L19.2956 20.7763L19.3534 20.7482L19.4107 20.7196L19.4679 20.6903L19.5246 20.6606L19.581 20.6303L19.6369 20.5995L19.6926 20.5681L19.748 20.5362L19.8028 20.5038L19.8574 20.4709L19.9116 20.4374L19.9653 20.4035L20.0187 20.369L20.0716 20.3341L20.1242 20.2986L20.1765 20.2626L20.2282 20.2262L20.2795 20.1893L20.3305 20.1518L20.381 20.1141L20.4311 20.0757L20.4808 20.0368L20.5298 19.9976L20.5787 19.9579L20.6271 19.9177L20.6748 19.8771L20.7223 19.8359L20.7692 19.7944L20.8157 19.7526L20.8618 19.7101L20.9073 19.6674L20.9524 19.6242L20.997 19.5806L21.0411 19.5366L21.0847 19.4922L21.1279 19.4474L21.1706 19.4022L21.2127 19.3566L21.2543 19.3106L21.2955 19.2643L21.3361 19.2176L21.3763 19.1705L21.4159 19.1231L21.455 19.0753L21.4936 19.0271L21.5316 18.9788L21.5692 18.9299L21.6062 18.8808L21.6427 18.8313L21.6786 18.7816L21.714 18.7316L21.7489 18.6811L21.7832 18.6304L21.817 18.5794L21.8503 18.5281L21.8828 18.4766L21.915 18.4247L21.9466 18.3726L21.9776 18.3202L22.008 18.2676L22.038 18.2146L22.0672 18.1616L22.0961 18.1081L22.1243 18.0545L22.1518 18.0007L22.179 17.9464L22.2053 17.8923L22.2313 17.8376L22.2565 17.7831L22.2814 17.728L22.3055 17.673L22.3291 17.6175L22.3522 17.5621L22.3745 17.5065L22.3964 17.4506L22.4177 17.3945L22.4382 17.3385L22.4584 17.2821L22.4778 17.2256L22.4967 17.169L22.515 17.1122L22.5327 17.0553L22.5499 16.9983L22.5664 16.9412L22.5823 16.8839L22.5976 16.8266L22.6124 16.7692L22.6265 16.7116L22.64 16.6541L22.653 16.5963L22.6653 16.5385L22.6771 16.4807L22.6882 16.4228L22.6988 16.3649L22.7087 16.3067L22.7181 16.2488L22.7269 16.1906L22.735 16.1325L22.7426 16.0744L22.7495 16.0162L22.7559 15.9579L22.7617 15.8999L22.7669 15.8415L22.7715 15.7833L22.7755 15.7253L22.7789 15.667L22.7817 15.6089L22.7839 15.5508L22.7855 15.4926L22.7865 15.4347L22.787 15.3766L22.7868 15.3186L22.7861 15.2607L22.7848 15.203L22.7829 15.1452L22.7803 15.0874L22.7773 15.03L22.7736 14.9723L22.7694 14.9148L22.7646 14.8577L22.7592 14.8003L22.7532 14.7433L22.7466 14.6862L22.7395 14.6294L22.7319 14.5726L22.7236 14.5159L22.7148 14.4594L22.7054 14.4031L22.6955 14.3469L22.685 14.2909L22.6739 14.2349L22.6622 14.1792L22.6501 14.1238L22.6374 14.0684L22.6241 14.0131L22.6103 13.9582L22.5959 13.9032L22.581 13.8487L22.5655 13.7943L22.5495 13.7401L22.533 13.6861L22.5159 13.6323L22.4984 13.5788L22.4803 13.5255L22.4616 13.4723L22.4425 13.4195L22.4228 13.3669L22.4027 13.3146L22.382 13.2624L22.3608 13.2105L22.3391 13.159L22.3168 13.1076L22.2942 13.0566L22.271 13.006L22.2472 12.9554L22.223 12.9051L22.1984 12.8553L22.1732 12.8056L22.1476 12.7564L22.1215 12.7074L22.0949 12.6586L22.0679 12.6103L22.0404 12.5622L22.0124 12.5145L21.9839 12.467L21.9552 12.42L21.9258 12.3732L21.8961 12.3268L21.8658 12.2808L21.8352 12.2351L21.8041 12.1896L21.7726 12.1447L21.7407 12.1001L21.7083 12.0557L21.6755 12.0119L21.6423 11.9683L21.6088 11.9252L21.5748 11.8824L21.5404 11.84L21.5055 11.7979L21.4704 11.7563L21.4349 11.7151L21.3988 11.6742L21.3626 11.6338L21.3258 11.5938L21.2889 11.5543L21.2513 11.5149L21.2136 11.4762L21.1753 11.4377L21.1369 11.3998L21.0981 11.3623L21.0589 11.3252L21.0193 11.2885L20.9795 11.2523L20.9393 11.2165L20.8987 11.181L20.858 11.1462L20.8168 11.1116L20.7754 11.0776L20.7337 11.0441L20.6916 11.0108L20.6493 10.9782L20.6068 10.946L20.5638 10.9142L20.5205 10.8828L20.4772 10.8521L20.4333 10.8216L20.3895 10.7918L20.3452 10.7624L20.3007 10.7334L20.2559 10.7048L20.211 10.6769L20.1657 10.6493L20.1203 10.6223L20.0745 10.5957L20.0287 10.5697L19.9826 10.5441L19.9362 10.5189L19.8897 10.4943L19.843 10.4702L19.796 10.4465L19.7488 10.4234L19.7016 10.4007L19.6542 10.3786L19.6063 10.3569L19.5586 10.3358L19.5106 10.3151L19.4624 10.2949L19.4141 10.2753L19.3657 10.2562L19.3171 10.2375L19.2683 10.2193L19.2195 10.2018L19.1704 10.1846L19.1213 10.168L19.0722 10.1519L19.0228 10.1363L18.9735 10.1212L18.9237 10.1066L18.8741 10.0926L18.8244 10.079L18.7746 10.066L18.7248 10.0535L18.6747 10.0414L18.6247 10.0299L18.5747 10.019L18.5245 10.0085L18.4741 9.99846L18.4241 9.98908L18.3737 9.98012L18.3234 9.9717L18.2729 9.96374L18.2227 9.95637L18.1721 9.94941L18.1218 9.94311L18.0713 9.93721L18.0209 9.93185L17.9705 9.92701L17.92 9.92265L17.8697 9.91882L17.8191 9.91552L17.7688 9.91269L17.7186 9.91039L17.668 9.90856L17.6179 9.90727L17.5676 9.9065L17.5175 9.9062L17.4832 9.90632L17.5092 12.1318L17.5247 12.1319L17.5535 12.1323L17.5824 12.133L17.6114 12.1339L17.6403 12.1353L17.6693 12.1369L17.6983 12.1388L17.7274 12.141L17.7564 12.1436L17.7855 12.1464L17.8147 12.1495L17.8438 12.1529L17.873 12.1567L17.9021 12.1608L17.9313 12.1651L17.9604 12.1698L17.9896 12.1749L18.0187 12.1802L18.0479 12.1858L18.077 12.1917L18.1062 12.198L18.1353 12.2046L18.1644 12.2115L18.1934 12.2187L18.2225 12.2261L18.2515 12.234L18.2804 12.2421L18.3094 12.2505L18.3382 12.2593L18.3671 12.2684L18.3958 12.2778L18.4246 12.2876L18.4533 12.2976L18.4819 12.3079L18.5105 12.3186L18.5389 12.3295L18.5674 12.3408L18.5957 12.3524L18.624 12.3643L18.6522 12.3765L18.6803 12.3891L18.7083 12.4019L18.7363 12.4151L18.7641 12.4286L18.7918 12.4423L18.8195 12.4564L18.847 12.4708L18.8744 12.4855L18.9017 12.5005L18.9289 12.5159L18.956 12.5315L18.983 12.5474L19.0098 12.5636L19.0365 12.5802L19.0631 12.597L19.0895 12.6142L19.1158 12.6316L19.142 12.6493L19.168 12.6674L19.1939 12.6858L19.2196 12.7044L19.2451 12.7233L19.2705 12.7425L19.2958 12.762L19.3208 12.7818L19.3457 12.8019L19.3704 12.8223L19.395 12.843L19.4194 12.8639L19.4436 12.8852L19.4676 12.9067L19.4914 12.9285L19.515 12.9506L19.5384 12.9729L19.5616 12.9956L19.5847 13.0185L19.6075 13.0417L19.6301 13.0651L19.6525 13.0888L19.6747 13.1128L19.6966 13.1371L19.7184 13.1616L19.7399 13.1864L19.7612 13.2114L19.7822 13.2367L19.8031 13.2623L19.8237 13.2881L19.844 13.3141L19.8641 13.3404L19.884 13.367L19.9037 13.3938L19.923 13.4208L19.9421 13.4481L19.961 13.4756L19.9796 13.5034L19.9979 13.5313L20.016 13.5595L20.0338 13.588L20.0513 13.6166L20.0686 13.6455L20.0855 13.6747L20.1022 13.7039L20.1187 13.7335L20.1348 13.7632L20.1506 13.7932L20.1662 13.8234L20.1814 13.8537L20.1964 13.8843L20.2111 13.915L20.2254 13.946L20.2395 13.9772L20.2533 14.0085L20.2668 14.0401L20.2799 14.0718L20.2927 14.1037L20.3052 14.1357L20.3174 14.168L20.3294 14.2004L20.3409 14.233L20.3521 14.2658L20.3631 14.2987L20.3736 14.3317L20.3839 14.365L20.3938 14.3983L20.4034 14.4319L20.4126 14.4656L20.4216 14.4994L20.4302 14.5333L20.4384 14.5675L20.4463 14.6017L20.4539 14.636L20.4611 14.6706L20.4679 14.7052L20.4744 14.7398L20.4805 14.7747L20.4864 14.8097L20.4918 14.8447L20.4969 14.8799L20.5016 14.9151L20.5059 14.9505L20.5099 14.986L20.5136 15.0215L20.5169 15.0571L20.5198 15.0929L20.5223 15.1287L20.5245 15.1645L20.5263 15.2005L20.5277 15.2365L20.5288 15.2726L20.5294 15.3087L20.5298 15.3449L20.5297 15.3811L20.5292 15.4174L20.5284 15.4538L20.5272 15.4902L20.5256 15.5266L20.5237 15.563L20.5213 15.5995L20.5186 15.636L20.5155 15.6726L20.512 15.7091L20.5081 15.7456L20.5038 15.7822L20.4992 15.8188L20.4942 15.8554L20.4888 15.892L20.483 15.9285L20.4768 15.9651L20.4702 16.0016L20.4632 16.0381L20.4559 16.0746L20.4481 16.1111L20.44 16.1476L20.4315 16.184L20.4225 16.2204L20.4132 16.2567L20.4036 16.293L20.3935 16.3292L20.383 16.3654L20.3721 16.4015L20.3609 16.4376L20.3493 16.4735L20.3373 16.5095L20.3249 16.5453L20.312 16.5811L20.2988 16.6168L20.2853 16.6523L20.2714 16.6879L20.257 16.7232L20.2423 16.7585L20.2272 16.7937L20.2117 16.8289L20.1958 16.8638L20.1795 16.8987L20.1628 16.9334L20.1459 16.968L20.1284 17.0025L20.1106 17.0369L20.0925 17.0711L20.0739 17.1052L20.055 17.1391L20.0357 17.1729L20.016 17.2065L19.996 17.24L19.9756 17.2733L19.9548 17.3065L19.9337 17.3394L19.9121 17.3722L19.8902 17.4048L19.868 17.4373L19.8454 17.4696L19.8224 17.5016L19.799 17.5335L19.7753 17.5652L19.7513 17.5967L19.7269 17.628L19.7021 17.659L19.677 17.6899L19.6515 17.7205L19.6257 17.7509L19.5995 17.7811L19.573 17.811L19.5462 17.8408L19.5189 17.8703L19.4915 17.8995L19.4636 17.9286L19.4354 17.9574L19.4068 17.9858L19.378 18.0141L19.3488 18.0421L19.3192 18.0698L19.2894 18.0973L19.2593 18.1245L19.2288 18.1515L19.198 18.1781L19.1669 18.2045L19.1355 18.2306L19.1037 18.2564L19.0717 18.2819L19.0394 18.3071L19.0068 18.332L18.9738 18.3567L18.9406 18.3809L18.9071 18.4049L18.8733 18.4287L18.8392 18.452L18.8048 18.4751L18.7702 18.4978L18.7353 18.5203L18.7001 18.5424L18.6646 18.5642L18.6289 18.5856L18.5929 18.6067L18.5566 18.6274L18.52 18.6478L18.4833 18.6679L18.4463 18.6876L18.409 18.707L18.3715 18.726L18.3338 18.7447L18.2958 18.7629L18.2575 18.7808L18.2191 18.7984L18.1804 18.8156L18.1415 18.8324L18.1024 18.8489L18.063 18.8649L18.0234 18.8806L17.9837 18.8959L17.9437 18.9108L17.9035 18.9254L17.8632 18.9395L17.8226 18.9533L17.7819 18.9667L17.741 18.9796L17.6999 18.9921L17.6585 19.0043L17.6171 19.016L17.5755 19.0274L17.5337 19.0383L17.4917 19.0489L17.4496 19.059L17.4073 19.0687L17.3649 19.0779L17.3224 19.0868L17.2796 19.0953L17.2368 19.1033L17.1939 19.1109L17.1507 19.1181L17.1075 19.1248L17.0642 19.1311L17.0208 19.137L16.9772 19.1425L16.9335 19.1475L16.8898 19.152L16.8459 19.1562L16.8019 19.1599L16.7579 19.1632L16.7137 19.166L16.6695 19.1684L16.6252 19.1703L16.5809 19.1718L16.5364 19.1728L16.492 19.1734L16.4474 19.1736L16.4029 19.1733L16.3582 19.1725L16.3135 19.1713L16.2688 19.1696L16.2241 19.1675L16.1793 19.1649L16.1344 19.1619L16.0896 19.1584L16.0448 19.1545L15.9999 19.15L15.9551 19.1452L15.9103 19.1398L15.8655 19.1341L15.8206 19.1278L15.7758 19.1212L15.731 19.114L15.6862 19.1064L15.6414 19.0983L15.5967 19.0897L15.5521 19.0808L15.5074 19.0713L15.4628 19.0614L15.4183 19.0509L15.3738 19.0401L15.3294 19.0288L15.285 19.017L15.2408 19.0048L15.1966 18.9921L15.1525 18.979L15.1085 18.9654L15.0645 18.9513L15.0207 18.9368L14.9769 18.9218L14.9333 18.9063L14.8898 18.8904L14.8464 18.874L14.8031 18.8572L14.76 18.84L14.7169 18.8222L14.674 18.8041L14.6313 18.7854L14.5887 18.7663L14.5462 18.7468L14.504 18.7269L14.4618 18.7064L14.4198 18.6855L14.378 18.6642L14.3364 18.6424L14.295 18.6202L14.2537 18.5976L14.2126 18.5745L14.1717 18.551L14.131 18.527L14.0905 18.5026L14.0503 18.4777L14.0102 18.4525L13.9703 18.4268L13.9307 18.4006L13.8913 18.3741L13.8521 18.3471L13.8132 18.3196L13.7745 18.2918L13.7361 18.2636L13.6979 18.2349L13.6599 18.2058L13.6222 18.1763L13.5848 18.1464L13.5477 18.1161L13.5108 18.0854L13.4742 18.0543L13.4378 18.0227L13.4018 17.9908L13.366 17.9585L13.3306 17.9258L13.2954 17.8926L13.2606 17.8591L13.226 17.8253L13.1917 17.791L13.1578 17.7563L13.1243 17.7213L13.0909 17.6859L13.058 17.6502L13.0254 17.614L12.9931 17.5775L12.9612 17.5407L12.9296 17.5034L12.8983 17.4659L12.8674 17.4279L12.8369 17.3896L12.8067 17.351L12.7769 17.312L12.7474 17.2727L12.7184 17.233L12.6897 17.193L12.6614 17.1527L12.6335 17.112L12.6059 17.0711L12.5788 17.0298L12.552 16.9882L12.5257 16.9463L12.4997 16.9041L12.4742 16.8616L12.449 16.8187L12.4243 16.7756L12.4 16.7322L12.3762 16.6885L12.3527 16.6445L12.3297 16.6003L12.307 16.5557L12.2848 16.5109L12.2631 16.4659L12.2418 16.4205L12.221 16.3749L12.2006 16.3291L12.1806 16.283L12.1611 16.2366L12.142 16.19L12.1234 16.1431L12.1053 16.0961L12.0876 16.0488L12.0705 16.0012L12.0537 15.9535L12.0375 15.9056L12.0217 15.8574L12.0064 15.809L11.9915 15.7604L11.9772 15.7117L11.9633 15.6627L11.9499 15.6135L11.9371 15.5642L11.9247 15.5147L11.9128 15.465L11.9014 15.4152L11.8905 15.3651L11.8801 15.315L11.8702 15.2646L11.8608 15.2142L11.8519 15.1635L11.8435 15.1128L11.8357 15.0619L11.8283 15.0109L11.8214 14.9598L11.8151 14.9085L11.8093 14.8571L11.804 14.8056L11.7993 14.754L11.795 14.7023L11.7913 14.6506L11.7881 14.5987L11.7854 14.5468L11.7833 14.4948L11.7817 14.4427L11.7806 14.3905L11.7801 14.3383L11.78 14.2861L11.7806 14.2337L11.7817 14.1814L11.7832 14.129L11.7854 14.0765L11.7881 14.024L11.7913 13.9716L11.795 13.919L11.7993 13.8665L11.8041 13.814L11.8095 13.7615L11.8154 13.709L11.8218 13.6564L11.8288 13.604L11.8364 13.5515L11.8444 13.499L11.8531 13.4466L11.8622 13.3942L11.8719 13.3419L11.8822 13.2896L11.893 13.2374L11.9044 13.1852L11.9162 13.1331L11.9287 13.0811L11.9416 13.0291L11.9552 12.9772L11.9692 12.9255L11.9838 12.8738L11.9989 12.8222L12.0146 12.7707L12.0308 12.7193L12.0476 12.668L12.0649 12.6169L12.0827 12.5659L12.1011 12.515L12.12 12.4642L12.1395 12.4136L12.1595 12.3632L12.18 12.3128L12.201 12.2627L12.2226 12.2128L12.2447 12.1629L12.2673 12.1133L12.2905 12.0639L12.3142 12.0146L12.3384 11.9655L12.3631 11.9167L12.3884 11.868L12.4142 11.8196L12.4405 11.7714L12.4673 11.7233L12.4946 11.6755L12.5224 11.628L12.5508 11.5807L12.5796 11.5336L12.609 11.4868L12.6389 11.4401L12.6693 11.3938L12.7001 11.3478L12.7315 11.302L12.7634 11.2565L12.7957 11.2112L12.8286 11.1663L12.8619 11.1216L12.8957 11.0773L12.93 11.0332L12.9648 10.9894L13.0001 10.9459L13.0358 10.9028L13.072 10.86L13.1087 10.8175L13.1458 10.7753L13.1834 10.7335L13.2215 10.692L13.26 10.6509L13.299 10.6101L13.3384 10.5697L13.3783 10.5296L13.4186 10.4898L13.4594 10.4505L13.5006 10.4116L13.5422 10.373L13.5842 10.3348L13.6267 10.2969L13.6697 10.2595L13.713 10.2225L13.7567 10.1859L13.8009 10.1497L13.8454 10.1138L13.8904 10.0784L13.9358 10.0435L13.9815 10.0089L14.0277 9.97482L14.0742 9.94116L14.1211 9.90791L14.1684 9.87508L14.2162 9.84272L14.2642 9.81083L14.3126 9.77941L14.3614 9.7484L14.4105 9.71787L14.46 9.6878L14.5098 9.65821L14.5601 9.62909L14.6106 9.60044L14.6614 9.57227L14.7126 9.54462L14.7641 9.51745L14.816 9.49074L14.8681 9.46457L14.9206 9.43887L14.9734 9.4137L15.0264 9.389L15.0798 9.36483L15.1334 9.34119L15.1874 9.31803L15.2417 9.29539L15.2961 9.27335L15.3509 9.25177L15.406 9.23073L15.4613 9.21021L15.5168 9.19029L15.5727 9.17084L15.6287 9.15197L15.685 9.13364L15.7415 9.11584L15.7983 9.09863L15.8553 9.08194L15.9125 9.06585L15.9699 9.05029L16.0275 9.03526L16.0853 9.02082L16.1433 9.00696L16.2016 8.9937L16.2599 8.98097L16.3185 8.96882L16.3772 8.95727L16.4067 8.95173ZM17.1285 13.2315L16.4586 13.3938L16.4192 10.0282L16.3877 10.0354L16.3401 10.0468L16.2927 10.0586L16.2455 10.0709L16.1984 10.0836L16.1516 10.0968L16.1049 10.1106L16.0585 10.1246L16.0121 10.1392L15.9662 10.1541L15.9203 10.1696L15.8746 10.1856L15.8291 10.2019L15.7838 10.2186L15.739 10.2358L15.6942 10.2535L15.6496 10.2715L15.6053 10.29L15.5611 10.3089L15.5174 10.3281L15.4738 10.348L15.4305 10.3681L15.3873 10.3887L15.3446 10.4096L15.3019 10.431L15.2597 10.4528L15.2177 10.4749L15.1759 10.4975L15.1345 10.5204L15.0933 10.5438L15.0524 10.5675L15.0119 10.5916L14.9714 10.6162L14.9314 10.641L14.8918 10.6662L14.8524 10.6918L14.8132 10.7178L14.7744 10.7441L14.7359 10.7708L14.6978 10.7978L14.66 10.8252L14.6224 10.853L14.5852 10.8811L14.5483 10.9095L14.5118 10.9383L14.4756 10.9673L14.4398 10.9967L14.4042 11.0264L14.369 11.0566L14.3343 11.0869L14.2998 11.1176L14.2657 11.1485L14.2319 11.1798L14.1985 11.2115L14.1655 11.2434L14.1328 11.2755L14.1004 11.308L14.0685 11.3407L14.037 11.3738L14.0058 11.4071L13.9749 11.4408L13.9445 11.4746L13.9144 11.5087L13.8847 11.5431L13.8555 11.5777L13.8266 11.6126L13.7981 11.6476L13.7699 11.6831L13.7423 11.7187L13.7149 11.7546L13.688 11.7907L13.6615 11.8269L13.6353 11.8634L13.6096 11.9002L13.5843 11.9372L13.5594 11.9743L13.5349 12.0117L13.5108 12.0492L13.4872 12.087L13.4639 12.125L13.4411 12.1631L13.4186 12.2015L13.3966 12.2399L13.375 12.2786L13.3538 12.3174L13.3331 12.3564L13.3127 12.3956L13.2929 12.4349L13.2733 12.4744L13.2543 12.5139L13.2357 12.5538L13.2175 12.5936L13.1998 12.6336L13.1824 12.6738L13.1655 12.7141L13.149 12.7544L13.133 12.795L13.1174 12.8356L13.1022 12.8763L13.0875 12.9171L13.0732 12.958L13.0593 12.9991L13.0458 13.0401L13.0328 13.0813L13.0203 13.1226L13.0081 13.1639L12.9965 13.2053L12.9852 13.2468L12.9744 13.2883L12.964 13.3299L12.9541 13.3715L12.9445 13.4132L12.9355 13.4549L12.9269 13.4967L12.9187 13.5384L12.9109 13.5802L12.9036 13.6221L12.8967 13.6639L12.8902 13.7058L12.8842 13.7477L12.8786 13.7895L12.8735 13.8315L12.8688 13.8733L12.8645 13.9152L12.8607 13.9572L12.8572 13.999L12.8543 14.0408L12.8517 14.0827L12.8496 14.1244L12.8479 14.1662L12.8466 14.2078L12.8458 14.2496L12.8453 14.2912L12.8454 14.3327L12.8458 14.3742L12.8467 14.4157L12.8479 14.4571L12.8496 14.4984L12.8517 14.5397L12.8543 14.5808L12.8572 14.6219L12.8606 14.663L12.8644 14.7039L12.8686 14.7448L12.8732 14.7854L12.8782 14.8261L12.8836 14.8666L12.8894 14.9071L12.8957 14.9473L12.9023 14.9875L12.9093 15.0277L12.9168 15.0676L12.9246 15.1074L12.9328 15.147L12.9415 15.1867L12.9505 15.226L12.9599 15.2653L12.9696 15.3044L12.9799 15.3435L12.9904 15.3822L13.0013 15.4209L13.0127 15.4593L13.0243 15.4977L13.0364 15.5359L13.0489 15.5738L13.0617 15.6117L13.0749 15.6493L13.0884 15.6866L13.1023 15.724L13.1166 15.761L13.1313 15.7979L13.1463 15.8345L13.1616 15.871L13.1773 15.9073L13.1934 15.9434L13.2098 15.9792L13.2265 16.0148L13.2435 16.0502L13.261 16.0855L13.2787 16.1204L13.2968 16.1551L13.3152 16.1896L13.334 16.2239L13.353 16.258L13.3724 16.2918L13.3921 16.3253L13.4121 16.3586L13.4324 16.3917L13.4531 16.4245L13.474 16.4571L13.4953 16.4894L13.5168 16.5215L13.5386 16.5532L13.5608 16.5848L13.5832 16.616L13.6059 16.647L13.6289 16.6777L13.6522 16.7081L13.6757 16.7383L13.6996 16.7682L13.7237 16.7978L13.748 16.827L13.7727 16.8561L13.7976 16.8849L13.8227 16.9133L13.8482 16.9415L13.8737 16.9692L13.8997 16.9969L13.9258 17.0241L13.9522 17.051L13.9788 17.0777L14.0057 17.104L14.0328 17.1301L14.0601 17.1558L14.0876 17.1812L14.1154 17.2063L14.1434 17.2311L14.1716 17.2555L14.1999 17.2797L14.2285 17.3035L14.2574 17.327L14.2864 17.3502L14.3155 17.373L14.345 17.3955L14.3745 17.4177L14.4043 17.4396L14.4342 17.4611L14.4643 17.4824L14.4946 17.5032L14.5251 17.5237L14.5556 17.5439L14.5864 17.5638L14.6174 17.5833L14.6485 17.6024L14.6797 17.6213L14.7111 17.6398L14.7426 17.6579L14.7742 17.6757L14.8061 17.6932L14.838 17.7103L14.87 17.727L14.9022 17.7434L14.9346 17.7595L14.9669 17.7752L14.9995 17.7906L15.0321 17.8056L15.0647 17.8202L15.0976 17.8346L15.1306 17.8485L15.1636 17.8622L15.1967 17.8754L15.2299 17.8883L15.2632 17.9008L15.2965 17.913L15.33 17.9249L15.3634 17.9363L15.397 17.9475L15.4306 17.9582L15.4643 17.9687L15.4981 17.9787L15.5318 17.9884L15.5657 17.9977L15.5996 18.0068L15.6335 18.0154L15.6674 18.0237L15.7014 18.0316L15.7354 18.0391L15.7694 18.0464L15.8035 18.0532L15.8376 18.0597L15.8716 18.0659L15.9057 18.0717L15.9398 18.0771L15.974 18.0823L16.008 18.087L16.0421 18.0913L16.0761 18.0954L16.1103 18.0991L16.1443 18.1024L16.1784 18.1054L16.2124 18.1081L16.2463 18.1104L16.2803 18.1123L16.3142 18.1139L16.348 18.1152L16.382 18.1161L16.4157 18.1167L16.4494 18.1169L16.4831 18.1168L16.5167 18.1164L16.5504 18.1156L16.5839 18.1144L16.6173 18.113L16.6506 18.1112L16.6841 18.1091L16.7172 18.1066L16.7504 18.1038L16.7834 18.1007L16.8164 18.0973L16.8493 18.0935L16.882 18.0894L16.9148 18.085L16.9474 18.0802L16.9798 18.0751L17.0123 18.0698L17.0445 18.064L17.0767 18.058L17.1088 18.0517L17.1407 18.045L17.1725 18.0381L17.2041 18.0308L17.2357 18.0232L17.2671 18.0153L17.2984 18.0072L17.3296 17.9987L17.3605 17.9899L17.3915 17.9808L17.4222 17.9714L17.4527 17.9617L17.4832 17.9517L17.5135 17.9414L17.5436 17.9309L17.5735 17.9201L17.6033 17.909L17.633 17.8975L17.6624 17.8858L17.6917 17.8739L17.7208 17.8617L17.7497 17.8491L17.7786 17.8363L17.8071 17.8233L17.8355 17.81L17.8637 17.7964L17.8917 17.7826L17.9196 17.7685L17.9471 17.7542L17.9746 17.7395L18.0019 17.7246L18.0289 17.7095L18.0557 17.6942L18.0824 17.6786L18.1088 17.6627L18.135 17.6466L18.161 17.6303L18.1868 17.6137L18.2123 17.597L18.2377 17.58L18.2629 17.5628L18.2878 17.5453L18.3125 17.5276L18.3369 17.5097L18.3611 17.4916L18.3851 17.4732L18.4089 17.4547L18.4325 17.4359L18.4558 17.4169L18.4788 17.3978L18.5017 17.3785L18.5242 17.3589L18.5466 17.3392L18.5687 17.3192L18.5906 17.2991L18.6122 17.2788L18.6334 17.2584L18.6546 17.2377L18.6755 17.2168L18.6961 17.1958L18.7164 17.1747L18.7365 17.1533L18.7563 17.1318L18.776 17.11L18.7952 17.0883L18.8143 17.0662L18.8331 17.0441L18.8516 17.0219L18.8699 16.9993L18.8878 16.9768L18.9056 16.9541L18.9231 16.9313L18.9403 16.9083L18.9572 16.8851L18.9739 16.8619L18.9903 16.8385L19.0064 16.815L19.0222 16.7914L19.0378 16.7676L19.0532 16.7438L19.0681 16.7199L19.0829 16.6958L19.0973 16.6717L19.1115 16.6474L19.1255 16.623L19.1391 16.5986L19.1524 16.574L19.1655 16.5493L19.1783 16.5247L19.1908 16.4999L19.2031 16.475L19.215 16.4501L19.2267 16.425L19.2381 16.3999L19.2492 16.3747L19.26 16.3496L19.2706 16.3242L19.2808 16.2989L19.2909 16.2734L19.3005 16.2481L19.31 16.2224L19.3191 16.1971L19.328 16.1714L19.3366 16.1457L19.3448 16.1201L19.3528 16.0944L19.3606 16.0688L19.3681 16.0429L19.3752 16.0173L19.3821 15.9913L19.3887 15.9657L19.395 15.9398L19.4011 15.9138L19.4068 15.8881L19.4123 15.8624L19.4175 15.8363L19.4225 15.8105L19.4271 15.7846L19.4315 15.7589L19.4356 15.733L19.4394 15.7072L19.443 15.6813L19.4462 15.6555L19.4493 15.6298L19.452 15.6041L19.4544 15.5782L19.4566 15.5526L19.4586 15.5269L19.4602 15.5013L19.4616 15.4757L19.4627 15.4501L19.4635 15.4247L19.4641 15.3992L19.4644 15.3736L19.4645 15.3483L19.4643 15.3231L19.4638 15.2978L19.463 15.2727L19.462 15.2474L19.4608 15.2226L19.4593 15.1972L19.4575 15.1725L19.4555 15.1477L19.4532 15.1227L19.4507 15.098L19.4479 15.0735L19.4448 15.0487L19.4416 15.0244L19.438 15L19.4343 14.9759L19.4303 14.9515L19.426 14.9273L19.4215 14.9034L19.4168 14.8795L19.4118 14.8556L19.4066 14.832L19.4012 14.8083L19.3955 14.7849L19.3896 14.7616L19.3834 14.7381L19.3771 14.7151L19.3705 14.6919L19.3637 14.6691L19.3567 14.6463L19.3494 14.6236L19.3419 14.6011L19.3342 14.5785L19.3263 14.5564L19.3182 14.5343L19.3098 14.5121L19.3013 14.4903L19.2925 14.4684L19.2836 14.447L19.2744 14.4253L19.2651 14.4041L19.2555 14.383L19.2457 14.3619L19.2358 14.341L19.2256 14.3202L19.2153 14.2996L19.2047 14.2792L19.194 14.2589L19.1831 14.2388L19.172 14.2189L19.1607 14.199L19.1493 14.1794L19.1377 14.16L19.1258 14.1406L19.1138 14.1215L19.1017 14.1026L19.0894 14.0837L19.0769 14.0651L19.0643 14.0467L19.0514 14.0283L19.0384 14.0102L19.0253 13.9923L19.012 13.9746L18.9986 13.957L18.985 13.9396L18.9713 13.9224L18.9574 13.9054L18.9434 13.8885L18.9292 13.8718L18.9149 13.8554L18.9005 13.8391L18.8859 13.823L18.8712 13.807L18.8563 13.7914L18.8414 13.7759L18.8262 13.7605L18.8111 13.7454L18.7957 13.7305L18.7803 13.7157L18.7646 13.7011L18.7491 13.6868L18.7332 13.6726L18.7174 13.6587L18.7013 13.6449L18.6852 13.6314L18.669 13.618L18.6527 13.6049L18.6364 13.5919L18.6198 13.5791L18.6033 13.5666L18.5866 13.5542L18.5698 13.5421L18.553 13.5302L18.5361 13.5184L18.5191 13.5069L18.502 13.4956L18.4848 13.4844L18.4677 13.4735L18.4503 13.4628L18.433 13.4523L18.4156 13.442L18.3981 13.432L18.3805 13.4221L18.3629 13.4124L18.3453 13.4029L18.3276 13.3936L18.3099 13.3846L18.292 13.3757L18.2742 13.3671L18.2563 13.3588L18.2384 13.3505L18.2205 13.3425L18.2024 13.3346L18.1845 13.3271L18.1664 13.3197L18.1482 13.3125L18.1302 13.3056L18.112 13.2988L18.0939 13.2923L18.0757 13.2859L18.0575 13.2797L18.0394 13.2738L18.0211 13.268L18.0029 13.2625L17.9847 13.2572L17.9664 13.2521L17.9482 13.2472L17.93 13.2424L17.9117 13.2379L17.8935 13.2336L17.8753 13.2295L17.857 13.2256L17.8388 13.2219L17.8207 13.2183L17.8026 13.215L17.7843 13.2119L17.7663 13.209L17.7481 13.2063L17.7301 13.2038L17.712 13.2014L17.6939 13.1993L17.676 13.1974L17.658 13.1956L17.6401 13.1941L17.6222 13.1927L17.6044 13.1915L17.5865 13.1905L17.5687 13.1898L17.5511 13.1892L17.5334 13.1887L17.5158 13.1885L17.4982 13.1884L17.4807 13.1886L17.4632 13.1889L17.4458 13.1893L17.4284 13.19L17.4112 13.1909L17.3939 13.1919L17.3768 13.1931L17.3597 13.1945L17.3427 13.1961L17.3258 13.1978L17.3088 13.1997L17.2921 13.2017L17.2753 13.204L17.2587 13.2064L17.2421 13.209L17.2256 13.2117L17.2092 13.2146L17.193 13.2176L17.1766 13.2209L17.1605 13.2242L17.1444 13.2278L17.1285 13.2315Z" fill="black"/>
</g>
</g>
</svg>
