<svg width="107" height="28" viewBox="0 0 107 28" fill="none" xmlns="http://www.w3.org/2000/svg">
<g style="mix-blend-mode:luminosity">
<g opacity="0.5">
<path d="M29.8218 8.54175V16.8705L24.5464 8.54175H22.4363V20.041H24.5464V11.778L29.8218 20.041H31.932V8.54175H29.8218Z" fill="black"/>
<path d="M32.8828 10.6937H35.0579V8.54175H32.8828V10.6937ZM32.9153 20.041V11.8272H35.0254V20.041H32.9153Z" fill="black"/>
<path d="M44.1046 15.9341C44.1046 13.0922 42.108 11.7451 39.9979 11.7287C37.8715 11.7123 35.9074 13.0922 35.9074 15.9341C35.9074 18.7761 37.8715 20.156 39.9979 20.1396C41.9295 20.1231 43.2605 19.2196 43.8773 17.7247L42.2379 17.0348C41.7347 18.0533 40.9393 18.4147 39.9979 18.4311C39.1863 18.4475 38.2611 18.0533 38.0663 16.5912H44.0559C44.0883 16.3777 44.1046 16.1641 44.1046 15.9341ZM39.9979 13.4207C40.8095 13.4371 41.6373 13.8807 41.897 15.0635H38.0987C38.3747 13.8643 39.2025 13.4043 39.9979 13.4207Z" fill="black"/>
<path d="M48.9813 13.355V11.7287H47.6502V9.5274L45.5401 10.1845V11.7287H44.2091V13.355H45.5401V17.6097C45.5401 19.2196 45.6699 20.041 48.1372 20.041H48.7053V18.1683H48.1372C47.7476 18.1683 47.6502 18.1025 47.6502 17.6097V13.355H48.9813Z" fill="black"/>
<path d="M52.1168 18.2504L56.5968 13.6178V11.8272H49.8768V13.6178H54.227L49.7469 18.2504V20.041H56.6455V18.2504H52.1168Z" fill="black"/>
<path d="M57.4021 17.7247L59.5285 17.3962C59.6746 18.2175 60.6323 18.5297 61.2166 18.5297C61.8172 18.5297 62.856 18.3982 62.856 17.4126C62.856 15.4906 57.6456 17.889 57.6456 14.2092C57.6456 11.8437 60.3563 11.7123 61.2166 11.7123C62.0282 11.7123 64.3818 11.8437 64.8688 13.7493L62.856 14.1764C62.6775 13.3057 61.7685 13.1414 61.2815 13.1414C60.7946 13.1414 59.7557 13.2564 59.7557 14.2092C59.7557 16.1148 64.9662 13.6835 64.9662 17.4126C64.9662 19.926 62.1094 20.1396 61.2166 20.1396C60.405 20.1396 57.8241 19.926 57.4021 17.7247Z" fill="black"/>
<path d="M67.7075 15.9341C67.7075 17.9383 68.7626 18.5461 69.8663 18.5297C70.8565 18.5132 71.5382 18.1025 71.944 16.9526L73.6809 17.8068C73.0478 19.4825 71.5058 20.1231 69.8663 20.1396C67.74 20.156 65.5973 18.7761 65.5973 15.9341C65.5973 13.0922 67.74 11.7123 69.8663 11.7287C71.5058 11.7451 73.0478 12.3858 73.6809 14.0614L71.944 14.9156C71.5382 13.7657 70.8565 13.355 69.8663 13.3386C68.7626 13.3221 67.7075 13.93 67.7075 15.9341Z" fill="black"/>
<path d="M79.3457 11.6958C78.2581 11.6958 77.268 12.2708 76.635 13.5028V8.54175H74.5248V20.041H76.635V17.1333C76.635 13.3714 78.177 13.0593 78.7451 13.0593C79.6541 13.0593 79.784 14.0121 79.784 15.4084V20.041H81.8941V15.4084C81.8941 13.6671 81.6182 11.6958 79.3457 11.6958Z" fill="black"/>
<path d="M90.8032 15.9341C90.8032 13.0922 88.8066 11.7451 86.6965 11.7287C84.5701 11.7123 82.606 13.0922 82.606 15.9341C82.606 18.7761 84.5701 20.156 86.6965 20.1396C88.6281 20.1231 89.9591 19.2196 90.5759 17.7247L88.9365 17.0348C88.4333 18.0533 87.6379 18.4147 86.6965 18.4311C85.8849 18.4475 84.9597 18.0533 84.7649 16.5912H90.7545C90.7869 16.3777 90.8032 16.1641 90.8032 15.9341ZM86.6965 13.4207C87.5081 13.4371 88.3359 13.8807 88.5956 15.0635H84.7973C85.0733 13.8643 85.9011 13.4043 86.6965 13.4207Z" fill="black"/>
</g>
<path d="M10.9485 16.6599V21.7572C10.9485 21.9526 10.8718 22.14 10.7353 22.2781C10.5988 22.4163 10.4136 22.4939 10.2205 22.4939C10.0275 22.4939 9.84232 22.4163 9.70578 22.2781C9.56924 22.14 9.49254 21.9526 9.49254 21.7572V16.667C9.69526 16.8168 9.93824 16.9004 10.1892 16.9067C10.4627 16.9146 10.7307 16.8275 10.9485 16.6599ZM17.1485 15.1864C16.9637 15.1864 16.7865 15.2607 16.6559 15.3929C16.5253 15.5251 16.4518 15.7045 16.4518 15.8915V16.7798C16.4518 16.9752 16.5285 17.1626 16.6651 17.3007C16.8015 17.4389 16.9867 17.5165 17.1798 17.5165C17.3729 17.5165 17.5581 17.4389 17.6945 17.3007C17.8311 17.1626 17.9078 16.9752 17.9078 16.7798V15.9267C17.9132 15.8256 17.8971 15.7245 17.8604 15.6303C17.8238 15.5361 17.7676 15.451 17.6955 15.3807C17.6234 15.3105 17.5373 15.2568 17.4429 15.2232C17.3485 15.1898 17.2481 15.1772 17.1485 15.1864ZM7.9112 18.5917C7.66053 18.5841 7.41787 18.5006 7.21457 18.352V23.4633C7.21457 23.6597 7.29163 23.848 7.42881 23.9868C7.56599 24.1256 7.75203 24.2036 7.94603 24.2036C8.14003 24.2036 8.32608 24.1256 8.46325 23.9868C8.60043 23.848 8.67749 23.6597 8.67749 23.4633V18.3872C8.45001 18.536 8.1816 18.6077 7.9112 18.5917ZM14.8775 13.6566C14.7831 13.6518 14.6887 13.6665 14.6001 13.6998C14.5116 13.733 14.4306 13.7842 14.3622 13.8502C14.2938 13.9161 14.2394 13.9955 14.2022 14.0834C14.165 14.1713 14.1459 14.266 14.146 14.3616V18.2885C14.146 18.4849 14.2231 18.6732 14.3602 18.812C14.4975 18.9508 14.6835 19.0288 14.8775 19.0288C15.0715 19.0288 15.2575 18.9508 15.3947 18.812C15.5319 18.6732 15.6089 18.4849 15.6089 18.2885V14.4109C15.6145 14.3092 15.5982 14.2075 15.5611 14.1127C15.5241 14.0179 15.4672 13.9324 15.3944 13.8621C15.3215 13.7917 15.2345 13.7381 15.1393 13.7051C15.044 13.6721 14.9428 13.6603 14.8426 13.6707L14.8775 13.6566ZM12.5647 15.1653C12.3022 15.1635 12.0469 15.0798 11.8332 14.9256V20.0511C11.8332 20.2474 11.9103 20.4357 12.0474 20.5745C12.1847 20.7133 12.3707 20.7913 12.5647 20.7913C12.7587 20.7913 12.9447 20.7133 13.0819 20.5745C13.2191 20.4357 13.2961 20.2474 13.2961 20.0511V14.9326C13.0752 15.0992 12.8053 15.1861 12.5298 15.1794L12.5647 15.1653ZM6.32986 19.0922V4.77334C6.32803 4.5988 6.25822 4.43205 6.13562 4.30929C6.01301 4.18652 5.8475 4.11767 5.67503 4.11768H5.52177C5.3493 4.11767 5.18379 4.18652 5.06118 4.30929C4.93858 4.43205 4.86878 4.5988 4.86694 4.77334V19.0922C4.86694 19.268 4.93594 19.4366 5.05874 19.5609C5.18154 19.6852 5.3481 19.7549 5.52177 19.7549H5.67503C5.84871 19.7549 6.01526 19.6852 6.13806 19.5609C6.26087 19.4366 6.32986 19.268 6.32986 19.0922ZM7.98783 18.0488H7.83457C7.6609 18.0488 7.49434 17.979 7.37154 17.8547C7.24874 17.7304 7.17974 17.5619 7.17974 17.3861V6.47948C7.18158 6.30495 7.25138 6.13818 7.37398 6.01543C7.49659 5.89266 7.6621 5.82381 7.83457 5.82382H7.98783C8.1603 5.82381 8.32581 5.89266 8.44842 6.01543C8.57102 6.13818 8.64083 6.30495 8.64266 6.47948V17.4002C8.64266 17.576 8.57366 17.7445 8.45086 17.8688C8.32806 17.9931 8.1615 18.0629 7.98783 18.0629V18.0488ZM10.2937 16.3709H10.1334C9.96165 16.3709 9.79683 16.3018 9.67534 16.1788C9.55384 16.0559 9.48558 15.8891 9.48558 15.7152V8.17152C9.48467 8.08483 9.50076 7.99881 9.53288 7.91844C9.56499 7.83808 9.61257 7.76497 9.67283 7.70334C9.73309 7.6417 9.80484 7.59277 9.88391 7.55938C9.96297 7.526 10.0478 7.5088 10.1334 7.50881H10.2937C10.4661 7.51067 10.6309 7.5813 10.7522 7.70539C10.8735 7.82947 10.9415 7.99697 10.9415 8.17152V15.7152C10.9415 15.8891 10.8733 16.0559 10.7518 16.1788C10.6303 16.3018 10.4655 16.3709 10.2937 16.3709ZM12.5995 14.6436H12.4532C12.2807 14.6436 12.1152 14.5748 11.9926 14.452C11.87 14.3292 11.8002 14.1625 11.7984 13.9879V9.92701C11.7927 9.83649 11.8053 9.74575 11.8357 9.66038C11.866 9.57507 11.9134 9.49688 11.9748 9.43082C12.0361 9.36469 12.1103 9.3121 12.1926 9.27614C12.2749 9.24026 12.3635 9.22179 12.4532 9.222H12.6065C12.7801 9.222 12.9467 9.29179 13.0695 9.41609C13.1923 9.54038 13.2613 9.70895 13.2613 9.88471V13.9738C13.2622 14.0614 13.246 14.1484 13.2134 14.2296C13.181 14.3108 13.1329 14.3847 13.0719 14.447C13.0111 14.5093 12.9386 14.5587 12.8586 14.5925C12.7787 14.6262 12.6931 14.6436 12.6065 14.6436H12.5995ZM14.9123 13.1278H14.759C14.5854 13.1278 14.4188 13.058 14.296 12.9337C14.1732 12.8094 14.1042 12.6408 14.1042 12.4651V11.4146C14.106 11.24 14.1758 11.0733 14.2984 10.9506C14.421 10.8277 14.5866 10.7589 14.759 10.7589H14.9123C15.0848 10.7589 15.2503 10.8277 15.3729 10.9506C15.4955 11.0733 15.5653 11.24 15.5671 11.4146V12.4651C15.5671 12.6396 15.4991 12.8071 15.3778 12.9312C15.2565 13.0553 15.0917 13.126 14.9193 13.1278H14.9123Z" fill="#3F8810"/>
</g>
</svg>
