<svg width="87" height="28" viewBox="0 0 87 28" fill="none" xmlns="http://www.w3.org/2000/svg">
<g style="mix-blend-mode:luminosity">
<path d="M16.6289 6.63852C16.4456 6.40193 16.2624 6.16534 16.0791 5.92875C15.5293 5.17166 14.9428 4.41457 14.2097 3.94139C13.3666 3.37358 12.4503 3.51553 11.5339 3.51553C10.141 3.51553 6.65886 3.51553 4.6062 3.51553L5.99908 5.92875C8.52824 5.92875 12.4869 5.92875 14.3197 5.92875C15.0894 5.92875 15.7492 6.11802 16.3723 6.63852C16.4823 6.68583 16.5922 6.68583 16.6289 6.63852Z" fill="#66C61C"/>
<path d="M18.1685 10.5184C17.9852 10.2818 17.8019 10.0452 17.6187 9.80862C17.0688 9.05154 16.4824 8.29445 15.7493 7.82127C14.9062 7.25346 13.9899 7.39541 13.0735 7.39541C11.8639 7.39541 8.96818 7.39541 6.91553 7.39541L8.3084 9.80862C10.8009 9.80862 14.2098 9.80862 15.8959 9.80862C16.6656 9.80862 17.3254 9.9979 17.9486 10.5184C18.0219 10.5657 18.0952 10.5657 18.1685 10.5184Z" fill="#4CA30D"/>
<path d="M19.8911 14.3031C19.7079 14.0665 19.5246 13.8299 19.3413 13.5933C18.7915 12.8362 18.205 12.0791 17.472 11.6059C16.6289 11.0381 15.7125 11.1801 14.7962 11.1801C13.6599 11.1801 11.1674 11.1801 9.15137 11.1801L10.5442 13.5933C12.9634 13.5933 16.0424 13.5933 17.5819 13.5933C18.3517 13.5933 19.0114 13.7826 19.6346 14.3031C19.7445 14.3504 19.8178 14.3977 19.8911 14.3031Z" fill="#3B7C0F"/>
<path d="M4.45947 20.6917C4.64275 20.9283 4.82602 21.1649 5.00929 21.4015C5.55911 22.1586 6.14558 22.9157 6.87867 23.3889C7.72173 23.9567 8.63809 23.8147 9.55445 23.8147H16.4822L15.0893 21.4015C12.5601 21.4015 8.60144 21.4015 6.76871 21.4015C5.99897 21.4015 5.33918 21.2122 4.71605 20.6917C4.60609 20.6444 4.53278 20.6444 4.45947 20.6917Z" fill="#66C61C"/>
<path d="M2.91992 16.8111C3.10319 17.0477 3.28647 17.2843 3.46974 17.5209C4.01956 18.278 4.60603 19.0351 5.33912 19.5083C6.18217 20.0761 7.09854 19.9341 8.0149 19.9341H14.1729L12.78 17.5209C10.2875 17.5209 6.87861 17.5209 5.1925 17.5209C4.42276 17.5209 3.76297 17.3316 3.13985 16.8111C3.06654 16.7638 2.99323 16.7638 2.91992 16.8111Z" fill="#4CA30D"/>
<path d="M1.23413 12.9791C1.4174 13.2157 1.60068 13.4523 1.78395 13.6889C2.33377 14.4459 2.92024 15.203 3.65333 15.6762C4.49639 16.244 5.41275 16.1021 6.32911 16.1021H11.9739L10.581 13.6889C8.16184 13.6889 5.08286 13.6889 3.54337 13.6889C2.77362 13.6889 2.11384 13.4996 1.49071 12.9791C1.38075 12.9318 1.30744 12.9318 1.23413 12.9791Z" fill="#3B7C0F"/>
<g opacity="0.5">
<path d="M24.1025 8.19556V19.1388H25.9666V14.6175H29.5165V12.7476H25.9666V10.2187H30.0627V8.19556H24.1025Z" fill="black"/>
<path d="M34.7378 14.3262H31.9952C32.0031 14.173 32.0269 13.9993 32.0665 13.8051C32.1139 13.611 32.1891 13.4271 32.292 13.2534C32.4029 13.0797 32.5453 12.9366 32.7195 12.8242C32.9015 12.7016 33.1271 12.6403 33.3962 12.6403C33.8078 12.6403 34.1125 12.7834 34.3104 13.0695C34.5162 13.3556 34.6587 13.7745 34.7378 14.3262ZM31.9952 15.7057H36.4238C36.4554 15.0926 36.4158 14.5051 36.305 13.9431C36.1942 13.3811 36.0122 12.8804 35.7589 12.4411C35.5135 12.0017 35.1969 11.6543 34.8091 11.3988C34.4212 11.1332 33.9661 11.0003 33.4437 11.0003C32.9767 11.0003 32.5493 11.1076 32.1614 11.3222C31.7815 11.5368 31.453 11.8331 31.176 12.2112C30.899 12.579 30.6853 13.0184 30.5349 13.5293C30.3845 14.0401 30.3093 14.5919 30.3093 15.1845C30.3093 15.7976 30.3805 16.3596 30.523 16.8705C30.6734 17.3814 30.8831 17.8207 31.1523 18.1886C31.4214 18.5564 31.7499 18.8425 32.1377 19.0469C32.5255 19.241 32.9609 19.3381 33.4437 19.3381C34.1402 19.3381 34.7339 19.1337 35.2246 18.725C35.7153 18.3163 36.0794 17.6368 36.3169 16.6866H34.8328C34.7774 16.9318 34.627 17.1668 34.3816 17.3916C34.1363 17.6062 33.8434 17.7135 33.5031 17.7135C33.0282 17.7135 32.6641 17.5551 32.4108 17.2383C32.1575 16.9216 32.019 16.4107 31.9952 15.7057Z" fill="black"/>
<path d="M36.9962 13.6519C37.02 13.141 37.1189 12.7169 37.2931 12.3798C37.4672 12.0426 37.6888 11.7718 37.9579 11.5674C38.2271 11.3631 38.5278 11.22 38.8603 11.1383C39.2006 11.0463 39.541 11.0003 39.8813 11.0003C40.19 11.0003 40.5027 11.031 40.8193 11.0923C41.1359 11.1434 41.4248 11.2507 41.686 11.4142C41.9472 11.5777 42.1609 11.8076 42.3271 12.1039C42.4933 12.39 42.5764 12.7731 42.5764 13.2534V17.3763C42.5764 17.7339 42.5923 18.0762 42.6239 18.4032C42.6556 18.7301 42.711 18.9754 42.7901 19.1388H41.0805C41.0488 19.0162 41.0211 18.8936 40.9974 18.771C40.9815 18.6382 40.9697 18.5053 40.9617 18.3725C40.6926 18.7301 40.376 18.9805 40.0119 19.1235C39.6478 19.2666 39.2758 19.3381 38.8959 19.3381C38.603 19.3381 38.33 19.2921 38.0767 19.2001C37.8234 19.1082 37.6018 18.9651 37.4118 18.771C37.2218 18.5769 37.0714 18.3316 36.9606 18.0353C36.8577 17.739 36.8063 17.3865 36.8063 16.9778C36.8063 16.5282 36.8656 16.1603 36.9844 15.8742C37.111 15.5779 37.2693 15.3429 37.4593 15.1692C37.6572 14.9955 37.8788 14.8678 38.1242 14.786C38.3774 14.6941 38.6307 14.6226 38.884 14.5715C39.1373 14.5204 39.3866 14.4795 39.632 14.4489C39.8774 14.4182 40.095 14.3722 40.285 14.3109C40.475 14.2496 40.6253 14.1628 40.7362 14.0504C40.847 13.9278 40.8984 13.754 40.8905 13.5293C40.8905 13.2942 40.8588 13.1103 40.7955 12.9775C40.7401 12.8344 40.661 12.7272 40.5581 12.6556C40.4631 12.5739 40.3483 12.5228 40.2138 12.5024C40.0871 12.4717 39.9486 12.4564 39.7982 12.4564C39.4658 12.4564 39.2046 12.5483 39.0146 12.7323C38.8246 12.9162 38.7138 13.2227 38.6822 13.6519H36.9962ZM40.8905 15.2612C40.8193 15.3429 40.7282 15.4093 40.6174 15.4604C40.5145 15.5013 40.3998 15.5371 40.2731 15.5677C40.1544 15.5984 40.0278 15.6239 39.8932 15.6443C39.7586 15.6648 39.6241 15.6903 39.4895 15.721C39.3629 15.7516 39.2362 15.7925 39.1096 15.8436C38.9909 15.8947 38.884 15.9662 38.789 16.0582C38.702 16.1399 38.6307 16.2472 38.5753 16.38C38.5199 16.5129 38.4922 16.6815 38.4922 16.8858C38.4922 17.0799 38.5199 17.2434 38.5753 17.3763C38.6307 17.5091 38.7059 17.6164 38.8009 17.6981C38.8959 17.7696 39.0067 17.8207 39.1333 17.8514C39.26 17.882 39.3906 17.8974 39.5251 17.8974C39.8576 17.8974 40.1148 17.8258 40.2969 17.6828C40.4789 17.5397 40.6135 17.3712 40.7005 17.177C40.7876 16.9727 40.8391 16.7683 40.8549 16.5639C40.8786 16.3596 40.8905 16.1961 40.8905 16.0735V15.2612Z" fill="black"/>
<path d="M45.6659 11.2149V8.83928H43.98V11.2149H42.959V12.671H43.98V17.3456C43.98 17.7441 44.0315 18.066 44.1344 18.3112C44.2373 18.5564 44.3758 18.7455 44.5499 18.8783C44.732 19.0111 44.9377 19.098 45.1673 19.1388C45.4047 19.1899 45.6541 19.2155 45.9153 19.2155C46.0815 19.2155 46.2517 19.2104 46.4258 19.2001C46.5999 19.1899 46.7582 19.1695 46.9007 19.1388V17.4529C46.8216 17.4733 46.7384 17.4887 46.6514 17.4989C46.5643 17.5091 46.4733 17.5142 46.3783 17.5142C46.0934 17.5142 45.9034 17.4529 45.8084 17.3303C45.7134 17.2077 45.6659 16.9624 45.6659 16.5946V12.671H46.9007V11.2149H45.6659Z" fill="black"/>
<path d="M47.3467 8.19556V19.1388H49.0326V14.9853C49.0326 14.1781 49.1355 13.6008 49.3413 13.2534C49.5471 12.8958 49.8795 12.7169 50.3386 12.7169C50.7423 12.7169 51.0233 12.8804 51.1816 13.2074C51.3399 13.5241 51.419 14.0095 51.419 14.6634V19.1388H53.105V14.2649C53.105 13.7745 53.0693 13.33 52.9981 12.9315C52.9348 12.5228 52.82 12.1805 52.6538 11.9046C52.4876 11.6185 52.258 11.3988 51.9652 11.2456C51.6802 11.0821 51.3122 11.0003 50.861 11.0003C50.5444 11.0003 50.2199 11.1076 49.8874 11.3222C49.555 11.5266 49.2819 11.8586 49.0682 12.3184H49.0326V8.19556H47.3467Z" fill="black"/>
<path d="M58.1601 14.3262H55.4175C55.4254 14.173 55.4491 13.9993 55.4887 13.8051C55.5362 13.611 55.6114 13.4271 55.7143 13.2534C55.8251 13.0797 55.9676 12.9366 56.1417 12.8242C56.3237 12.7016 56.5493 12.6403 56.8184 12.6403C57.23 12.6403 57.5348 12.7834 57.7326 13.0695C57.9384 13.3556 58.0809 13.7745 58.1601 14.3262ZM55.4175 15.7057H59.846C59.8777 15.0926 59.8381 14.5051 59.7273 13.9431C59.6165 13.3811 59.4344 12.8804 59.1811 12.4411C58.9357 12.0017 58.6191 11.6543 58.2313 11.3988C57.8435 11.1332 57.3883 11.0003 56.8659 11.0003C56.3989 11.0003 55.9715 11.1076 55.5837 11.3222C55.2037 11.5368 54.8753 11.8331 54.5982 12.2112C54.3212 12.579 54.1075 13.0184 53.9571 13.5293C53.8067 14.0401 53.7315 14.5919 53.7315 15.1845C53.7315 15.7976 53.8028 16.3596 53.9452 16.8705C54.0956 17.3814 54.3054 17.8207 54.5745 18.1886C54.8436 18.5564 55.1721 18.8425 55.5599 19.0469C55.9478 19.241 56.3831 19.3381 56.8659 19.3381C57.5625 19.3381 58.1561 19.1337 58.6468 18.725C59.1376 18.3163 59.5017 17.6368 59.7391 16.6866H58.255C58.1996 16.9318 58.0492 17.1668 57.8039 17.3916C57.5585 17.6062 57.2656 17.7135 56.9253 17.7135C56.4504 17.7135 56.0863 17.5551 55.833 17.2383C55.5797 16.9216 55.4412 16.4107 55.4175 15.7057Z" fill="black"/>
<path d="M60.4897 11.2149V19.1388H62.1756V15.5677C62.1756 15.2101 62.2033 14.878 62.2588 14.5715C62.3142 14.2649 62.4052 13.9993 62.5318 13.7745C62.6664 13.5395 62.8405 13.3556 63.0542 13.2227C63.2679 13.0899 63.5291 13.0235 63.8378 13.0235C63.9407 13.0235 64.0476 13.0337 64.1584 13.0541C64.2692 13.0643 64.3642 13.0797 64.4433 13.1001V11.077C64.3088 11.0259 64.1861 11.0003 64.0753 11.0003C63.8616 11.0003 63.6558 11.0412 63.4579 11.123C63.26 11.2047 63.074 11.3222 62.8999 11.4755C62.7257 11.6185 62.5714 11.7973 62.4368 12.0119C62.3023 12.2163 62.1954 12.4411 62.1163 12.6863H62.0925V11.2149H60.4897Z" fill="black"/>
<path d="M66.7902 17.1157V10.2187H68.12C68.5791 10.2187 68.963 10.3055 69.2716 10.4792C69.5883 10.6427 69.8415 10.8828 70.0315 11.1996C70.2215 11.5163 70.356 11.8995 70.4352 12.3491C70.5222 12.7885 70.5658 13.284 70.5658 13.8358C70.5658 14.4386 70.5064 14.9495 70.3877 15.3685C70.269 15.7874 70.1107 16.1297 69.9128 16.3954C69.7149 16.6508 69.4893 16.8347 69.236 16.9471C68.9827 17.0595 68.7215 17.1157 68.4524 17.1157H66.7902ZM64.9262 8.19556V19.1388H68.583C69.2321 19.1388 69.794 19.0009 70.269 18.725C70.7518 18.4389 71.1515 18.0506 71.4681 17.5602C71.7926 17.0697 72.034 16.4873 72.1923 15.8129C72.3506 15.1386 72.4298 14.4029 72.4298 13.6059C72.4298 12.6965 72.3309 11.9046 72.133 11.2302C71.943 10.5559 71.6739 9.99389 71.3256 9.54431C70.9853 9.09472 70.5776 8.75754 70.1027 8.53274C69.6357 8.30795 69.1292 8.19556 68.583 8.19556H64.9262Z" fill="black"/>
<path d="M77.3239 14.3262H74.5813C74.5892 14.173 74.6129 13.9993 74.6525 13.8051C74.7 13.611 74.7752 13.4271 74.8781 13.2534C74.9889 13.0797 75.1314 12.9366 75.3055 12.8242C75.4876 12.7016 75.7131 12.6403 75.9823 12.6403C76.3938 12.6403 76.6986 12.7834 76.8965 13.0695C77.1022 13.3556 77.2447 13.7745 77.3239 14.3262ZM74.5813 15.7057H79.0098C79.0415 15.0926 79.0019 14.5051 78.8911 13.9431C78.7803 13.3811 78.5982 12.8804 78.3449 12.4411C78.0996 12.0017 77.783 11.6543 77.3951 11.3988C77.0073 11.1332 76.5521 11.0003 76.0297 11.0003C75.5627 11.0003 75.1353 11.1076 74.7475 11.3222C74.3676 11.5368 74.0391 11.8331 73.762 12.2112C73.485 12.579 73.2713 13.0184 73.1209 13.5293C72.9705 14.0401 72.8953 14.5919 72.8953 15.1845C72.8953 15.7976 72.9666 16.3596 73.109 16.8705C73.2594 17.3814 73.4692 17.8207 73.7383 18.1886C74.0074 18.5564 74.3359 18.8425 74.7237 19.0469C75.1116 19.241 75.5469 19.3381 76.0297 19.3381C76.7263 19.3381 77.3199 19.1337 77.8107 18.725C78.3014 18.3163 78.6655 17.6368 78.9029 16.6866H77.4189C77.3634 16.9318 77.2131 17.1668 76.9677 17.3916C76.7223 17.6062 76.4295 17.7135 76.0891 17.7135C75.6142 17.7135 75.2501 17.5551 74.9968 17.2383C74.7435 16.9216 74.605 16.4107 74.5813 15.7057Z" fill="black"/>
<path d="M83.0491 19.1388L85.1269 11.2149H83.4528L82.1587 16.6253H82.1349L80.8408 11.2149H79.0718L81.1732 19.1388H83.0491Z" fill="black"/>
</g>
</g>
</svg>
